<svg width="1306" height="1512" viewBox="0 0 1306 1512" fill="none" xmlns="http://www.w3.org/2000/svg">
<path d="M282 616.475L284.172 615.398L284.517 613L286.212 614.732L288.601 614.318L287.476 616.465L288.609 618.607L286.218 618.202L284.529 619.94L284.176 617.543L282 616.475Z" fill="#C0BEC2"/>
<path d="M77 387.307L78.8485 384.46L77.5505 381.325L80.8303 382.203L83.413 380L83.5912 383.389L86.4855 385.163L83.3157 386.379L82.5217 389.678L80.3849 387.042L77 387.307Z" fill="#B2B6BA"/>
<path d="M504.011 579L503.733 581.72L505.817 583.49L503.143 584.066L502.102 586.595L500.728 584.231L498 584.023L499.824 581.986L499.18 579.329L501.682 580.434L504.011 579Z" fill="#989498"/>
<path d="M96.9551 517.321L99.2082 517.042L100.256 515.029L101.217 517.085L103.456 517.459L101.797 519.007L102.133 521.251L100.147 520.153L98.1155 521.166L98.5468 518.938L96.9551 517.321Z" fill="#989498"/>
<path d="M611.99 698.467L608.473 696.052L604.489 697.579L605.7 693.49L603.015 690.175L607.281 690.062L609.606 686.487L611.031 690.506L615.153 691.611L611.768 694.208L611.99 698.467Z" fill="#D3D1D3"/>
<path d="M898 649.62L900.128 649.697L901.398 648L901.982 650.033L904 650.707L902.233 651.887L902.211 654L900.534 652.697L898.503 653.329L899.233 651.343L898 649.62Z" fill="#D3D1D3"/>
<path d="M1228.25 698.667L1227.47 700.992L1228.94 702.953L1226.49 702.928L1225.08 704.934L1224.34 702.595L1222 701.873L1224 700.452L1223.96 698L1225.93 699.461L1228.25 698.667Z" fill="#8C959D"/>
<path d="M1129 574.791L1134.35 570.074L1133.49 563L1139.63 566.624L1146.1 563.624L1144.55 570.579L1149.4 575.8L1142.3 576.475L1138.83 582.701L1136 576.163L1129 574.791Z" fill="#C0BEC2"/>
<path d="M691.897 464.811L696.843 465.418L700.147 461.69L701.098 466.579L705.667 468.568L701.308 470.982L700.827 475.939L697.183 472.543L692.317 473.617L694.424 469.104L691.897 464.811Z" fill="#C0BEC2"/>
<path d="M142.915 226.42L140.866 230.275L142.882 234.148L138.58 233.391L135.518 236.503L134.908 232.181L131 230.232L134.925 228.317L135.572 224L138.607 227.139L142.915 226.42Z" fill="#989498"/>
<path d="M40 104.755L46.4732 103.207L48.8668 97L52.3403 102.674L58.9868 103.032L54.6599 108.086L56.3738 114.514L50.2267 111.964L44.6397 115.579L45.1669 108.948L40 104.755Z" fill="#D4D8D3"/>
<path d="M433.253 1345.67L432.471 1347.99L433.944 1349.95L431.491 1349.93L430.08 1351.93L429.345 1349.59L427 1348.87L428.999 1347.45L428.961 1345L430.931 1346.46L433.253 1345.67Z" fill="#8C959D"/>
<path d="M1262.77 1500.84L1266.28 1502.57L1269.69 1500.66L1269.13 1504.52L1272 1507.17L1268.15 1507.84L1266.52 1511.38L1264.69 1507.93L1260.81 1507.47L1263.54 1504.67L1262.77 1500.84Z" fill="#C0BEC2"/>
<path d="M731.028 1306.1L732.249 1309.06L735.382 1309.74L732.941 1311.81L733.268 1315L730.538 1313.32L727.607 1314.62L728.361 1311.5L726.222 1309.12L729.418 1308.87L731.028 1306.1Z" fill="#B2B6BA"/>
<path d="M6.88211 1348L6.42965 1350.98L8.62672 1353.04L5.65473 1353.53L4.37338 1356.25L2.98857 1353.58L0 1353.2L2.11647 1351.06L1.5502 1348.1L4.24294 1349.45L6.88211 1348Z" fill="#8C959D"/>
<path d="M453.375 2.69864L451.375 5.33418L452.414 8.47502L449.287 7.38877L446.62 9.3462L446.688 6.03925L444 4.10838L447.168 3.15124L448.175 0L450.065 2.71567L453.375 2.69864Z" fill="#B2B6BA"/>
<path d="M1295.1 117.501L1287.99 117.361L1283.84 123.137L1281.78 116.333L1275 114.175L1280.84 110.11L1280.8 103L1286.47 107.292L1293.22 105.056L1290.89 111.773L1295.1 117.501Z" fill="#C0BEC2"/>
<path d="M1288 1174.22L1293.3 1171.12L1293.75 1165L1298.34 1169.08L1304.3 1167.61L1301.83 1173.24L1305.07 1178.45L1298.96 1177.85L1295 1182.53L1293.69 1176.54L1288 1174.22Z" fill="#B2B6BA"/>
</svg>
