<svg width="27" height="27" viewBox="0 0 27 27" fill="none" xmlns="http://www.w3.org/2000/svg">
<path fill-rule="evenodd" clip-rule="evenodd" d="M22.4601 26.9998H4.53943C3.53072 26.9998 2.70996 26.1792 2.70996 25.1702V19.2317C2.70996 15.7199 5.56696 12.8625 9.07909 12.8625H17.9203C21.4324 12.8625 24.2897 15.7199 24.2897 19.2317V25.1702C24.2897 26.1792 23.4691 26.9998 22.4601 26.9998ZM9.07909 13.4952C5.91596 13.4952 3.34278 16.0687 3.34278 19.2315V25.17C3.34278 25.8297 3.87956 26.3667 4.53943 26.3667H22.4604C23.1201 26.3667 23.6571 25.8299 23.6571 25.17V19.2315C23.6571 16.0684 21.0836 13.4952 17.9208 13.4952H9.07924H9.07909Z" fill="black"/>
<path fill-rule="evenodd" clip-rule="evenodd" d="M13.5611 11.9852C11.0798 11.9852 9.21631 10.1133 9.21631 7.76255V2.66C9.21631 1.19314 10.4096 0.00012207 11.8762 0.00012207H15.1236C16.5905 0.00012207 17.7838 1.19345 17.7838 2.66V7.76271C17.7838 10.091 15.8893 11.9852 13.5609 11.9852H13.5611ZM11.8763 0.632621C10.7586 0.632621 9.84897 1.54198 9.84897 2.66V7.76271C9.84897 9.76651 11.4308 11.3525 13.5607 11.3525C15.5402 11.3525 17.1505 9.74215 17.1505 7.76271V2.66C17.1505 1.54229 16.2412 0.632621 15.1232 0.632621H11.8762H11.8763Z" fill="black"/>
<path fill-rule="evenodd" clip-rule="evenodd" d="M17.4675 3.70618H9.53263C9.11608 3.70618 9.11608 3.07336 9.53263 3.07336H17.4675C17.884 3.07336 17.884 3.70618 17.4675 3.70618Z" fill="black"/>
<path fill-rule="evenodd" clip-rule="evenodd" d="M10.5915 18.9842C10.1897 18.9842 10.167 18.3789 10.5706 18.352C18.3126 17.8356 20.2445 13.6985 20.2628 13.657C20.4311 13.2791 21.0081 13.5333 20.842 13.9119C20.7612 14.0965 18.767 18.4397 10.6124 18.9833C10.6057 18.9839 10.5985 18.984 10.5915 18.984V18.9842Z" fill="black"/>
<path fill-rule="evenodd" clip-rule="evenodd" d="M12.4958 21.0838C12.094 21.0838 12.0713 20.4785 12.4749 20.4516C20.2252 19.935 22.3805 15.4296 22.4014 15.384C22.5753 15.0064 23.1491 15.2676 22.9776 15.646C22.8874 15.8455 20.6689 20.5397 12.5172 21.0828C12.51 21.0834 12.5028 21.0838 12.4958 21.0838Z" fill="black"/>
<path fill-rule="evenodd" clip-rule="evenodd" d="M14.4005 23.1833C13.9987 23.1833 13.9762 22.578 14.3796 22.5511C22.1444 22.0335 23.6194 18.419 23.6331 18.3828C23.7822 17.9949 24.3732 18.2198 24.2239 18.6093C24.1609 18.7737 22.5858 22.6381 14.4216 23.1825C14.4146 23.1831 14.4072 23.1833 14.4005 23.1833Z" fill="black"/>
<path fill-rule="evenodd" clip-rule="evenodd" d="M8.3501 26.9998C8.17544 26.9998 8.03369 26.8579 8.03369 26.6834V17.123C8.03369 16.7065 8.66651 16.7066 8.66651 17.123V26.6834C8.66619 26.8581 8.52476 26.9998 8.3501 26.9998Z" fill="black"/>
<path fill-rule="evenodd" clip-rule="evenodd" d="M10.592 18.9843H8.34989C7.9335 18.9843 7.9335 18.3514 8.34989 18.3514H10.592C11.0085 18.3514 11.0085 18.9843 10.592 18.9843Z" fill="black"/>
<path fill-rule="evenodd" clip-rule="evenodd" d="M15.3192 13.4954H11.6807C11.506 13.4954 11.3643 13.3537 11.3643 13.179V11.248C11.3643 11.0127 11.6139 10.859 11.824 10.9659C12.8441 11.4853 14.1558 11.4856 15.1759 10.9659C15.3855 10.8591 15.6358 11.0127 15.6358 11.248V13.179C15.6358 13.3537 15.494 13.4953 15.3194 13.4953L15.3192 13.4954ZM11.9971 12.8626H15.0028V11.7311C14.0708 12.0738 12.9291 12.0735 11.9971 11.7311V12.8626Z" fill="black"/>
<path fill-rule="evenodd" clip-rule="evenodd" d="M17.4673 6.17159C17.2926 6.17159 17.1509 6.02984 17.1509 5.85519V3.99962C17.1509 3.32614 18.7114 3.75551 18.7114 4.92748C18.7114 5.61377 18.1533 6.17159 17.4673 6.17159ZM17.7837 4.40462V5.4505C18.1757 5.21256 18.1757 4.64271 17.7837 4.40462Z" fill="black"/>
<path fill-rule="evenodd" clip-rule="evenodd" d="M9.53286 6.17165C7.89514 6.17165 7.89545 3.68311 9.53286 3.68311C9.70752 3.68311 9.84927 3.82486 9.84927 3.99951V5.85508C9.84927 6.03022 9.70768 6.17165 9.53286 6.17165ZM9.21646 4.40451C8.82364 4.64261 8.82411 5.2123 9.21646 5.4504V4.40451Z" fill="black"/>
<path fill-rule="evenodd" clip-rule="evenodd" d="M12.4541 6.76432C12.3222 6.76432 11.9271 6.50867 11.558 6.72193C11.1973 6.93028 10.8809 6.38226 11.2416 6.17407C11.8599 5.817 13.032 6.07978 12.7283 6.60612C12.6699 6.70753 12.5636 6.76432 12.4541 6.76432Z" fill="black"/>
<path fill-rule="evenodd" clip-rule="evenodd" d="M15.6002 6.76428C15.4676 6.76428 15.0741 6.50862 14.7039 6.72188C14.3429 6.92992 14.0272 6.38237 14.3875 6.17402C15.0058 5.81664 16.1779 6.08005 15.8742 6.60607C15.8158 6.70748 15.7095 6.76428 15.6003 6.76428H15.6002Z" fill="black"/>
<path fill-rule="evenodd" clip-rule="evenodd" d="M13.4997 9.0486C12.2221 9.0486 12.6636 8.06711 13.1306 8.337C13.6519 8.63838 14.0587 8.03325 14.301 8.45281C14.5426 8.87078 13.888 9.04876 13.4997 9.04876V9.0486Z" fill="black"/>
<path fill-rule="evenodd" clip-rule="evenodd" d="M8.03351 17.123C8.03351 16.7065 8.66633 16.7066 8.66633 17.123V18.3515H10.5809C17.1459 17.9105 19.5288 14.8651 20.1102 13.9295C19.4351 13.6496 18.6955 13.4952 17.9206 13.4952H15.3191H11.6806H9.07908C5.91596 13.4952 3.34277 16.0687 3.34277 19.2315V25.17C3.34277 25.8298 3.87956 26.3667 4.53943 26.3667H8.03351V17.1228V17.123Z" fill="#EFEFEF"/>
<path fill-rule="evenodd" clip-rule="evenodd" d="M8.6665 18.9842V26.3668H22.4606C23.1203 26.3668 23.6573 25.83 23.6573 25.1702V19.5229C22.6821 20.7452 20.2051 22.7968 14.4218 23.1823L14.4008 23.1831C13.9989 23.1831 13.9765 22.5778 14.3799 22.5509C21.566 22.0719 23.3647 18.9404 23.6039 18.4476C23.4864 17.5908 23.1788 16.7937 22.7253 16.1003C21.954 17.3312 19.2734 20.6326 12.5175 21.0828L12.4961 21.0838C12.0943 21.0838 12.0717 20.4785 12.4753 20.4516C19.3802 19.9914 21.8442 16.3649 22.3143 15.5471C21.8604 15.0068 21.3089 14.5511 20.6871 14.2073C20.0909 15.2267 17.6419 18.5084 10.6342 18.9819C10.6273 18.9827 10.6202 18.9833 10.6129 18.9836C10.6061 18.9839 10.5993 18.9841 10.5923 18.9841H8.66666L8.6665 18.9842Z" fill="#EFEFEF"/>
<path fill-rule="evenodd" clip-rule="evenodd" d="M9.84912 7.76275C9.84912 9.76656 11.431 11.3526 13.5609 11.3526C13.6223 11.3526 13.6833 11.351 13.7441 11.348C14.2445 11.3168 14.7371 11.1894 15.176 10.9659C15.1871 10.9602 15.1983 10.9553 15.2097 10.951C16.3619 10.3529 17.1509 9.14814 17.1509 7.76259L17.1513 5.85513V3.99956L17.1509 3.70593H9.84912V3.99038C9.84912 3.99339 9.84928 3.99639 9.84928 3.9994V5.85497C9.84928 5.85798 9.84928 5.86098 9.84912 5.86399V7.76259V7.76275ZM14.3878 6.17391C15.0061 5.81653 16.1782 6.07994 15.8745 6.60597C15.8161 6.70737 15.7098 6.76417 15.6006 6.76417C15.468 6.76417 15.0746 6.50851 14.7044 6.72177C14.3434 6.92981 14.0276 6.38227 14.388 6.17391H14.3878ZM11.2418 6.17391C11.86 5.81685 13.0322 6.07962 12.7284 6.60597C12.6701 6.70737 12.5637 6.76417 12.4543 6.76417C12.3223 6.76417 11.9273 6.50851 11.5582 6.72177C11.1975 6.93013 10.8811 6.38211 11.2418 6.17391ZM13.5001 9.04847C12.2225 9.04847 12.664 8.06698 13.1311 8.33687C13.6523 8.63825 14.0591 8.03312 14.3014 8.45268C14.543 8.87065 13.8884 9.04863 13.5001 9.04863V9.04847Z" fill="#FFE4DA"/>
<path fill-rule="evenodd" clip-rule="evenodd" d="M11.9971 12.8626H15.0028V11.7317C14.6142 11.8733 14.1991 11.9594 13.7672 11.9803C13.1614 12.0148 12.5432 11.9317 11.9971 11.731V12.8624V12.8626Z" fill="#FFE4DA"/>
<path fill-rule="evenodd" clip-rule="evenodd" d="M17.7837 4.40466V5.45055C18.1757 5.21261 18.1757 4.64276 17.7837 4.40466Z" fill="#FFE4DA"/>
<path fill-rule="evenodd" clip-rule="evenodd" d="M9.21631 4.40454C8.82349 4.64264 8.82397 5.21233 9.21631 5.45043V4.40454Z" fill="#FFE4DA"/>
<path fill-rule="evenodd" clip-rule="evenodd" d="M9.84912 3.07334H17.1509V2.65995C17.1509 1.54224 16.2415 0.632568 15.1235 0.632568H11.8765C10.7588 0.632568 9.84912 1.54192 9.84912 2.65995V3.07334Z" fill="#EFEFEF"/>
</svg>
