<svg width="20" height="20" viewBox="0 0 20 20" fill="none" xmlns="http://www.w3.org/2000/svg">
<g clip-path="url(#clip0_2_337)">
<mask id="mask0_2_337" style="mask-type:luminance" maskUnits="userSpaceOnUse" x="0" y="0" width="20" height="20">
<path d="M0 1.90735e-06H20V20H0V1.90735e-06Z" fill="white"/>
</mask>
<g mask="url(#mask0_2_337)">
<path d="M19.2185 10C19.2165 10.8221 19.2072 11.6443 19.196 12.4663C19.1824 13.4582 19.167 14.4504 18.9183 15.4253C18.6575 16.4475 18.143 17.3292 17.3426 17.9819C16.4992 18.6697 15.4797 19.0312 14.3794 19.0981C12.9201 19.1869 11.4601 19.222 10.0001 19.2185C8.5401 19.222 7.0801 19.1869 5.62076 19.0981C4.52045 19.0312 3.501 18.6697 2.65756 17.9819C1.85717 17.3292 1.34272 16.4475 1.08186 15.4253C0.833106 14.4504 0.817794 13.4582 0.804239 12.4663C0.792989 11.6443 0.783652 10.8221 0.781738 10C0.783652 9.1779 0.792989 8.35575 0.804239 7.53368C0.817794 6.54184 0.833106 5.54958 1.08186 4.57473C1.34272 3.55247 1.85717 2.67083 2.65756 2.01813C3.501 1.33032 4.52045 0.968794 5.62076 0.90188C7.0801 0.81313 8.5401 0.778052 10.0001 0.78149C11.4601 0.778052 12.9201 0.81313 14.3794 0.90188C15.4797 0.968794 16.4992 1.33032 17.3426 2.01813C18.143 2.67083 18.6575 3.55247 18.9183 4.57473C19.167 5.54958 19.1824 6.54184 19.196 7.53368C19.2072 8.35575 19.2165 9.1779 19.2185 10Z" stroke="black" stroke-width="1.75" stroke-miterlimit="10"/>
<path d="M14.0625 10C14.0625 12.2652 12.2262 14.1016 9.96094 14.1016C7.6957 14.1016 5.85938 12.2652 5.85938 10C5.85938 7.73477 7.6957 5.89844 9.96094 5.89844C12.2262 5.89844 14.0625 7.73477 14.0625 10Z" stroke="black" stroke-width="1.75" stroke-miterlimit="10"/>
<path d="M16.5625 4.72656C16.5625 5.37375 16.0378 5.89844 15.3906 5.89844C14.7434 5.89844 14.2188 5.37375 14.2188 4.72656C14.2188 4.07938 14.7434 3.55469 15.3906 3.55469C16.0378 3.55469 16.5625 4.07938 16.5625 4.72656Z" fill="black"/>
</g>
</g>
<defs>
<clipPath id="clip0_2_337">
<rect width="20" height="20" fill="white"/>
</clipPath>
</defs>
</svg>
