<svg width="20" height="20" viewBox="0 0 20 20" fill="none" xmlns="http://www.w3.org/2000/svg">
<g clip-path="url(#clip0_2_350)">
<mask id="mask0_2_350" style="mask-type:luminance" maskUnits="userSpaceOnUse" x="0" y="0" width="20" height="20">
<path d="M0 1.90735e-06H20V20H0V1.90735e-06Z" fill="white"/>
</mask>
<g mask="url(#mask0_2_350)">
<path d="M18.9901 14.4067L15.4933 10.7922V10.7921L17.4171 9.99527C18.1088 9.70871 18.4375 8.91559 18.1509 8.22391C17.8643 7.53207 17.0712 7.20355 16.3795 7.4902L15.4933 7.85715V6.23551C15.4933 3.2016 13.0338 0.742071 9.99998 0.742071C6.96604 0.742071 4.50651 3.2016 4.50651 6.23551V7.85715L3.62049 7.4902C2.92865 7.20355 2.13557 7.53207 1.84908 8.22391C1.56248 8.91559 1.89104 9.70871 2.58275 9.99527L4.50651 10.7921V10.7922L1.0099 14.4067C0.361857 15.0765 0.468849 15.6932 1.24787 15.7768C2.0267 15.8605 2.59486 16.5574 2.51014 17.3256C2.42557 18.0938 3.02951 18.3643 3.85252 17.9266L4.05186 17.8207C4.87483 17.383 6.19842 17.4234 6.99326 17.9103L8.5549 18.8671C8.94854 19.1083 9.47193 19.2396 9.99998 19.2578C10.5279 19.2396 11.0513 19.1083 11.4449 18.8671L13.0066 17.9103C13.8014 17.4234 15.1251 17.383 15.9481 17.8207L16.1473 17.9266C16.9703 18.3643 17.5744 18.0938 17.4898 17.3256C17.4051 16.5574 17.9731 15.8605 18.7521 15.7768C19.5311 15.6932 19.6381 15.0765 18.9901 14.4067Z" stroke="black" stroke-width="1.75" stroke-miterlimit="10" stroke-linecap="round" stroke-linejoin="round"/>
</g>
</g>
<defs>
<clipPath id="clip0_2_350">
<rect width="20" height="20" fill="white"/>
</clipPath>
</defs>
</svg>
