<svg width="39" height="39" viewBox="0 0 39 39" fill="none" xmlns="http://www.w3.org/2000/svg">
<path d="M39 9.74998V29.25C39 32.4673 36.3673 35.1 33.15 35.1H5.85C2.63265 35.1 0 32.4673 0 29.25V9.74998C0 8.2484 0.565576 6.86405 1.52108 5.83093C1.61865 5.98609 1.71577 6.14232 1.85242 6.27844L4.2123 8.67786L15.3267 19.9875C16.4383 21.1186 17.9203 21.7423 19.5 21.7423C21.0797 21.7423 22.5617 21.1186 23.6733 19.9875L34.7882 8.67786L37.1477 6.27844C37.2843 6.14232 37.3814 5.98609 37.479 5.83093C38.4344 6.86405 39 8.2484 39 9.74998Z" fill="#B57439"/>
<path d="M33.95 3.95906L30.1861 7.80002L20.8846 17.2577C20.1438 17.9984 18.8565 17.9984 18.1157 17.2577L8.83374 7.80002L5.07031 3.95906C5.32358 3.91907 5.59689 3.90002 5.85016 3.90002H33.1502C33.4235 3.90002 33.6962 3.91907 33.95 3.95906Z" fill="#B57439"/>
</svg>
