<svg width="39" height="39" viewBox="0 0 39 39" fill="none" xmlns="http://www.w3.org/2000/svg">
<g clip-path="url(#clip0_2_1785)">
<path d="M19.5 39C30.2696 39 39 30.2696 39 19.5C39 8.73045 30.2696 0 19.5 0C8.73045 0 0 8.73045 0 19.5C0 30.2696 8.73045 39 19.5 39Z" fill="#B57439"/>
<path d="M29.25 23.5316C27.1464 23.5316 25.1404 23.0734 23.2903 22.1691C23.0003 22.0301 22.6639 22.0082 22.3567 22.113C22.0496 22.2202 21.7986 22.4445 21.6572 22.7346L20.7797 24.5505C18.1472 23.0392 15.9632 20.8528 14.4495 18.2203L16.2679 17.3428C16.5604 17.2014 16.7822 16.9504 16.8894 16.6433C16.9942 16.3361 16.9748 15.9998 16.8334 15.7097C15.9266 13.8621 15.4684 11.856 15.4684 9.75C15.4684 9.07725 14.9224 8.53125 14.2496 8.53125H9.75C9.07725 8.53125 8.53125 9.07725 8.53125 9.75C8.53125 21.1746 17.8254 30.4688 29.25 30.4688C29.9228 30.4688 30.4688 29.9228 30.4688 29.25V24.7504C30.4688 24.0776 29.9228 23.5316 29.25 23.5316Z" fill="#FAFAFA"/>
</g>
<defs>
<clipPath id="clip0_2_1785">
<rect width="39" height="39" fill="white"/>
</clipPath>
</defs>
</svg>
