<?xml version="1.0" encoding="UTF-8" standalone="no"?>
<!-- Created with Inkscape (http://www.inkscape.org/) -->

<svg
   width="118.90264mm"
   height="45.17429mm"
   viewBox="0 0 118.90264 45.17429"
   version="1.1"
   id="svg1"
   xml:space="preserve"
   xmlns="http://www.w3.org/2000/svg"
   xmlns:svg="http://www.w3.org/2000/svg"><defs
     id="defs1"><clipPath
       clipPathUnits="userSpaceOnUse"
       id="clipPath60"><path
         d="m 0,183.844 h 312.217 v -183.844 h -312.217 z"
         transform="translate(-109.58621,-160.35)"
         id="path60" /></clipPath><clipPath
       clipPathUnits="userSpaceOnUse"
       id="clipPath62"><path
         d="m 0,183.844 h 312.217 v -183.844 h -312.217 z"
         transform="translate(-102.5862,-145.9962)"
         id="path62" /></clipPath><clipPath
       clipPathUnits="userSpaceOnUse"
       id="clipPath64"><path
         d="m 0,183.844 h 312.217 v -183.844 h -312.217 z"
         transform="translate(-54.790499,-89.1572)"
         id="path64" /></clipPath><clipPath
       clipPathUnits="userSpaceOnUse"
       id="clipPath104"><path
         d="m 0,183.844 h 312.217 v -183.844 h -312.217 z"
         transform="translate(-150.9239,-81.538805)"
         id="path104" /></clipPath><clipPath
       clipPathUnits="userSpaceOnUse"
       id="clipPath106"><path
         d="m 0,183.844 h 312.217 v -183.844 h -312.217 z"
         transform="translate(2.5000001e-6)"
         id="path106" /></clipPath><clipPath
       clipPathUnits="userSpaceOnUse"
       id="clipPath108"><path
         d="m 0,183.844 h 312.217 v -183.844 h -312.217 z"
         transform="translate(-201.44291,-104.89081)"
         id="path108" /></clipPath><clipPath
       clipPathUnits="userSpaceOnUse"
       id="clipPath110"><path
         d="m 0,183.844 h 312.217 v -183.844 h -312.217 z"
         transform="translate(-217.67571,-81.538805)"
         id="path110" /></clipPath><clipPath
       clipPathUnits="userSpaceOnUse"
       id="clipPath112"><path
         d="m 0,183.844 h 312.217 v -183.844 h -312.217 z"
         transform="translate(-252.22751,-105.67501)"
         id="path112" /></clipPath><clipPath
       clipPathUnits="userSpaceOnUse"
       id="clipPath114"><path
         d="m 0,183.844 h 312.217 v -183.844 h -312.217 z"
         transform="translate(-273.45161,-100.6906)"
         id="path114" /></clipPath><clipPath
       clipPathUnits="userSpaceOnUse"
       id="clipPath116"><path
         d="m 0,183.844 h 312.217 v -183.844 h -312.217 z"
         transform="translate(-298.14741,-81.538805)"
         id="path116" /></clipPath><clipPath
       clipPathUnits="userSpaceOnUse"
       id="clipPath118"><path
         d="m 0,183.844 h 312.217 v -183.844 h -312.217 z"
         transform="translate(2.5000001e-6)"
         id="path118" /></clipPath></defs><g
     id="g58"
     transform="matrix(0.26458333,0,0,0.26458334,2.3916835e-6,0)"><path
       id="path59"
       d="m 0,0 v -40.055 c -23.321,0 -43.106,-7.161 -54.799,-18.508 -11.66,11.315 -31.347,18.464 -54.582,18.508 v 38.703 l 56.388,24.846 z"
       style="fill:#231f20;fill-opacity:1;fill-rule:nonzero;stroke:none"
       transform="matrix(1.3333333,0,0,-1.3333333,163.27648,41.657616)"
       clip-path="url(#clipPath60)" /><path
       id="path61"
       d="m 0,0 v -7.878 l -46.066,20.347 -49.315,-21.749 v 7.919 l 49.326,21.731 z"
       style="fill:#a4701e;fill-opacity:1;fill-rule:nonzero;stroke:none"
       transform="matrix(1.3333333,0,0,-1.3333333,153.94314,60.796016)"
       clip-path="url(#clipPath62)" /><path
       id="path63"
       d="m 0,0 c -8.072,13.72 -29.273,23.28 -54.791,23.28 v -7 c 27.803,0 51.291,-13.146 51.291,-28.707 h 7 c 0,15.561 23.488,28.707 51.291,28.707 v 7 c -25.518,0 -46.719,-9.56 -54.791,-23.28"
       style="fill:#a4701e;fill-opacity:1;fill-rule:nonzero;stroke:none"
       transform="matrix(1.3333333,0,0,-1.3333333,90.215536,136.58135)"
       clip-path="url(#clipPath64)" /><path
       id="path103"
       d="m 0,0 c -5.376,0 -8.512,4.032 -8.512,9.632 0,5.656 3.192,9.688 8.568,9.688 5.376,0 8.624,-3.976 8.624,-9.688 0,-5.656 -3.304,-9.632 -8.68,-9.632 m 9.016,18.312 c -1.792,3.92 -5.768,5.824 -9.968,5.824 -7.84,0 -12.88,-5.88 -12.88,-14.28 0,-8.344 4.648,-14.616 12.712,-14.616 4.536,0 8.064,2.184 9.912,5.712 v -4.984 h 5.264 v 27.384 h -5.04 z"
       style="fill:#231f20;fill-opacity:1;fill-rule:nonzero;stroke:none"
       transform="matrix(1.3333333,0,0,-1.3333333,218.39341,146.73921)"
       clip-path="url(#clipPath104)" /><path
       id="path105"
       d="m 171.028,77.507 h 5.264 v 41.216 h -5.264 z"
       style="fill:#231f20;fill-opacity:1;fill-rule:nonzero;stroke:none"
       transform="matrix(1.3333333,0,0,-1.3333333,17.161536,255.45761)"
       clip-path="url(#clipPath106)" /><path
       id="path107"
       d="m 0,0 h -20.783 v -4.424 h 14.784 l -14.784,-18.704 0.524,-4.256 h 20.812 v 4.424 h -14.896 l 14.896,18.648 z"
       style="fill:#231f20;fill-opacity:1;fill-rule:nonzero;stroke:none"
       transform="matrix(1.3333333,0,0,-1.3333333,285.75208,115.60321)"
       clip-path="url(#clipPath108)" /><path
       id="path109"
       d="m 0,0 c -5.376,0 -8.512,4.032 -8.512,9.632 0,5.656 3.192,9.688 8.568,9.688 5.376,0 8.624,-3.976 8.624,-9.688 0,-5.656 -3.304,-9.632 -8.68,-9.632 m 9.016,18.312 c -1.792,3.92 -5.768,5.824 -9.968,5.824 -7.84,0 -12.88,-5.88 -12.88,-14.28 0,-8.344 4.648,-14.616 12.712,-14.616 4.536,0 8.064,2.184 9.912,5.712 v -4.984 h 5.264 v 27.384 h -5.04 z"
       style="fill:#231f20;fill-opacity:1;fill-rule:nonzero;stroke:none"
       transform="matrix(1.3333333,0,0,-1.3333333,307.39581,146.73921)"
       clip-path="url(#clipPath110)" /><path
       id="path111"
       d="m 0,0 c -4.256,0 -7.56,-2.016 -9.296,-4.984 v 18.032 h -5.264 v -41.16 h 5.264 v 14.896 c 0,4.704 2.744,8.4 7.84,8.4 3.92,0 6.552,-2.24 6.552,-7.784 v -15.568 h 5.264 v 16.744 c 0,7 -3.36,11.424 -10.36,11.424"
       style="fill:#231f20;fill-opacity:1;fill-rule:nonzero;stroke:none"
       transform="matrix(1.3333333,0,0,-1.3333333,353.46488,114.55761)"
       clip-path="url(#clipPath112)" /><path
       id="path113"
       d="m 0,0 v 4.144 h -5.264 v -27.328 h 5.264 v 14.504 c 0,5.264 3.08,8.288 8.064,8.288 h 1.771 l 0.581,4.816 c -1.064,0.224 -1.848,0.336 -2.8,0.336 -3.752,0 -6.496,-1.904 -7.616,-4.76"
       style="fill:#231f20;fill-opacity:1;fill-rule:nonzero;stroke:none"
       transform="matrix(1.3333333,0,0,-1.3333333,381.76368,121.20348)"
       clip-path="url(#clipPath114)" /><path
       id="path115"
       d="m 0,0 c -5.376,0 -8.512,4.032 -8.512,9.632 0,5.656 3.192,9.688 8.568,9.688 5.376,0 8.624,-3.976 8.624,-9.688 0,-5.656 -3.304,-9.632 -8.68,-9.632 m 9.015,23.352 10e-4,-5.04 c -1.792,3.92 -5.768,5.824 -9.968,5.824 -7.84,0 -12.88,-5.88 -12.88,-14.28 0,-8.344 4.648,-14.616 12.712,-14.616 4.536,0 8.064,2.184 9.912,5.712 v -4.984 h 5.264 v 27.384 z"
       style="fill:#231f20;fill-opacity:1;fill-rule:nonzero;stroke:none"
       transform="matrix(1.3333333,0,0,-1.3333333,414.69141,146.73921)"
       clip-path="url(#clipPath116)" /><path
       id="path117"
       d="m 306.921,134.898 h 5.295 v 39.517 h -5.295 z m -4.897,39.518 h -5.264 v -33.975 h -7.603 v 17.686 h -5.268 v -25.445 c 0,-1.253 -0.103,-2.281 -0.52,-3.084 -0.418,-0.803 -0.798,-1.093 -1.729,-1.431 -0.933,-0.337 -1.981,-0.425 -3.554,-0.591 l 0.665,-5.496 c 2.152,0.032 4.085,0.466 5.611,1.301 1.526,0.836 2.706,2.04 3.542,3.614 0.835,1.575 1.253,3.47 1.253,5.687 v 2.216 h 12.867 z m -48.523,-24.481 c 0,-1.414 0.465,-2.724 1.398,-3.928 0.845,-1.094 1.942,-2.049 3.265,-2.878 0.098,0.054 0.204,0.101 0.301,0.155 1.542,0.867 2.739,1.863 3.59,2.988 0.851,1.124 1.277,2.313 1.277,3.566 0,0.932 -0.225,1.775 -0.674,2.53 -0.451,0.755 -1.053,1.357 -1.808,1.807 -0.755,0.45 -1.599,0.675 -2.53,0.675 -0.9,0 -1.711,-0.225 -2.433,-0.675 -0.723,-0.45 -1.302,-1.044 -1.735,-1.783 -0.434,-0.739 -0.651,-1.559 -0.651,-2.457 m 10.384,-9.221 c 1.571,-0.4 3.091,-0.61 4.555,-0.61 1.221,0 2.338,0.168 3.35,0.505 1.012,0.338 1.823,0.892 2.433,1.663 0.611,0.771 0.916,1.814 0.916,3.132 0,1.767 -0.699,3.261 -2.096,4.482 -1.173,1.024 -2.912,1.928 -5.204,2.715 0.234,-0.895 0.361,-1.815 0.361,-2.763 0,-1.96 -0.499,-3.831 -1.494,-5.614 -0.709,-1.269 -1.657,-2.436 -2.821,-3.51 m -95.405,17.413 v -17.686 l 77.78,-0.011 c 0.025,0.001 3.485,0.077 5.97,0.603 -0.722,0.768 -1.36,1.597 -1.91,2.492 -1.125,1.831 -1.686,3.871 -1.686,6.12 0,1.928 0.417,3.703 1.253,5.325 0.226,0.44 0.479,0.852 0.751,1.245 -0.131,0.018 -0.257,0.038 -0.39,0.056 -1.044,0.145 -2.128,0.314 -3.253,0.507 l 0.627,5.445 c 4.172,-0.588 8.014,-1.215 11.564,-1.876 0.594,-0.052 1.165,-0.164 1.719,-0.325 3.901,-0.766 7.276,-1.726 10.114,-2.883 2.875,-1.173 5.091,-2.691 6.65,-4.554 1.558,-1.864 2.337,-4.225 2.337,-7.084 0,-1.928 -0.329,-3.575 -0.987,-4.94 -0.659,-1.366 -1.567,-2.466 -2.724,-3.301 -1.156,-0.836 -2.465,-1.454 -3.927,-1.855 -1.462,-0.403 -3.012,-0.603 -4.65,-0.603 -2.25,0 -4.507,0.345 -6.771,1.036 -1.056,0.322 -2.062,0.717 -3.027,1.172 -0.779,-0.32 -1.583,-0.621 -2.443,-0.883 -3.907,-1.186 -9.217,-1.229 -9.217,-1.229 h -77.78 v -2.216 c 0,-2.217 -0.418,-4.112 -1.253,-5.687 -0.836,-1.574 -2.017,-2.778 -3.542,-3.614 -1.526,-0.835 -3.459,-1.269 -5.611,-1.301 l -0.665,5.496 c 1.573,0.166 2.621,0.254 3.553,0.591 0.932,0.338 1.312,0.628 1.73,1.431 0.417,0.803 0.519,1.831 0.519,3.084 v 25.445 z m -26.427,-12.626 c 0,-1.029 0.265,-1.92 0.795,-2.675 0.53,-0.755 1.293,-1.342 2.289,-1.759 0.996,-0.418 2.185,-0.626 3.566,-0.626 1.414,0 2.61,0.208 3.591,0.626 0.979,0.417 1.734,1.012 2.265,1.783 0.53,0.771 0.795,1.671 0.795,2.699 0,1.413 -0.498,2.955 -1.494,4.626 -0.996,1.671 -2.554,3.47 -4.675,5.398 h -0.915 c -2.153,-1.96 -3.727,-3.767 -4.723,-5.422 -0.996,-1.655 -1.494,-3.205 -1.494,-4.65 m -3.422,-5.494 c -0.963,1.606 -1.445,3.437 -1.445,5.494 0,5.14 3.148,10.344 9.445,15.614 h 4.193 c 6.264,-5.237 9.397,-10.426 9.397,-15.566 0,-2.089 -0.482,-3.936 -1.446,-5.542 -0.963,-1.607 -2.305,-2.86 -4.023,-3.759 -1.72,-0.9 -3.735,-1.35 -6.049,-1.35 -2.281,0 -4.289,0.45 -6.024,1.35 -1.735,0.899 -3.084,2.152 -4.048,3.759 m 148.117,24.577 c 0.931,0 1.702,0.314 2.313,0.94 0.61,0.627 0.916,1.39 0.916,2.289 0,0.932 -0.306,1.703 -0.916,2.313 -0.611,0.611 -1.382,0.916 -2.313,0.916 -0.9,0 -1.663,-0.305 -2.289,-0.916 -0.627,-0.61 -0.94,-1.381 -0.94,-2.313 0,-0.899 0.313,-1.662 0.94,-2.289 0.626,-0.626 1.389,-0.94 2.289,-0.94 m -136.72,7.47 c -0.562,-0.546 -0.843,-1.253 -0.843,-2.12 0,-0.836 0.281,-1.535 0.843,-2.097 0.562,-0.562 1.261,-0.843 2.097,-0.843 0.835,0 1.534,0.281 2.096,0.843 0.562,0.562 0.843,1.261 0.843,2.097 0,0.867 -0.281,1.574 -0.843,2.12 -0.562,0.546 -1.261,0.82 -2.096,0.82 -0.836,0 -1.535,-0.274 -2.097,-0.82 m -4.746,0.82 c 0.835,0 1.533,-0.274 2.096,-0.82 0.562,-0.546 0.843,-1.253 0.843,-2.12 0,-0.836 -0.281,-1.535 -0.843,-2.097 -0.563,-0.562 -1.261,-0.843 -2.096,-0.843 -0.836,0 -1.535,0.281 -2.096,0.843 -0.563,0.562 -0.844,1.261 -0.844,2.097 0,0.867 0.281,1.574 0.844,2.12 0.561,0.546 1.26,0.82 2.096,0.82"
       style="fill:#231f20;fill-opacity:1;fill-rule:nonzero;stroke:none"
       transform="matrix(1.3333333,0,0,-1.3333333,17.161536,255.45761)"
       clip-path="url(#clipPath118)" /></g></svg>
