<svg width="109" height="47" viewBox="0 0 109 47" fill="none" xmlns="http://www.w3.org/2000/svg">
<path d="M17.975 42.9807C12.4225 37.6065 0 35.5296 0 35.5296V9.56403L21.7336 0L42.4323 9.16047V35.9102C42.4323 35.9102 29.8685 37.6688 24.3818 42.9807L21.1784 46.0845L17.975 42.9807Z" fill="#AA772B"/>
<path d="M21.8025 5.68262L3.28542 13.8358V26.5332C10.9176 26.5332 17.3868 28.8922 21.2177 32.6063C25.0519 28.8725 31.5408 26.5332 39.2157 26.5332V13.3896L21.8025 5.68262ZM36.9159 20.6865L21.7795 14.0097L5.58527 21.1458V18.5473L21.7861 11.4178L36.9159 18.1011V20.6865ZM39.2157 29.1087V31.4054C30.082 31.4054 22.3644 35.7199 22.3644 40.8251H20.0645C20.0645 35.7199 12.3468 31.4054 3.21313 31.4054V29.1087C11.5977 29.1087 18.563 32.2453 21.2144 36.7468C23.8658 32.2453 30.8311 29.1087 39.2157 29.1087Z" fill="#231F20"/>
<path d="M58.9716 33.2396C58.3802 31.9535 57.0759 31.3301 55.6861 31.3301C53.1102 31.3301 51.4543 33.2593 51.4543 36.0153C51.4543 38.7713 52.9821 40.8088 55.6302 40.8088C56.2947 40.8353 56.9531 40.6735 57.5293 40.3419C58.1055 40.0104 58.5759 39.5227 58.8862 38.9354V40.5759H60.6176V31.586H58.9749L58.9716 33.2396ZM56.0146 39.2471C54.247 39.2471 53.2187 37.9347 53.2187 36.0875C53.2187 34.2403 54.2667 32.9082 56.0343 32.9082C57.8019 32.9082 58.8665 34.2206 58.8665 36.0875C58.8665 37.9544 57.7822 39.2471 56.0146 39.2471Z" fill="#231F20"/>
<path d="M64.3401 27.0483H62.6119V40.5725H64.3401V27.0483Z" fill="#231F20"/>
<path d="M72.6065 31.5859H65.7792V33.0361H70.6352L65.7792 39.1748L65.95 40.5692H72.7872V39.119H67.895L72.7872 33L72.6065 31.5859Z" fill="#231F20"/>
<path d="M80.9024 33.2396C80.3143 31.9535 79.0066 31.3301 77.6169 31.3301C75.041 31.3301 73.3851 33.2593 73.3851 36.0153C73.3851 38.7713 74.9129 40.8088 77.561 40.8088C78.2255 40.8357 78.8841 40.674 79.4604 40.3424C80.0366 40.0109 80.507 39.523 80.8169 38.9354V40.5759H82.5484V31.586H80.9057L80.9024 33.2396ZM77.9454 39.2471C76.1811 39.2471 75.1494 37.9347 75.1494 36.0875C75.1494 34.2403 76.1975 32.9082 77.9651 32.9082C79.7327 32.9082 80.7972 34.2206 80.7972 36.0875C80.7972 37.9544 79.713 39.2471 77.9454 39.2471Z" fill="#231F20"/>
<path d="M89.2903 31.33C88.6813 31.3071 88.0773 31.4471 87.5406 31.7355C87.004 32.0239 86.5543 32.4503 86.2381 32.9704V27.0647H84.5066V40.5528H86.2381V35.6641C86.2381 34.1221 87.1383 32.9081 88.8139 32.9081C90.1018 32.9081 90.9659 33.643 90.9659 35.464V40.5692H92.6941V35.0768C92.6941 32.7801 91.5901 31.33 89.2903 31.33Z" fill="#231F20"/>
<path d="M96.2654 32.9638V31.6055H94.5339V40.5691H96.2654V35.8117C96.2654 34.0859 97.2773 33.0918 98.9135 33.0918H99.495L99.6856 31.5137C99.3843 31.4413 99.0756 31.4039 98.7657 31.4021C97.5336 31.4021 96.6334 32.0255 96.2654 32.9638Z" fill="#231F20"/>
<path d="M107.341 31.5859V33.2264C106.753 31.9403 105.445 31.3169 104.055 31.3169C101.48 31.3169 99.8236 33.2461 99.8236 36.0021C99.8236 38.7581 101.351 40.7956 103.999 40.7956C104.664 40.8225 105.323 40.6608 105.899 40.3293C106.475 39.9977 106.945 39.5098 107.255 38.9222V40.5627H108.987V31.5859H107.341ZM104.384 39.247C102.62 39.247 101.588 37.9346 101.588 36.0874C101.588 34.2402 102.636 32.9082 104.404 32.9082C106.171 32.9082 107.236 34.2206 107.236 36.0874C107.236 37.9543 106.151 39.247 104.384 39.247Z" fill="#231F20"/>
<path d="M54.155 9.28193C54.2817 9.27839 54.4078 9.30039 54.5258 9.34661C54.6438 9.39284 54.7512 9.46234 54.8417 9.55097C54.9723 9.68889 55.0602 9.86159 55.0948 10.0483C55.1294 10.2349 55.1091 10.4276 55.0366 10.6031C54.964 10.7785 54.8422 10.9293 54.6858 11.0372C54.5294 11.145 54.345 11.2055 54.155 11.2111C53.9647 11.2061 53.78 11.1461 53.6231 11.0384C53.4662 10.9308 53.3439 10.7801 53.2709 10.6045C53.198 10.4289 53.1775 10.236 53.2119 10.049C53.2464 9.86209 53.3343 9.6891 53.4651 9.55097C53.5559 9.46194 53.6639 9.3922 53.7825 9.34596C53.9011 9.29973 54.0278 9.27794 54.155 9.28193ZM55.7124 9.55097C55.5792 9.68664 55.4892 9.85854 55.4535 10.0451C55.4178 10.2317 55.4381 10.4246 55.5118 10.5997C55.5855 10.7748 55.7093 10.9243 55.8677 11.0295C56.0261 11.1346 56.2121 11.1907 56.4023 11.1907C56.5925 11.1907 56.7785 11.1346 56.9369 11.0295C57.0953 10.9243 57.2191 10.7748 57.2928 10.5997C57.3665 10.4246 57.3868 10.2317 57.3511 10.0451C57.3154 9.85854 57.2254 9.68664 57.0923 9.55097C56.9042 9.37804 56.6579 9.28204 56.4023 9.28204C56.1467 9.28204 55.9004 9.37804 55.7124 9.55097ZM100.632 12.0019C100.876 12.0003 101.111 11.9145 101.299 11.7591C101.486 11.6037 101.614 11.3882 101.66 11.1492C101.707 10.9103 101.669 10.6627 101.553 10.4485C101.438 10.2343 101.251 10.0668 101.026 9.97438C100.8 9.88196 100.55 9.87037 100.317 9.94158C100.084 10.0128 99.8824 10.1624 99.7473 10.365C99.6122 10.5676 99.5516 10.8106 99.5757 11.0528C99.5998 11.295 99.7071 11.5214 99.8794 11.6934C99.9774 11.7931 100.095 11.8718 100.224 11.9248C100.353 11.9778 100.492 12.004 100.632 12.0019ZM51.9702 20.0632C51.6468 19.5187 51.4818 18.8949 51.4938 18.2619C51.4938 16.5755 52.5287 14.8683 54.5986 13.1403H55.9752C58.0319 14.8574 59.0614 16.5591 59.0636 18.2455C59.0753 18.8837 58.9104 19.5126 58.5872 20.0632C58.2739 20.5896 57.8184 21.0171 57.273 21.2968C56.6522 21.5885 55.9746 21.7397 55.2885 21.7397C54.6025 21.7397 53.9249 21.5885 53.3041 21.2968C52.7585 21.0173 52.303 20.5897 51.9899 20.0632M53.1135 18.2619C53.1051 18.574 53.196 18.8807 53.3731 19.138C53.5626 19.3991 53.824 19.5997 54.1255 19.7154C54.8853 19.9909 55.718 19.9909 56.4779 19.7154C56.7773 19.5976 57.0355 19.3945 57.2204 19.1314C57.3976 18.8703 57.4894 18.5609 57.4833 18.2455C57.4523 17.7049 57.2764 17.1825 56.974 16.733C56.5497 16.0715 56.0318 15.4747 55.4364 14.9613H55.1374C54.5378 15.4753 54.0146 16.0718 53.5834 16.733C53.2845 17.1877 53.1153 17.7152 53.0938 18.2587M61.7676 14.1082V19.9221H87.3222C87.9833 19.906 88.6423 19.8402 89.2935 19.7253C89.0568 19.4752 88.8465 19.2014 88.666 18.9083C88.3301 18.3438 88.1409 17.7044 88.1157 17.0483C88.0905 16.3922 88.2299 15.7401 88.5214 15.1516C88.595 15.011 88.6773 14.8751 88.7678 14.7447L88.6397 14.7251C88.3112 14.6758 87.9432 14.6233 87.5719 14.5577L87.7789 12.7729C89.149 12.9665 90.4073 13.1699 91.577 13.3864C91.7683 13.4051 91.9574 13.4413 92.1421 13.4947C93.2772 13.7005 94.3896 14.0158 95.4637 14.4363C96.3053 14.7475 97.0569 15.2615 97.6519 15.9325C98.1778 16.59 98.4495 17.4144 98.4174 18.2554C98.4318 18.8135 98.3195 19.3676 98.0888 19.8762C97.8893 20.308 97.5815 20.6809 97.1952 20.9589C96.8049 21.238 96.3675 21.4447 95.904 21.5692C95.4058 21.7028 94.892 21.769 94.3762 21.766C93.6226 21.7673 92.873 21.6567 92.1519 21.4379C91.8142 21.3348 91.4847 21.2065 91.1663 21.054C90.91 21.159 90.6439 21.2575 90.3613 21.3428C89.3724 21.5972 88.3565 21.7327 87.3354 21.7463H61.7676V22.4747C61.7853 23.1215 61.6431 23.7627 61.3536 24.3416C61.0932 24.8436 60.688 25.2562 60.1905 25.526C59.6192 25.8135 58.9871 25.9598 58.3473 25.9525L58.1272 24.148C58.5234 24.1304 58.9161 24.0654 59.2968 23.9544C59.4212 23.9247 59.537 23.867 59.6355 23.7856C59.734 23.7043 59.8126 23.6016 59.8652 23.4853C59.9997 23.1661 60.0582 22.8202 60.0361 22.4747V14.1082H61.7676ZM93.1113 19.8237C93.6004 19.9525 94.1037 20.0197 94.6095 20.0238C94.983 20.0279 95.3547 19.9714 95.7101 19.8565C96.0242 19.7576 96.302 19.5681 96.5085 19.3119C96.7221 19.0134 96.8276 18.6512 96.8075 18.2849C96.8104 18.0037 96.7503 17.7255 96.6314 17.4706C96.5126 17.2157 96.3381 16.9905 96.1208 16.8118C95.611 16.411 95.0303 16.1094 94.4091 15.9226C94.4894 16.2178 94.5303 16.5223 94.5306 16.8282C94.5295 17.4751 94.3597 18.1106 94.0378 18.6721C93.7911 19.1019 93.4784 19.4905 93.1113 19.8237ZM89.7009 16.7986C89.7022 17.2667 89.8633 17.7204 90.1576 18.0848C90.4601 18.4614 90.8272 18.7813 91.2418 19.0297L91.3404 18.9805C91.7966 18.7361 92.198 18.4011 92.5199 17.9962C92.7869 17.6635 92.9349 17.2512 92.9404 16.8249C92.9433 16.533 92.866 16.2459 92.717 15.9948C92.5723 15.7518 92.369 15.5488 92.1256 15.4042C91.8742 15.2554 91.5867 15.1783 91.2944 15.1811C91.0114 15.1782 90.7334 15.2556 90.4927 15.4042C90.2579 15.5491 90.0627 15.7497 89.9244 15.9882C89.7804 16.2326 89.7065 16.5118 89.7108 16.7953M105.652 8.76025H103.924V19.9156H101.424V14.1082H99.6922V22.4681C99.7159 22.8137 99.6573 23.16 99.5213 23.4787C99.4703 23.5958 99.3926 23.6995 99.2946 23.7815C99.1965 23.8635 99.0806 23.9216 98.9562 23.9511C98.5753 24.0616 98.1827 24.1265 97.7866 24.1447L98.0067 25.9493C98.6464 25.9565 99.2785 25.8102 99.8499 25.5227C100.346 25.251 100.751 24.8389 101.013 24.3383C101.3 23.7588 101.441 23.1179 101.424 22.4714V21.7398H105.652V8.76025ZM107.262 21.7267H109V8.77666H107.262V21.7267Z" fill="#231F20"/>
</svg>
