<svg width="130" height="21" viewBox="0 0 130 21" fill="none" xmlns="http://www.w3.org/2000/svg">
<path d="M50.1827 20.3539C50.1064 20.3067 50.1686 20.1974 50.4317 19.9162C50.6245 19.71 50.8027 19.4751 50.8276 19.394C51.3098 17.8268 51.4033 17.3784 51.3393 16.9391C51.2005 15.9858 51.0115 15.436 50.588 14.7535C50.4095 14.4658 50.104 14.3063 49.7316 14.3063C49.5095 14.3063 49.2473 14.0643 48.975 13.6079C48.8361 13.3753 48.8096 13.2123 48.8096 12.593C48.8096 11.9405 48.7941 11.8556 48.6755 11.8579C48.5497 11.8602 47.8581 12.0256 46.8947 12.2836C46.6023 12.3618 46.1571 12.3911 45.4394 12.3791C44.449 12.3626 42.8908 12.3874 42.8577 12.4202C42.8094 12.4679 43.6179 14.9013 43.8591 15.4342C44.1255 16.0229 44.1385 16.0856 44.0569 16.3884C43.9534 16.7729 43.9998 17.1221 44.2494 17.8365C44.3917 18.2438 44.4386 18.5536 44.4543 19.19C44.4656 19.6439 44.446 20.0617 44.4109 20.1185C44.3467 20.2225 43.7294 20.2047 43.6204 20.0957C43.5931 20.0684 43.612 19.8915 43.6625 19.7027C43.8562 18.9786 43.6792 17.2873 43.3397 16.6173C43.2393 16.4191 43.1158 16.1024 43.0654 15.9135C43.015 15.7246 42.8354 15.2427 42.6664 14.8425C42.135 13.5841 42.0108 13.3402 41.9643 13.4638C41.642 14.3194 41.3799 15.1532 41.3799 15.3226C41.3799 15.4393 41.2919 15.7839 41.1845 16.0886C40.9142 16.8547 40.6917 17.8045 40.6911 18.1954C40.6908 18.3755 40.6216 18.719 40.5373 18.9587C40.4531 19.1984 40.3842 19.4905 40.3842 19.6078C40.3842 19.8207 40.3832 19.8211 39.8507 19.8211C39.4023 19.8211 39.3046 19.7976 39.2382 19.6735C39.1702 19.5464 39.2035 19.5011 39.4777 19.348C39.6528 19.2501 39.8577 19.0839 39.933 18.9786C40.1281 18.7056 40.2935 17.791 40.3486 16.6804C40.3875 15.8981 40.4312 15.642 40.588 15.2783C40.7755 14.8433 40.912 14.1228 41.0692 12.7375L41.1472 12.0496L40.8231 11.7164C40.6449 11.5331 40.3743 11.2832 40.2218 11.1611L39.9446 10.9391L39.3027 11.1275C38.1921 11.4534 37.4358 11.3708 36.2481 10.7939C35.6274 10.4924 35.0608 9.97727 34.1848 8.91829C33.7945 8.44639 33.6503 8.3257 33.427 8.28379C33.2753 8.25534 33.0104 8.1698 32.8384 8.09372C32.534 7.95904 32.5127 7.95949 32.0316 8.11089C31.6855 8.21978 31.1702 8.28688 30.3119 8.33476C29.6379 8.37238 28.8107 8.43841 28.4737 8.48151C27.4385 8.6139 26.2551 8.39498 25.3889 7.91087C24.9855 7.68537 24.9886 7.68597 24.9886 7.83442C24.9886 7.89783 25.3514 8.31779 25.7948 8.76769C27.1991 10.1926 27.4062 10.6469 27.555 12.6298C27.5859 13.0416 27.6606 13.2208 27.8226 13.2723C27.9026 13.2976 27.9517 13.3608 27.9318 13.4126C27.9119 13.4645 28.0171 13.6246 28.1655 13.7684C28.3139 13.9123 28.4354 14.0646 28.4354 14.1068C28.4354 14.15 28.395 14.1434 28.3435 14.0918C28.2113 13.9597 28.1256 13.9787 28.1827 14.1274C28.2174 14.2177 28.2033 14.2373 28.1344 14.1947C28.0582 14.1476 28.0553 14.1687 28.1213 14.292C28.2315 14.4977 28.2279 14.5585 28.1098 14.4876C28.0409 14.4462 28.0426 14.4652 28.1159 14.5557C28.1883 14.6449 28.1955 14.7209 28.1409 14.8185C28.0734 14.9391 27.9956 14.8851 27.4966 14.3713C26.7653 13.6184 26.7069 13.4773 26.8176 12.7329C26.8648 12.4153 26.9024 12.0103 26.901 11.833C26.8987 11.5275 26.8924 11.5186 26.7811 11.6638C26.7028 11.7659 26.6732 11.9319 26.6924 12.1616C26.7083 12.3512 26.6819 12.8433 26.6339 13.2552L26.5465 14.0041L26.8854 14.8598C27.455 16.2978 27.4538 16.2614 26.9933 17.9932C26.7754 18.8128 26.5971 19.5594 26.5971 19.6523C26.5971 19.809 26.5614 19.8211 26.0992 19.8211C25.8254 19.8211 25.6014 19.792 25.6014 19.7564C25.6014 19.7208 25.6743 19.626 25.7635 19.5458C25.9784 19.3524 26.2593 18.7058 26.4458 17.9754C26.6284 17.2603 26.6298 17.2015 26.4757 16.6827L26.3543 16.2739L26.1502 16.6571C25.354 18.1515 24.9886 18.9289 24.9886 19.1286C24.9886 19.4019 24.7277 19.567 24.1768 19.6425C23.83 19.6901 23.8232 19.687 23.8751 19.5072C23.9043 19.406 24.0462 19.2198 24.1903 19.0935C24.3715 18.9347 24.6439 18.4734 25.072 17.6003C25.5964 16.5308 25.6849 16.2955 25.6485 16.0676C25.5896 15.6995 25.1003 14.4688 24.9106 14.2118C24.8256 14.0967 24.639 13.7455 24.4959 13.4314C24.2573 12.9078 24.2113 12.8539 23.9419 12.7826C22.8759 12.5003 22.97 12.5069 22.5288 12.6839C22.1031 12.8548 21.2823 13 20.7274 13.0027C20.4739 13.0038 20.4026 13.0353 20.3699 13.1603C20.2897 13.4673 20.5499 15.0942 20.7493 15.5318C20.8548 15.7635 20.9897 16.2033 21.0489 16.5092C21.1599 17.0823 21.3571 17.5436 21.6626 17.9449C21.7589 18.0716 21.9382 18.399 22.061 18.6726C22.1838 18.9462 22.3412 19.2174 22.4109 19.2752C22.6807 19.4991 22.5085 19.8218 22.1201 19.8201C21.6393 19.818 21.5584 19.7578 21.5196 19.3736C21.4507 18.6935 21.0456 17.7113 20.5853 17.1084C20.2449 16.6624 20.0865 16.3104 20.0865 15.9996C20.0865 15.7999 19.4081 14.0094 19.1185 13.445C19.0576 13.3262 18.8448 13.1507 18.6295 13.0416L18.2483 12.8484V13.3426C18.2483 13.6143 18.1923 14.0888 18.1238 14.397C18.0553 14.7052 17.9729 15.2331 17.9407 15.5701C17.9084 15.9071 17.8405 16.338 17.7898 16.5275C17.7391 16.7171 17.675 17.5099 17.6474 18.2892L17.5972 19.7062L17.1231 19.7289C16.7097 19.7487 16.6381 19.7312 16.5645 19.5937C16.4969 19.4675 16.5043 19.4266 16.6014 19.3893C16.8492 19.2942 17.0202 18.7774 17.1139 17.84C17.1827 17.1523 17.1839 16.831 17.1188 16.5492C17.0619 16.3025 17.0562 16.0706 17.1023 15.8721C17.1408 15.706 17.1731 14.8969 17.1741 14.0741L17.1759 12.5781L16.7355 12.1449L16.2951 11.7117L15.8738 11.8262C15.6421 11.8892 15.167 11.9382 14.8179 11.9353L14.1833 11.9298L12.5584 11.1196C11.3256 10.5049 10.841 10.2213 10.5505 9.94433C10.1877 9.59852 9.67221 9.32698 9.38086 9.32817C9.27976 9.32845 9.21704 9.46014 9.11613 9.88348C8.80727 11.1792 7.92514 12.4725 6.89027 13.1467C6.30891 13.5255 5.35387 13.8883 4.61837 14.0097L4.08699 14.0975L3.98897 14.48C3.93506 14.6903 3.83382 14.8981 3.764 14.9417C3.65134 15.0121 3.64895 15.0494 3.74275 15.2739C3.80088 15.4131 3.84844 15.6252 3.84844 15.7453C3.84844 15.8795 3.94495 16.08 4.09855 16.2648C4.23611 16.4304 4.40956 16.6865 4.48398 16.8339C4.55841 16.9814 4.67547 17.2054 4.74411 17.3318C4.81275 17.4582 4.89216 17.6133 4.92058 17.6765C4.949 17.7396 5.07742 17.8603 5.20597 17.9445C5.37143 18.053 5.43661 18.1537 5.42916 18.2892C5.42106 18.4365 5.47611 18.506 5.66756 18.5903C5.80448 18.6505 5.9165 18.7437 5.9165 18.7974C5.9165 18.9687 5.14643 19.9343 4.9729 19.9806C4.68242 20.0582 4.58696 19.9756 4.75515 19.7922C4.94591 19.5842 5.03922 19.1596 4.92455 19.0214C4.85242 18.9345 4.7724 18.9422 4.43906 19.0682C3.54747 19.405 3.4363 19.4381 3.19844 19.4381C3.06217 19.4381 2.78829 19.4604 2.58981 19.4876C2.25904 19.5329 2.23268 19.552 2.27377 19.7157C2.32908 19.936 2.2339 19.9627 1.2903 19.9917C0.519007 20.0153 0.342932 19.9045 0.871772 19.7282C1.22007 19.6121 1.36861 19.4373 1.07491 19.4892C0.829899 19.5324 0.373564 19.2389 0.435385 19.0778C0.500355 18.9085 0.52673 18.6943 0.677585 17.111C0.783737 15.9969 0.790432 15.6925 0.713471 15.4797C0.636729 15.2674 0.638134 15.1947 0.720901 15.0947C0.877931 14.9051 0.842089 13.7308 0.673588 13.5446C0.562699 13.422 0.556788 13.3583 0.633006 13.1069C0.682072 12.9451 0.74488 12.1061 0.772579 11.2425C0.820758 9.7404 0.831756 9.65554 1.02615 9.2858C1.19645 8.96189 1.21986 8.84737 1.17073 8.5787C1.13849 8.40237 1.07185 8.20959 1.02264 8.1503C0.973431 8.09101 0.89774 7.84049 0.854434 7.59359C0.723422 6.84664 1.03707 6.34043 1.63088 6.34043C1.89277 6.34043 2.23995 6.58056 2.23995 6.7617C2.23995 6.7984 2.30407 6.89958 2.38244 6.98655C2.52056 7.13983 2.77611 8.01093 2.77611 8.32849C2.77611 8.41462 2.81058 8.48509 2.85271 8.48509C2.89483 8.48509 2.9293 8.54848 2.9293 8.62598C2.9293 8.70347 3.01644 8.80658 3.12294 8.8551C3.22944 8.90363 3.33808 9.00395 3.36436 9.07803C3.39065 9.15212 3.45402 9.26444 3.5052 9.32763C3.55637 9.39082 3.61888 9.72544 3.6441 10.0712C3.66932 10.417 3.72532 10.7617 3.76855 10.8372C3.81177 10.9127 3.89758 11.2674 3.95923 11.6255C4.3206 13.7244 4.31599 13.7081 4.53222 13.6545C5.46677 13.4231 6.87121 12.2814 7.66301 11.1094C8.04437 10.5449 8.64237 9.49366 8.70925 9.27018C8.75454 9.11884 8.73339 9.09784 8.53562 9.09784C8.30719 9.09784 7.60158 8.82452 7.60158 8.73604C7.60158 8.70949 7.73015 8.50111 7.88728 8.27296C8.22616 7.78093 8.73114 7.44866 9.02714 7.52295C9.13581 7.55022 9.26451 7.54133 9.31314 7.50321C9.36177 7.46508 9.50496 7.41164 9.63134 7.38447C9.75772 7.35728 10.0901 7.25981 10.3699 7.16784C11.0504 6.94422 11.395 7.03222 11.6557 7.49616C11.7534 7.66993 11.9474 7.87942 12.0868 7.96168C12.2262 8.04394 12.4201 8.24178 12.5177 8.40132C12.6153 8.56086 12.8867 8.86267 13.1208 9.07202C13.7931 9.67315 14.2828 9.74834 15.4508 9.42972C15.8829 9.31183 15.9705 9.24476 16.8359 8.36929C17.5968 7.59948 17.8264 7.41241 18.138 7.30825C18.6444 7.139 19.0883 6.71598 19.0984 6.39305C19.1133 5.91807 19.1929 5.78485 19.5371 5.65936C19.8155 5.55787 19.8583 5.51446 19.8221 5.37041C19.7611 5.12718 19.8385 5.1133 20.3546 5.27503C20.6074 5.35423 20.8918 5.41954 20.9867 5.42016C21.3049 5.42219 22.3078 3.86076 22.3078 3.3632C22.3078 3.14269 22.6743 2.35854 22.888 2.12168C23.0375 1.95605 23.025 1.89793 22.84 1.89793C22.6192 1.89793 22.431 1.42657 22.4942 1.03166C22.5248 0.839966 22.5079 0.690655 22.4472 0.617527C22.3095 0.451645 22.7885 0.0645382 23.135 0.0617157C23.7146 0.056997 23.9952 0.397292 24.0303 1.14739C24.048 1.52786 24.0962 1.64793 24.4047 2.08025C24.6231 2.38627 24.7592 2.65924 24.7597 2.79249C24.7606 2.98851 24.8732 3.48616 25.0228 3.9544C25.0723 4.1093 25.0594 4.12766 24.9297 4.08649C24.8002 4.04539 24.7721 4.08475 24.7296 4.36616C24.7024 4.54627 24.6239 4.93818 24.5551 5.23706L24.43 5.78048L24.757 6.22314C25.0688 6.64521 25.0819 6.68427 25.0374 7.06313L24.9907 7.46047L25.9279 7.66618C27.3257 7.97298 28.3125 8.11532 29.1247 8.12734C29.8031 8.13739 29.9032 8.11793 30.6036 7.84019C31.2711 7.57553 31.371 7.51072 31.4991 7.25962C31.7294 6.80834 32.1172 6.51859 32.6243 6.41896C32.8691 6.37088 33.2308 6.2646 33.4282 6.18279C33.6727 6.08148 33.967 6.03405 34.3512 6.03405C34.938 6.03405 35.0991 6.10487 35.0991 6.36273C35.0991 6.66118 35.7914 7.84826 36.2236 8.29096C36.9634 9.04864 37.4661 9.16768 38.517 8.83396C39.328 8.57644 39.8312 8.20564 40.4719 7.39341C41.0366 6.67752 41.2429 6.53501 42.0131 6.32901C42.3774 6.23159 42.5097 6.06986 42.7087 5.47874C42.7444 5.37267 42.8422 5.34469 43.1775 5.34469C43.5983 5.34469 43.6011 5.34325 43.6011 5.11195C43.6011 4.94386 43.6875 4.78961 43.9122 4.55664C44.1887 4.26985 44.2316 4.24894 44.2989 4.36811C44.407 4.55937 44.9225 4.54155 45.342 4.33205C45.759 4.12378 46.0252 3.70197 46.1357 3.0746C46.1792 2.82764 46.2619 2.4741 46.3195 2.28896C46.4074 2.00612 46.4076 1.92657 46.3207 1.79109C46.2639 1.70241 46.177 1.42097 46.1276 1.16567C46.0523 0.775797 46.0569 0.656181 46.1562 0.418386C46.3539 -0.0545861 46.9066 -0.132778 47.5895 0.215623C47.964 0.4067 48.1202 0.704633 48.1202 1.22807C48.1202 1.55214 48.1684 1.71416 48.35 2.00049C48.4996 2.23634 48.5798 2.46263 48.5798 2.64876C48.5798 3.05909 48.8916 3.48049 49.3536 3.69453L49.7293 3.86862L49.4243 4.07049C49.2565 4.18152 49.084 4.27237 49.041 4.27237C48.998 4.27237 48.9628 4.3031 48.9628 4.34066C48.9628 4.37822 48.8766 4.43058 48.7713 4.45701C48.6229 4.49424 48.5798 4.55437 48.5798 4.72382C48.5798 4.84413 48.5592 5.04532 48.5341 5.17091C48.4789 5.44707 48.6103 5.52238 48.9683 5.41971C49.1872 5.35692 49.2359 5.37495 49.4413 5.59478C49.6547 5.82318 49.6672 5.869 49.6254 6.26881C49.6007 6.50474 49.5626 6.74662 49.5406 6.80633C49.4498 7.05293 51.2612 7.90868 52.35 8.13358C53.1369 8.29612 54.8524 8.28578 55.6123 8.11393L56.1725 7.98722L56.4165 7.48952C56.6347 7.04453 56.693 6.98283 56.9669 6.90681C57.1354 6.86005 57.9023 6.79678 58.6711 6.76621L60.069 6.71064V6.91607C60.069 7.04608 60.1543 7.2012 60.3013 7.33855C60.4291 7.45792 60.6705 7.8517 60.8377 8.21362C61.118 8.82036 61.1779 8.89504 61.6062 9.17189C62.2091 9.56152 62.7609 9.69025 63.3051 9.56818C64.1021 9.38941 64.4289 9.17434 65.1357 8.36317C66.0088 7.36123 66.6451 6.76207 66.9886 6.61857C67.1425 6.55425 67.4237 6.37189 67.6134 6.21332C67.934 5.94529 67.9583 5.89922 67.9583 5.55826C67.9583 5.11442 68.0206 5.10096 68.7699 5.383C69.0497 5.48831 69.2917 5.57448 69.3078 5.57448C69.3238 5.57448 69.337 5.47539 69.337 5.35427C69.337 4.91582 69.4262 4.65534 69.5763 4.65534C69.7513 4.65534 69.764 4.44953 69.6117 4.08493C69.5112 3.84443 69.5213 3.76892 69.7518 3.03421C70.098 1.93121 70.1262 1.71293 69.9439 1.54794C69.8628 1.47461 69.7964 1.35964 69.7963 1.29245C69.7961 1.22526 69.7277 1.0583 69.6442 0.921441C69.4929 0.673132 69.4929 0.671966 69.6471 0.376201C69.7827 0.116052 69.8435 0.0740651 70.1435 0.032937C70.6934 -0.0424294 71.0222 0.208686 71.0222 0.703987C71.0222 0.801644 71.0866 0.96374 71.1653 1.06421C71.4224 1.3923 71.92 2.46318 72.0082 2.87829C72.0557 3.10153 72.095 3.4462 72.0956 3.64423C72.0968 3.97539 72.2422 4.73706 72.3655 5.05717C72.4098 5.17211 72.3836 5.18422 72.1792 5.14334C71.894 5.0863 71.88 5.16389 72.0914 5.62961L72.2381 5.95281L73.2082 5.97429L74.1782 5.99577L74.3222 6.37561C74.7198 7.42396 76.8556 8.95263 78.5668 9.41372C79.4532 9.65256 81.2996 9.70877 81.808 9.51238L82.1667 9.3738L81.8662 9.28801C81.6949 9.23911 81.5441 9.1405 81.5154 9.05871C81.4385 8.83946 81.5602 8.31501 81.7141 8.20246C82 7.99343 82.681 7.79575 83.1152 7.79575C83.4592 7.79575 83.5907 7.76184 83.6954 7.64611C83.877 7.44545 84.5965 7.28446 84.8321 7.39178C84.9287 7.43581 85.2423 7.64939 85.5291 7.86641C86.6748 8.73361 88.4494 9.3543 89.3829 9.21432C90.3022 9.07645 91.1989 8.52423 91.8513 7.69408C92.1606 7.3005 92.326 7.16526 92.6924 7.00633C93.1412 6.81171 93.1485 6.80359 93.1444 6.50502C93.139 6.11474 93.194 6.03407 93.4654 6.03407C93.9826 6.03407 94.2086 5.77388 94.2971 5.07663L94.3457 4.69366L94.6902 4.6859C95.1802 4.67487 95.8654 4.45785 96.1402 4.22662C96.3714 4.03204 96.3751 4.01792 96.3751 3.3133C96.3751 2.66489 96.3607 2.59305 96.2219 2.549C96.1086 2.51304 96.0656 2.42691 96.0568 2.21831C96.0229 1.41287 95.9933 1.25801 95.8425 1.09757C95.7555 1.00494 95.7105 0.903034 95.7425 0.871115C95.7744 0.839199 95.8357 0.688191 95.8787 0.535542C95.9789 0.179449 96.3441 -0.0527207 96.6859 0.022362C97.1432 0.122801 97.7829 0.895396 97.5354 1.04835C97.4372 1.10901 97.6961 1.3928 97.9881 1.54478C98.3489 1.73251 98.5669 3.02902 98.5251 4.7393L98.5165 5.09132L98.9968 5.21348C99.261 5.28067 99.6039 5.35601 99.7589 5.38092C99.9139 5.40581 100.121 5.49093 100.218 5.57006C100.379 5.69989 100.399 5.78779 100.422 6.47114L100.448 7.22835L100.832 7.44431C101.043 7.56308 101.4 7.80977 101.624 7.9925C101.998 8.29734 102.088 8.33261 102.708 8.42013C103.605 8.54675 105.711 8.54666 106.275 8.41997L106.715 8.32105V8.0142C106.715 7.46667 107.259 7.1234 108.352 6.98169C108.592 6.95053 108.828 6.8614 108.959 6.75251C109.077 6.6545 109.301 6.53629 109.457 6.48983C109.832 6.37819 110.398 6.42289 110.474 6.57023C110.507 6.63342 110.662 6.95296 110.818 7.28031C111.183 8.04757 111.744 8.61744 112.502 8.99206C113.008 9.24216 113.111 9.2663 113.547 9.23689C113.813 9.21894 114.168 9.1379 114.337 9.05678C114.699 8.88211 115.685 7.95918 116.143 7.3656C116.523 6.87392 116.866 6.65646 117.706 6.37577C118.042 6.26331 118.431 6.07148 118.57 5.94949C118.709 5.8275 118.884 5.72768 118.96 5.72768C119.035 5.72768 119.175 5.64428 119.271 5.54234C119.389 5.41693 119.569 5.33996 119.828 5.3043C120.076 5.27031 120.256 5.19603 120.338 5.09515C120.753 4.58022 120.975 4.5383 121.642 4.84884L122.055 5.04082L122.385 4.84718C122.567 4.74068 122.741 4.61294 122.771 4.56332C122.915 4.33039 122.817 2.86816 122.641 2.6256C122.61 2.58347 122.544 2.39531 122.494 2.20746C122.444 2.01961 122.351 1.82773 122.287 1.78107C122.184 1.70605 122.183 1.63925 122.28 1.20485C122.372 0.787658 122.426 0.692068 122.632 0.571587C122.862 0.437124 122.895 0.436297 123.255 0.555782C123.929 0.779918 124.026 0.920757 124.335 2.12774C124.383 2.31731 124.555 2.71369 124.716 3.00858C125.11 3.73017 125.344 4.45214 125.321 4.88062C125.288 5.50973 125.303 5.55163 125.546 5.51591C125.755 5.4853 125.767 5.50022 125.814 5.84625C125.897 6.44856 125.873 6.85021 125.749 6.95321C125.685 7.00686 125.634 7.17383 125.634 7.33503C125.634 7.60019 125.673 7.65064 126.161 8.01336C126.746 8.44808 127.324 9.04902 127.691 9.60259C127.889 9.90154 127.932 10.0431 127.932 10.394C127.933 10.9487 128.182 12.2242 128.421 12.8963C128.525 13.1873 128.681 13.6704 128.768 13.9698C128.895 14.4105 129.028 14.6419 129.463 15.1857C129.758 15.5551 130 15.8837 130 15.916C130 15.9482 129.928 16.3144 129.84 16.7298C129.733 17.2292 129.672 17.8351 129.657 18.519C129.645 19.0877 129.598 19.6478 129.552 19.7637C129.471 19.9667 129.448 19.9743 128.905 19.9743H128.343L128.664 19.6297C129.096 19.1653 129.193 18.7934 129.126 17.8473C129.056 16.8615 128.946 16.1714 128.817 15.9225C128.759 15.811 128.486 15.468 128.21 15.1603C127.935 14.8527 127.69 14.5408 127.666 14.4673C127.643 14.3937 127.478 14.2518 127.299 14.1519C127.121 14.0519 126.794 13.7995 126.573 13.591C126.351 13.3824 126.171 13.2598 126.172 13.3186C126.178 13.8723 126.483 15.9306 126.593 16.1575L126.729 16.4384L126.382 16.9234C126.191 17.1902 125.701 17.822 125.292 18.3275C124.883 18.8331 124.516 19.3328 124.477 19.4382C124.291 19.9353 124.247 19.9745 123.879 19.9699C123.686 19.9676 123.39 19.9404 123.222 19.9097L122.915 19.8539L123.438 19.5594C124.457 18.9861 125.481 17.3575 125.481 16.3115C125.481 15.8815 124.972 14.3815 124.679 13.9471C124.532 13.7285 124.324 13.3528 124.218 13.1124L124.024 12.6751L123.125 12.7272C120.458 12.8814 120.634 12.8825 120.06 12.7082C119.438 12.5193 118.909 12.4936 118.849 12.6495C118.792 12.798 119.021 13.9627 119.294 14.915C119.509 15.6661 119.521 15.7694 119.459 16.3744C119.313 17.7869 119.404 19.0051 119.707 19.7193C119.732 19.7786 119.598 19.8274 119.312 19.8631C118.934 19.9104 118.859 19.8971 118.72 19.7583C118.569 19.6072 118.566 19.5727 118.659 19.0519C118.813 18.1922 118.733 16.8651 118.5 16.4314C118.46 16.3553 118.341 15.7898 118.237 15.1748C118.046 14.0478 117.77 13.1657 117.63 13.231C117.461 13.3093 116.213 15.0333 116.213 15.1881C116.213 15.6633 116.889 16.9383 117.76 18.1047C117.92 18.3192 118.051 18.536 118.051 18.5865C118.051 18.7266 117.547 19.4446 117.489 19.3868C117.461 19.3589 117.439 19.2195 117.439 19.0771C117.439 18.9153 117.343 18.6684 117.185 18.4196C117.046 18.2005 116.856 17.8661 116.763 17.6765C116.671 17.4869 116.285 16.9441 115.906 16.4702C115.519 15.986 115.217 15.5364 115.217 15.4437C115.217 15.353 115.368 15.0169 115.553 14.6968C115.861 14.1623 116.59 12.6809 116.759 12.2473C116.87 11.9617 116.768 11.7909 116.366 11.5871C116.162 11.4834 115.974 11.3655 115.949 11.325C115.846 11.1592 115.244 11.1538 114.575 11.3127C113.827 11.4904 113.152 11.5171 112.759 11.3847C112.615 11.3364 112.085 11.1249 111.579 10.9145C110.692 10.5451 110.639 10.5098 110.047 9.89083C109.519 9.33836 109.399 9.24985 109.18 9.25041C108.924 9.25099 108.632 9.13689 108.544 9.00114C108.516 8.95855 108.351 9.01182 108.155 9.12714C107.576 9.4665 106.956 9.64225 106.179 9.68734C105.302 9.7383 104.54 9.62952 103.622 9.32198C103.248 9.1964 102.927 9.10754 102.91 9.12452C102.893 9.14152 102.98 9.23995 103.102 9.3433C103.401 9.59419 103.477 9.75226 103.618 10.4141C103.701 10.8054 103.722 11.1498 103.688 11.5555C103.645 12.058 103.659 12.177 103.798 12.4352C103.886 12.5995 103.958 12.8378 103.959 12.9648C103.959 13.0918 104.046 13.4641 104.15 13.7922C104.373 14.4904 104.378 14.5361 104.226 14.5361C104.059 14.5361 104.078 14.5911 104.457 15.222C104.85 15.8753 104.876 16.0854 104.651 16.8225C104.499 17.3224 104.356 18.5474 104.322 19.6296L104.303 20.2424L103.824 20.2652C103.249 20.2926 103.218 20.2175 103.611 19.7478C103.943 19.3496 103.981 19.1437 103.989 17.6765L103.996 16.4893L103.697 15.8774C103.533 15.5409 103.244 14.9838 103.055 14.6393C102.741 14.0657 102.682 14.0022 102.358 13.8848C102.146 13.8076 101.891 13.6297 101.718 13.4379L101.431 13.1191L101.431 13.3653C101.43 13.5007 101.499 13.9661 101.583 14.3993C101.667 14.8326 101.736 15.4413 101.736 15.7519L101.737 16.3166L101.29 16.7944C100.782 17.3368 100.127 18.5343 99.8646 19.3968L99.7009 19.936L99.1103 19.9584C98.5752 19.9787 98.5197 19.9672 98.5197 19.8367C98.5197 19.7574 98.5973 19.6572 98.692 19.6139C98.9486 19.4969 100.262 17.6736 100.485 17.1249C100.782 16.3948 100.787 16.0266 100.518 14.8486C100.349 14.1082 100.235 13.7691 100.11 13.6361C99.9642 13.4808 99.9324 13.3492 99.9097 12.8066C99.8948 12.4519 99.8705 12.1617 99.8557 12.1617C99.8408 12.1617 99.3187 12.2849 98.6954 12.4354C97.3907 12.7506 96.4986 12.8307 95.6933 12.7048C95.1525 12.6203 95.1182 12.624 94.9476 12.7842C94.8493 12.8766 94.7494 13.0759 94.7256 13.2271C94.7017 13.3783 94.6138 13.79 94.5303 14.1418C94.4028 14.6782 94.3866 14.9256 94.4296 15.6737C94.4579 16.1644 94.5266 16.6562 94.5824 16.7667C94.6972 16.9942 95.9127 18.1609 96.2561 18.3732C96.4081 18.4672 96.5112 18.4883 96.5719 18.438C96.6833 18.3456 96.9112 18.4244 96.9112 18.5552C96.9112 18.6083 97.0353 18.8998 97.1871 19.2031C97.3388 19.5064 97.4454 19.772 97.424 19.7935C97.3556 19.8619 96.9581 19.6134 96.6906 19.3351C96.5182 19.1556 96.3117 19.0369 96.0719 18.9794C95.7674 18.9063 95.6013 18.7818 94.9919 18.1699C94.5958 17.7721 94.2452 17.4467 94.2128 17.4467C94.1803 17.4467 94.1538 17.7837 94.1538 18.1956C94.1538 18.7546 94.1231 18.9884 94.0326 19.1175C93.9451 19.2424 93.9257 19.3748 93.9628 19.5941L94.0141 19.8978H93.3946C92.8298 19.8978 92.7751 19.8845 92.7751 19.7473C92.7751 19.6645 92.8451 19.5593 92.9307 19.5135C93.0163 19.4677 93.1847 19.2943 93.3051 19.1281C93.5092 18.8463 93.5275 18.7606 93.5768 17.8492C93.6194 17.0635 93.6073 16.8198 93.5151 16.6042C93.4316 16.4087 93.4104 16.1598 93.4368 15.685C93.47 15.0878 93.4421 14.917 93.0987 13.62L92.7244 12.2061L92.3476 12.0075C92.1404 11.8983 91.8447 11.7214 91.6905 11.6143C91.4251 11.43 91.3411 11.4172 90.1203 11.3755C88.9832 11.3366 88.6967 11.2984 87.701 11.0524C87.0798 10.899 86.5403 10.7928 86.5021 10.8165C86.4639 10.8401 86.2483 10.7736 86.023 10.6687C85.7978 10.5639 85.5375 10.4778 85.4446 10.4773C85.1122 10.4759 83.2473 9.80514 83.1124 9.63857L82.9807 9.47596L82.229 9.63345C81.8156 9.72006 81.2878 9.84465 81.0561 9.9103C80.1104 10.1783 78.6253 10.1236 77.6397 9.78452C77.2338 9.64487 77.115 9.67604 77.3403 9.86306C77.403 9.91508 77.5322 10.083 77.6275 10.2363C77.7863 10.4916 77.804 10.6312 77.8391 11.9079L77.8774 13.301L78.2802 13.8803L78.6831 14.4595H78.4616C78.2738 14.4595 78.1918 14.3854 77.923 13.9729C77.5684 13.4285 77.5087 13.1857 77.349 11.6368C77.2777 10.9459 77.2062 10.5768 77.1285 10.4992C77.0263 10.397 77.0176 10.4212 77.0495 10.7176C77.0693 10.901 77.0306 11.6697 76.9634 12.4258L76.8414 13.8006L77.1352 14.1109C77.8753 14.8926 78.0713 15.1196 78.1111 15.2417C78.1347 15.3139 78.068 15.6452 77.9628 15.978C77.8577 16.3108 77.6804 17.0186 77.5688 17.5507L77.366 18.5183L77.5685 18.8806L77.771 19.2429L77.4029 19.5629L77.0349 19.8829L76.9869 19.4633C76.9109 18.7976 76.8116 18.8076 76.5644 19.5058L76.3455 20.1239L76.0008 20.1663C75.8113 20.1897 75.5441 20.2228 75.4072 20.24C75.2703 20.2571 75.1595 20.2474 75.1611 20.2185C75.1625 20.1895 75.3435 20.0444 75.5632 19.8961C76.0173 19.5893 76.0912 19.4578 76.5371 18.1648C76.9051 17.0975 76.9021 17.0592 76.3366 15.6263C75.8658 14.4333 75.8107 14.3643 75.1309 14.1163C74.6354 13.9356 74.5448 13.872 74.3891 13.5948C74.2564 13.3587 74.2103 13.1529 74.2063 12.7779L74.2009 12.2766L73.9328 12.2857C73.7833 12.2907 73.3258 12.4602 72.8988 12.6686L72.1328 13.0425L70.4361 13.0396L68.7394 13.0367L68.8929 13.4225C68.9773 13.6347 69.1451 14.063 69.2658 14.3743C69.3864 14.6856 69.6069 15.1448 69.7558 15.3947C69.9845 15.7786 70.0264 15.9198 70.0264 16.3055C70.0264 16.6142 70.0858 16.9036 70.2101 17.2C70.3853 17.6178 70.9456 19.5474 70.9456 19.7328C70.9456 19.791 70.763 19.821 70.4094 19.821C70.1145 19.821 69.8733 19.8021 69.8733 19.7789C69.8733 19.7558 69.9282 19.6306 69.9953 19.5008C70.0829 19.3315 70.1029 19.1682 70.0663 18.9237C69.9847 18.3797 69.4975 16.9803 69.2587 16.604C69.1383 16.4145 68.952 15.9836 68.8447 15.6466C68.7018 15.1981 68.4628 14.7478 67.9533 13.967L67.2572 12.9001L66.7199 14.0818C66.4243 14.7318 66.1568 15.4187 66.1254 15.6083C66.094 15.7979 65.975 16.1838 65.8609 16.4658C65.7467 16.7479 65.6188 17.1959 65.5765 17.4615C65.4988 17.9503 65.3616 18.5331 65.152 19.2657L65.0369 19.6678H64.4296C64.0956 19.6678 63.8223 19.64 63.8223 19.6059C63.8223 19.5719 63.9571 19.4426 64.122 19.3187C64.3885 19.1183 64.4643 18.9788 64.8057 18.0593C65.1781 17.0566 65.1885 17.0066 65.1481 16.4085C65.1102 15.8476 65.1248 15.7555 65.3099 15.3904C65.4217 15.1696 65.6508 14.4177 65.819 13.7194C66.165 12.2822 66.1899 12.4119 65.4984 12.0487L65.1448 11.8629L64.4644 12.0056C64.0902 12.0841 63.6 12.1893 63.3751 12.2393C63.1502 12.2894 62.7021 12.3182 62.3793 12.3034C61.8424 12.2787 61.7167 12.2384 60.9016 11.8296C59.9318 11.3433 59.6855 11.1177 58.9637 10.0552C58.749 9.73918 58.5091 9.48005 58.3794 9.4241C58.2584 9.37189 57.8895 9.1465 57.5598 8.92322L56.9602 8.51727L56.4274 8.76375C54.8112 9.5115 53.0626 9.50608 51.2224 8.74762C51.1214 8.70599 51.1793 8.80975 51.3922 9.05219C51.7995 9.51592 52.0011 10.0516 52.1874 11.1658C52.2684 11.6503 52.3555 12.0983 52.3808 12.1615C52.4062 12.2247 52.4382 12.466 52.452 12.6977C52.4739 13.0661 52.5242 13.2993 52.7636 14.1425C52.8101 14.3064 52.8001 14.3156 52.6575 14.2393C52.3343 14.0663 52.1952 13.685 51.9767 12.3726C51.8337 11.5133 51.7382 11.1173 51.6865 11.169C51.617 11.2384 51.4807 12.7505 51.4773 13.4893C51.4757 13.84 51.5844 13.9698 52.4671 14.6713C52.8146 14.9475 53.099 15.2215 53.099 15.2801C53.099 15.3388 52.9784 15.9346 52.8309 16.604C52.6659 17.3532 52.5628 18.0275 52.5628 18.3577C52.5628 18.86 52.5781 18.9084 52.8028 19.1184L53.0428 19.3427L52.8653 19.6584C52.6633 20.0179 52.5712 20.0468 52.4089 19.8019C52.2096 19.501 52.122 19.1114 52.1944 18.8476C52.2315 18.7125 52.252 18.2472 52.24 17.8136L52.2182 17.0253L51.9754 17.4897C51.5673 18.2701 51.0997 19.4537 51.0275 19.8889C50.9898 20.1158 50.9493 20.3093 50.9375 20.3188C50.8641 20.378 50.2667 20.4058 50.1827 20.3539ZM5.15055 13.7354C6.37879 13.4352 7.57013 12.607 8.22476 11.5982C8.72309 10.8304 9.24197 9.25104 8.99593 9.25104C8.95095 9.25104 8.74174 9.56987 8.53102 9.95955C7.56508 11.7458 6.32633 13.0478 5.07396 13.593C4.22963 13.9605 4.22962 13.9605 5.15055 13.7354ZM80.5198 9.8638C80.6595 9.81906 80.5738 9.80041 80.2028 9.79484C79.2108 9.77996 77.7631 9.39444 76.9244 8.92184C76.2576 8.54613 75.5483 8.02482 74.9929 7.50237C74.6626 7.19157 74.3918 6.98395 74.3912 7.04099C74.3906 7.09802 74.372 7.21362 74.3498 7.29788C74.3168 7.42318 74.3763 7.47796 74.6764 7.59876C75.0543 7.75087 75.3858 8.00545 76.3333 8.87106C76.9135 9.40105 77.3628 9.61662 78.3221 9.82511C78.8398 9.93763 80.2138 9.96182 80.5198 9.8638ZM107.418 9.30434C107.699 9.19703 108.02 9.04923 108.132 8.9759C108.416 8.78975 108.244 8.70951 107.611 8.73398C107.217 8.74923 107.083 8.72399 106.957 8.61062C106.815 8.48227 106.751 8.47654 106.311 8.55305C105.439 8.70497 104.475 8.73624 103.498 8.64432C102.972 8.59477 102.472 8.53673 102.388 8.51535C102.257 8.48222 102.264 8.50354 102.434 8.65943C102.649 8.85571 104.056 9.35541 104.733 9.47598C104.96 9.51632 105.541 9.5381 106.026 9.52439C106.745 9.50403 107.001 9.46358 107.418 9.30434ZM82.7203 9.35796C82.6949 9.33251 82.6288 9.32979 82.5735 9.3519C82.5124 9.37637 82.5306 9.39451 82.6198 9.39818C82.7005 9.40151 82.7458 9.38339 82.7203 9.35796ZM55.0744 9.05311C55.3991 8.98638 55.9206 8.8256 56.2332 8.69583C56.7477 8.48227 56.7841 8.45353 56.6162 8.39298C56.5142 8.35619 56.3961 8.28068 56.3538 8.22518C56.2907 8.14235 56.1534 8.1502 55.5879 8.26897C54.6408 8.46789 52.801 8.42937 51.9282 8.19236C51.2434 8.00639 50.2095 7.54011 49.6909 7.18332C49.4952 7.04864 49.3179 6.95547 49.2971 6.97629C49.2763 6.9971 49.2811 7.13027 49.3077 7.27219C49.3507 7.50155 49.4156 7.55848 49.8916 7.78423C50.1862 7.92392 50.5372 8.13472 50.6716 8.25268C50.9808 8.52408 51.6705 8.81358 52.4095 8.98217C52.7255 9.05425 53.0185 9.12428 53.0606 9.13779C53.2903 9.21145 54.5648 9.15785 55.0744 9.05311ZM28.4354 8.34192L28.78 8.2867L28.2822 8.22748C27.8692 8.17835 26.2659 7.90039 25.5248 7.74941L25.3333 7.71041L25.5248 7.82686C26.1856 8.22875 27.5903 8.47732 28.4354 8.34192ZM31.7098 8.0576C31.9579 7.9857 31.9236 7.92258 31.5779 7.81468C31.3096 7.73094 31.2258 7.73888 30.8694 7.88181C30.647 7.97096 30.379 8.07415 30.2736 8.11112C30.0516 8.18906 31.4339 8.13755 31.7098 8.0576ZM45.3982 5.29349L45.4508 4.97418L45.0232 4.92076C44.562 4.86313 44.3671 4.94459 44.3671 5.19496C44.3671 5.28218 44.4585 5.36373 44.616 5.41696C44.7529 5.46322 44.9509 5.56719 45.056 5.64799C45.2773 5.81812 45.3188 5.77507 45.3982 5.29349Z" fill="#5F432F"/>
</svg>
