<svg width="1512" height="260" viewBox="0 0 1512 260" fill="none" xmlns="http://www.w3.org/2000/svg">
<path d="M-38 123.407C99.9516 112.534 192.606 178.535 398.034 156.225C603.463 133.915 639.02 158.113 761.821 167.647C884.621 177.18 935.55 177.093 1095.94 156.79C1276.02 133.991 1302.87 157.295 1538.69 138.709L1549.01 269.638L-16.7483 393.045L-38 123.407Z" fill="url(#paint0_linear_49_14)"/>
<path d="M0 230.059C315.884 177.83 380.626 174.098 665.199 203.67C949.772 233.242 1051.91 232.164 1215.94 210.714C1404.94 185.991 1405.04 182 1512 182V260H0V230.059Z" fill="url(#paint1_linear_49_14)"/>
<path d="M878.693 182.33C878.55 182.241 878.667 182.035 879.162 181.506C879.525 181.117 879.861 180.675 879.908 180.522C880.816 177.571 880.992 176.727 880.872 175.899C880.61 174.104 880.254 173.069 879.457 171.783C879.12 171.242 878.545 170.941 877.844 170.941C877.426 170.941 876.932 170.486 876.419 169.626C876.158 169.188 876.108 168.881 876.108 167.715C876.108 166.486 876.078 166.326 875.855 166.33C875.618 166.335 874.316 166.646 872.502 167.132C871.951 167.279 871.113 167.335 869.761 167.312C867.896 167.281 864.962 167.328 864.899 167.389C864.808 167.479 866.331 172.062 866.785 173.065C867.287 174.174 867.311 174.292 867.158 174.862C866.963 175.586 867.05 176.244 867.52 177.589C867.788 178.356 867.876 178.94 867.906 180.138C867.927 180.993 867.89 181.78 867.824 181.887C867.703 182.082 866.541 182.049 866.336 181.844C866.284 181.792 866.32 181.459 866.415 181.103C866.779 179.74 866.446 176.555 865.807 175.293C865.618 174.92 865.385 174.324 865.29 173.968C865.195 173.612 864.857 172.705 864.539 171.951C863.538 169.581 863.304 169.122 863.217 169.355C862.61 170.966 862.116 172.536 862.116 172.855C862.116 173.075 861.951 173.724 861.748 174.298C861.239 175.74 860.82 177.529 860.819 178.265C860.819 178.604 860.688 179.251 860.53 179.702C860.371 180.154 860.241 180.704 860.241 180.925C860.241 181.326 860.239 181.327 859.236 181.327C858.392 181.327 858.208 181.282 858.083 181.049C857.955 180.809 858.018 180.724 858.534 180.436C858.864 180.251 859.25 179.938 859.391 179.74C859.759 179.226 860.07 177.504 860.174 175.412C860.247 173.939 860.33 173.457 860.625 172.772C860.978 171.952 861.235 170.596 861.531 167.987L861.678 166.692L861.068 166.064C860.732 165.719 860.223 165.248 859.935 165.018L859.413 164.6L858.205 164.955C856.113 165.569 854.689 165.413 852.452 164.327C851.283 163.759 850.216 162.789 848.567 160.795C847.832 159.906 847.56 159.679 847.14 159.6C846.854 159.546 846.355 159.385 846.031 159.242C845.458 158.988 845.418 158.989 844.512 159.274C843.86 159.479 842.89 159.606 841.273 159.696C840.004 159.767 838.446 159.891 837.812 159.972C835.862 160.221 833.634 159.809 832.003 158.898C831.243 158.473 831.249 158.474 831.249 158.754C831.249 158.873 831.932 159.664 832.767 160.511C835.411 163.194 835.801 164.05 836.082 167.784C836.14 168.56 836.28 168.897 836.586 168.994C836.736 169.042 836.829 169.161 836.791 169.258C836.754 169.356 836.952 169.657 837.231 169.928C837.511 170.199 837.739 170.486 837.739 170.566C837.739 170.647 837.663 170.634 837.566 170.537C837.318 170.289 837.156 170.324 837.264 170.604C837.329 170.774 837.302 170.811 837.173 170.731C837.029 170.642 837.024 170.682 837.148 170.914C837.355 171.302 837.349 171.416 837.126 171.283C836.997 171.205 837 171.241 837.138 171.411C837.274 171.579 837.288 171.722 837.185 171.906C837.058 172.133 836.911 172.031 835.972 171.064C834.594 169.646 834.484 169.38 834.693 167.978C834.782 167.38 834.853 166.617 834.85 166.284C834.846 165.708 834.834 165.692 834.624 165.965C834.477 166.157 834.421 166.47 834.457 166.902C834.487 167.259 834.437 168.186 834.347 168.962L834.182 170.372L834.821 171.983C835.893 174.692 835.891 174.623 835.024 177.884C834.613 179.428 834.278 180.834 834.278 181.009C834.278 181.304 834.211 181.327 833.34 181.327C832.824 181.327 832.403 181.272 832.403 181.205C832.403 181.138 832.54 180.959 832.708 180.808C833.113 180.444 833.642 179.226 833.993 177.851C834.337 176.504 834.339 176.393 834.049 175.416L833.82 174.647L833.436 175.368C831.937 178.182 831.249 179.646 831.249 180.022C831.249 180.537 830.757 180.848 829.72 180.99C829.067 181.08 829.054 181.074 829.152 180.735C829.207 180.545 829.474 180.194 829.745 179.956C830.086 179.657 830.599 178.788 831.406 177.144C832.393 175.13 832.56 174.687 832.491 174.258C832.38 173.565 831.459 171.247 831.102 170.763C830.942 170.546 830.59 169.885 830.321 169.294C829.871 168.308 829.785 168.206 829.278 168.072C827.27 167.54 827.447 167.553 826.616 167.886C825.815 168.208 824.269 168.481 823.224 168.486C822.747 168.488 822.612 168.548 822.551 168.783C822.4 169.361 822.89 172.425 823.265 173.249C823.464 173.685 823.718 174.514 823.829 175.09C824.039 176.169 824.41 177.038 824.985 177.793C825.167 178.032 825.504 178.648 825.735 179.164C825.967 179.679 826.263 180.19 826.394 180.298C826.903 180.72 826.578 181.328 825.847 181.325C824.941 181.321 824.789 181.207 824.716 180.484C824.586 179.203 823.823 177.353 822.957 176.218C822.315 175.378 822.017 174.715 822.017 174.13C822.017 173.754 820.74 170.382 820.194 169.319C820.08 169.096 819.679 168.765 819.273 168.56L818.555 168.196V169.126C818.555 169.638 818.45 170.532 818.321 171.112C818.192 171.692 818.037 172.687 817.976 173.321C817.915 173.956 817.788 174.767 817.692 175.124C817.597 175.481 817.476 176.974 817.424 178.442L817.329 181.11L816.436 181.153C815.658 181.19 815.523 181.157 815.385 180.898C815.257 180.661 815.271 180.584 815.454 180.513C815.921 180.334 816.243 179.361 816.419 177.596C816.549 176.301 816.551 175.696 816.429 175.165C816.321 174.7 816.311 174.264 816.397 173.89C816.47 173.577 816.531 172.053 816.533 170.504L816.536 167.687L815.707 166.871L814.877 166.055L814.084 166.271C813.648 166.389 812.753 166.482 812.096 166.476L810.9 166.466L807.84 164.94C805.519 163.783 804.606 163.248 804.059 162.727C803.376 162.076 802.405 161.564 801.857 161.567C801.666 161.567 801.548 161.815 801.358 162.612C800.776 165.052 799.115 167.488 797.166 168.758C796.072 169.471 794.273 170.154 792.888 170.383L791.887 170.548L791.703 171.268C791.601 171.664 791.411 172.056 791.279 172.138C791.067 172.27 791.062 172.341 791.239 172.763C791.349 173.025 791.438 173.425 791.438 173.651C791.438 173.904 791.62 174.281 791.909 174.629C792.168 174.941 792.495 175.423 792.635 175.701C792.775 175.979 792.996 176.401 793.125 176.639C793.254 176.877 793.404 177.169 793.457 177.288C793.511 177.407 793.752 177.634 793.995 177.793C794.306 177.997 794.429 178.186 794.415 178.442C794.4 178.719 794.503 178.85 794.864 179.009C795.122 179.122 795.333 179.298 795.333 179.399C795.333 179.721 793.882 181.54 793.556 181.627C793.009 181.773 792.829 181.617 793.146 181.272C793.505 180.88 793.681 180.081 793.465 179.821C793.329 179.657 793.178 179.671 792.55 179.909C790.871 180.543 790.662 180.605 790.214 180.605C789.957 180.605 789.442 180.647 789.068 180.698C788.445 180.784 788.395 180.82 788.473 181.128C788.577 181.543 788.398 181.593 786.621 181.648C785.168 181.692 784.837 181.484 785.833 181.152C786.488 180.933 786.768 180.604 786.215 180.701C785.754 180.783 784.894 180.23 785.011 179.927C785.133 179.608 785.183 179.205 785.467 176.223C785.667 174.125 785.679 173.552 785.534 173.151C785.39 172.751 785.393 172.614 785.548 172.426C785.844 172.069 785.777 169.857 785.459 169.507C785.25 169.276 785.239 169.156 785.383 168.683C785.475 168.378 785.594 166.798 785.646 165.172C785.736 162.343 785.757 162.183 786.123 161.487C786.444 160.877 786.488 160.661 786.396 160.155C786.335 159.823 786.209 159.46 786.117 159.348C786.024 159.237 785.881 158.765 785.8 158.3C785.553 156.893 786.144 155.94 787.262 155.94C787.755 155.94 788.409 156.392 788.409 156.733C788.409 156.803 788.53 156.993 788.677 157.157C788.937 157.446 789.419 159.086 789.419 159.684C789.419 159.846 789.484 159.979 789.563 159.979C789.642 159.979 789.707 160.098 789.707 160.244C789.707 160.39 789.871 160.584 790.072 160.676C790.272 160.767 790.477 160.956 790.526 161.095C790.576 161.235 790.695 161.447 790.792 161.566C790.888 161.685 791.006 162.315 791.053 162.966C791.101 163.617 791.206 164.266 791.288 164.408C791.369 164.55 791.531 165.218 791.647 165.893C792.327 169.845 792.319 169.815 792.726 169.714C794.486 169.278 797.13 167.128 798.622 164.921C799.34 163.858 800.466 161.878 800.592 161.457C800.677 161.172 800.637 161.133 800.265 161.133C799.835 161.133 798.506 160.618 798.506 160.451C798.506 160.401 798.748 160.009 799.044 159.579C799.682 158.653 800.633 158.027 801.19 158.167C801.395 158.218 801.637 158.202 801.729 158.13C801.821 158.058 802.09 157.957 802.328 157.906C802.566 157.855 803.192 157.671 803.719 157.498C805.001 157.077 805.65 157.243 806.141 158.117C806.324 158.444 806.69 158.838 806.952 158.993C807.215 159.148 807.58 159.521 807.764 159.821C807.948 160.122 808.459 160.69 808.9 161.084C810.166 162.216 811.088 162.358 813.287 161.758C814.101 161.536 814.266 161.409 815.896 159.761C817.329 158.311 817.761 157.959 818.348 157.763C819.301 157.444 820.137 156.647 820.156 156.039C820.184 155.145 820.334 154.894 820.983 154.658C821.507 154.466 821.587 154.385 821.519 154.113C821.404 153.655 821.55 153.629 822.522 153.934C822.998 154.083 823.534 154.206 823.712 154.207C824.312 154.211 826.2 151.27 826.2 150.333C826.2 149.918 826.89 148.442 827.293 147.995C827.574 147.684 827.551 147.574 827.203 147.574C826.787 147.574 826.432 146.686 826.551 145.943C826.609 145.582 826.577 145.301 826.463 145.163C826.203 144.851 827.106 144.122 827.758 144.116C828.849 144.107 829.378 144.748 829.444 146.161C829.477 146.877 829.568 147.103 830.149 147.917C830.56 148.494 830.817 149.008 830.818 149.259C830.819 149.628 831.031 150.565 831.313 151.447C831.406 151.739 831.382 151.773 831.138 151.696C830.894 151.618 830.841 151.692 830.761 152.222C830.71 152.561 830.562 153.299 830.432 153.862L830.197 154.886L830.813 155.719C831.4 156.514 831.424 156.588 831.34 157.301L831.252 158.049L833.018 158.437C835.65 159.014 837.508 159.283 839.038 159.305C840.315 159.324 840.504 159.287 841.823 158.764C843.08 158.266 843.268 158.144 843.509 157.671C843.943 156.821 844.673 156.276 845.628 156.088C846.089 155.997 846.77 155.797 847.142 155.643C847.602 155.452 848.156 155.363 848.88 155.363C849.985 155.363 850.288 155.497 850.288 155.982C850.288 156.544 851.592 158.78 852.406 159.613C853.799 161.04 854.746 161.264 856.725 160.636C858.252 160.151 859.2 159.453 860.406 157.923C861.47 156.575 861.858 156.307 863.309 155.919C863.995 155.735 864.244 155.431 864.619 154.317C864.686 154.118 864.87 154.065 865.501 154.065C866.294 154.065 866.299 154.062 866.299 153.627C866.299 153.31 866.462 153.02 866.885 152.581C867.406 152.041 867.486 152.001 867.613 152.226C867.817 152.586 868.788 152.553 869.577 152.158C870.363 151.766 870.864 150.971 871.072 149.79C871.154 149.325 871.31 148.659 871.418 148.31C871.584 147.778 871.584 147.628 871.421 147.373C871.314 147.206 871.15 146.676 871.057 146.195C870.915 145.461 870.924 145.236 871.111 144.788C871.483 143.897 872.524 143.75 873.81 144.406C874.515 144.766 874.809 145.327 874.809 146.313C874.809 146.923 874.9 147.228 875.242 147.767C875.524 148.211 875.675 148.638 875.675 148.988C875.675 149.761 876.262 150.554 877.132 150.957L877.84 151.285L877.265 151.665C876.949 151.875 876.624 152.046 876.543 152.046C876.462 152.046 876.396 152.103 876.396 152.174C876.396 152.245 876.234 152.344 876.035 152.393C875.756 152.463 875.675 152.577 875.675 152.896C875.675 153.122 875.636 153.501 875.589 153.738C875.485 154.258 875.732 154.4 876.406 154.206C876.819 154.088 876.911 154.122 877.297 154.536C877.699 154.966 877.723 155.052 877.644 155.805C877.597 156.25 877.526 156.705 877.484 156.817C877.313 157.282 880.724 158.893 882.775 159.317C884.257 159.623 887.487 159.604 888.918 159.28L889.973 159.041L890.433 158.104C890.844 157.266 890.953 157.15 891.469 157.007C891.787 156.919 893.231 156.799 894.679 156.742L897.311 156.637V157.024C897.311 157.269 897.472 157.561 897.749 157.82C897.989 158.045 898.444 158.786 898.759 159.468C899.286 160.61 899.399 160.751 900.206 161.272C901.341 162.006 902.38 162.248 903.405 162.019C904.906 161.682 905.521 161.277 906.852 159.749C908.497 157.862 909.695 156.734 910.342 156.464C910.632 156.343 911.161 155.999 911.518 155.701C912.122 155.196 912.168 155.109 912.168 154.467C912.168 153.631 912.285 153.606 913.696 154.137C914.223 154.335 914.679 154.498 914.709 154.498C914.739 154.498 914.764 154.311 914.764 154.083C914.764 153.257 914.932 152.767 915.215 152.767C915.544 152.767 915.568 152.379 915.282 151.693C915.092 151.24 915.111 151.098 915.545 149.714C916.197 147.637 916.25 147.226 915.907 146.915C915.754 146.777 915.629 146.56 915.629 146.434C915.629 146.307 915.5 145.993 915.343 145.735C915.058 145.268 915.058 145.265 915.348 144.708C915.604 144.219 915.718 144.139 916.283 144.062C917.319 143.92 917.938 144.393 917.938 145.326C917.938 145.51 918.059 145.815 918.207 146.004C918.691 146.622 919.628 148.639 919.795 149.42C919.884 149.841 919.958 150.49 919.959 150.863C919.961 151.486 920.235 152.921 920.467 153.524C920.551 153.74 920.502 153.763 920.117 153.686C919.58 153.578 919.553 153.724 919.951 154.602L920.228 155.21L922.054 155.251L923.881 155.291L924.152 156.006C924.901 157.981 928.923 160.859 932.145 161.728C933.815 162.177 937.292 162.283 938.249 161.913L938.925 161.652L938.359 161.491C938.036 161.399 937.752 161.213 937.698 161.059C937.553 160.646 937.783 159.659 938.072 159.447C938.611 159.053 939.893 158.681 940.711 158.681C941.359 158.681 941.606 158.617 941.804 158.399C942.146 158.021 943.5 157.718 943.944 157.92C944.126 158.003 944.717 158.405 945.257 158.814C947.414 160.447 950.756 161.616 952.514 161.352C954.245 161.093 955.934 160.053 957.162 158.489C957.745 157.748 958.056 157.493 958.747 157.194C959.592 156.828 959.605 156.812 959.598 156.25C959.588 155.515 959.691 155.363 960.202 155.363C961.176 155.363 961.602 154.873 961.768 153.56L961.86 152.839L962.509 152.824C963.431 152.804 964.722 152.395 965.239 151.959C965.675 151.593 965.682 151.566 965.682 150.24C965.682 149.018 965.654 148.883 965.393 148.8C965.18 148.732 965.099 148.57 965.082 148.177C965.018 146.661 964.963 146.369 964.679 146.067C964.515 145.892 964.43 145.701 964.49 145.64C964.55 145.58 964.666 145.296 964.747 145.009C964.935 144.338 965.623 143.901 966.267 144.042C967.128 144.231 968.333 145.686 967.867 145.974C967.682 146.088 968.169 146.623 968.719 146.909C969.399 147.263 969.809 149.704 969.73 152.925L969.714 153.588L970.619 153.818C971.116 153.944 971.762 154.086 972.054 154.133C972.346 154.18 972.735 154.34 972.919 154.489C973.221 154.734 973.259 154.899 973.303 156.186L973.351 157.612L974.075 158.019C974.473 158.243 975.144 158.707 975.567 159.051C976.271 159.625 976.44 159.692 977.607 159.857C979.296 160.095 983.263 160.095 984.325 159.856L985.154 159.67V159.092C985.154 158.061 986.179 157.415 988.236 157.148C988.689 157.089 989.133 156.921 989.38 156.716C989.601 156.532 990.023 156.309 990.317 156.221C991.023 156.011 992.088 156.095 992.233 156.373C992.295 156.492 992.586 157.094 992.879 157.71C993.567 159.155 994.623 160.228 996.05 160.934C997.003 161.405 997.197 161.45 998.018 161.395C998.519 161.361 999.189 161.208 999.506 161.055C1000.19 160.727 1002.05 158.988 1002.91 157.871C1003.62 156.945 1004.27 156.535 1005.85 156.007C1006.48 155.795 1007.22 155.434 1007.48 155.204C1007.74 154.974 1008.07 154.786 1008.21 154.786C1008.35 154.786 1008.62 154.629 1008.8 154.437C1009.02 154.201 1009.36 154.056 1009.85 153.989C1010.31 153.925 1010.65 153.785 1010.81 153.595C1011.59 152.625 1012.01 152.546 1013.26 153.131L1014.04 153.493L1014.66 153.128C1015.01 152.928 1015.33 152.687 1015.39 152.594C1015.66 152.155 1015.48 149.401 1015.14 148.944C1015.09 148.865 1014.96 148.511 1014.87 148.157C1014.77 147.803 1014.6 147.442 1014.48 147.354C1014.28 147.213 1014.28 147.087 1014.46 146.269C1014.64 145.483 1014.74 145.303 1015.13 145.076C1015.56 144.823 1015.62 144.822 1016.3 145.047C1017.57 145.469 1017.75 145.734 1018.33 148.007C1018.43 148.364 1018.75 149.11 1019.05 149.666C1019.79 151.025 1020.23 152.384 1020.19 153.191C1020.13 154.376 1020.16 154.455 1020.62 154.387C1021.01 154.33 1021.03 154.358 1021.12 155.009C1021.28 156.144 1021.23 156.9 1021 157.094C1020.88 157.195 1020.78 157.51 1020.78 157.813C1020.78 158.312 1020.86 158.407 1021.77 159.091C1022.87 159.909 1023.96 161.041 1024.65 162.083C1025.03 162.646 1025.11 162.913 1025.11 163.574C1025.11 164.618 1025.58 167.02 1026.03 168.286C1026.23 168.834 1026.52 169.744 1026.68 170.307C1026.92 171.137 1027.17 171.573 1027.99 172.597C1028.55 173.293 1029 173.912 1029 173.972C1029 174.033 1028.87 174.723 1028.7 175.505C1028.5 176.446 1028.38 177.587 1028.36 178.874C1028.34 179.945 1028.25 181 1028.16 181.218C1028.01 181.601 1027.96 181.615 1026.94 181.615H1025.88L1026.49 180.966C1027.3 180.092 1027.48 179.391 1027.36 177.609C1027.23 175.753 1027.02 174.454 1026.78 173.985C1026.67 173.775 1026.15 173.129 1025.63 172.55C1025.11 171.97 1024.65 171.383 1024.61 171.244C1024.56 171.106 1024.25 170.839 1023.92 170.65C1023.58 170.462 1022.97 169.987 1022.55 169.594C1022.13 169.201 1021.79 168.971 1021.79 169.081C1021.81 170.124 1022.38 174 1022.59 174.427L1022.84 174.956L1022.19 175.87C1021.83 176.372 1020.91 177.562 1020.14 178.514C1019.37 179.466 1018.68 180.407 1018.6 180.605C1018.25 181.542 1018.17 181.615 1017.48 181.607C1017.11 181.602 1016.56 181.551 1016.24 181.493L1015.66 181.388L1016.65 180.834C1018.56 179.754 1020.49 176.687 1020.49 174.717C1020.49 173.907 1019.54 171.083 1018.98 170.265C1018.71 169.853 1018.31 169.146 1018.11 168.693L1017.75 167.869L1016.06 167.967C1011.03 168.258 1011.36 168.26 1010.28 167.932C1009.11 167.576 1008.12 167.528 1008 167.821C1007.9 168.101 1008.33 170.294 1008.84 172.088C1009.25 173.502 1009.27 173.697 1009.15 174.836C1008.88 177.496 1009.05 179.79 1009.62 181.135C1009.67 181.246 1009.41 181.338 1008.88 181.406C1008.16 181.495 1008.02 181.47 1007.76 181.208C1007.48 180.924 1007.47 180.859 1007.65 179.878C1007.94 178.259 1007.78 175.76 1007.35 174.943C1007.27 174.8 1007.05 173.735 1006.85 172.577C1006.49 170.454 1005.97 168.793 1005.71 168.916C1005.39 169.064 1003.04 172.31 1003.04 172.602C1003.04 173.497 1004.31 175.898 1005.95 178.094C1006.26 178.498 1006.5 178.906 1006.5 179.001C1006.5 179.265 1005.55 180.617 1005.44 180.509C1005.39 180.456 1005.35 180.194 1005.35 179.925C1005.35 179.621 1005.17 179.156 1004.87 178.687C1004.61 178.275 1004.25 177.645 1004.08 177.288C1003.9 176.931 1003.17 175.909 1002.46 175.016C1001.73 174.104 1001.16 173.258 1001.16 173.083C1001.16 172.912 1001.45 172.279 1001.8 171.677C1002.38 170.67 1003.75 167.88 1004.07 167.064C1004.28 166.526 1004.09 166.204 1003.33 165.82C1002.94 165.625 1002.59 165.403 1002.54 165.327C1002.35 165.015 1001.22 165.004 999.956 165.304C998.547 165.638 997.275 165.689 996.535 165.439C996.265 165.348 995.265 164.95 994.313 164.554C992.642 163.858 992.543 163.792 991.429 162.626C990.434 161.586 990.209 161.419 989.796 161.42C989.313 161.421 988.764 161.206 988.597 160.951C988.545 160.87 988.235 160.971 987.864 161.188C986.774 161.827 985.607 162.158 984.144 162.243C982.492 162.339 981.058 162.134 979.33 161.555C978.624 161.318 978.02 161.151 977.988 161.183C977.956 161.215 978.119 161.4 978.35 161.595C978.912 162.067 979.055 162.365 979.321 163.611C979.478 164.348 979.518 164.997 979.452 165.761C979.371 166.707 979.399 166.931 979.66 167.418C979.826 167.727 979.962 168.176 979.963 168.415C979.964 168.654 980.126 169.355 980.324 169.973C980.744 171.288 980.752 171.374 980.466 171.374C980.152 171.374 980.187 171.478 980.901 172.666C981.641 173.896 981.689 174.292 981.267 175.68C980.981 176.621 980.71 178.928 980.646 180.966L980.61 182.12L979.709 182.163C978.626 182.214 978.568 182.073 979.307 181.188C979.934 180.439 980.005 180.051 980.021 177.288L980.033 175.052L979.471 173.9C979.161 173.266 978.617 172.217 978.262 171.568C977.67 170.488 977.559 170.369 976.949 170.147C976.548 170.002 976.068 169.667 975.743 169.306L975.202 168.706L975.202 169.169C975.202 169.424 975.331 170.3 975.489 171.116C975.648 171.932 975.778 173.079 975.778 173.663L975.778 174.727L974.937 175.627C973.981 176.648 972.746 178.903 972.253 180.527L971.945 181.543L970.832 181.585C969.825 181.623 969.72 181.602 969.72 181.356C969.72 181.207 969.866 181.018 970.045 180.936C970.528 180.716 973.002 177.282 973.421 176.249C973.98 174.874 973.99 174.181 973.484 171.962C973.166 170.568 972.951 169.93 972.715 169.679C972.441 169.387 972.381 169.139 972.338 168.117C972.31 167.449 972.264 166.903 972.236 166.903C972.208 166.903 971.225 167.134 970.051 167.418C967.594 168.012 965.914 168.162 964.398 167.925C963.379 167.766 963.315 167.773 962.993 168.075C962.808 168.249 962.62 168.624 962.575 168.909C962.53 169.194 962.365 169.969 962.207 170.631C961.967 171.642 961.937 172.108 962.018 173.516C962.071 174.44 962.201 175.367 962.306 175.575C962.522 176.003 964.811 178.2 965.457 178.6C965.744 178.777 965.938 178.817 966.052 178.722C966.262 178.548 966.691 178.696 966.691 178.943C966.691 179.043 966.925 179.592 967.211 180.163C967.496 180.734 967.697 181.234 967.657 181.274C967.528 181.403 966.78 180.935 966.276 180.411C965.951 180.073 965.562 179.85 965.111 179.741C964.537 179.604 964.224 179.369 963.077 178.217C962.331 177.468 961.671 176.855 961.61 176.855C961.548 176.855 961.498 177.49 961.498 178.265C961.498 179.318 961.441 179.758 961.27 180.002C961.106 180.237 961.069 180.486 961.139 180.899L961.235 181.471H960.069C959.005 181.471 958.902 181.446 958.902 181.187C958.902 181.032 959.034 180.833 959.195 180.747C959.356 180.661 959.674 180.334 959.9 180.022C960.285 179.491 960.319 179.329 960.412 177.613C960.492 176.133 960.469 175.675 960.296 175.268C960.138 174.9 960.099 174.432 960.148 173.538C960.211 172.413 960.158 172.091 959.512 169.649L958.807 166.986L958.097 166.612C957.707 166.407 957.15 166.073 956.86 165.872C956.36 165.525 956.202 165.501 953.903 165.422C951.761 165.349 951.222 165.277 949.347 164.814C948.177 164.525 947.161 164.325 947.089 164.369C947.017 164.414 946.611 164.289 946.187 164.091C945.763 163.894 945.273 163.731 945.098 163.731C944.472 163.728 940.96 162.465 940.706 162.151L940.458 161.845L939.042 162.141C938.264 162.305 937.27 162.539 936.833 162.663C935.052 163.167 932.256 163.064 930.4 162.426C929.635 162.163 929.411 162.222 929.836 162.574C929.954 162.672 930.197 162.988 930.377 163.277C930.676 163.758 930.709 164.02 930.775 166.425L930.847 169.048L931.606 170.139L932.364 171.23H931.947C931.594 171.23 931.439 171.09 930.933 170.313C930.265 169.288 930.153 168.831 929.852 165.914C929.718 164.613 929.583 163.918 929.437 163.772C929.245 163.579 929.228 163.625 929.288 164.183C929.326 164.528 929.253 165.976 929.126 167.4L928.896 169.989L929.45 170.573C930.843 172.045 931.212 172.473 931.287 172.703C931.332 172.839 931.206 173.463 931.008 174.089C930.81 174.716 930.476 176.049 930.266 177.051L929.884 178.873L930.266 179.555L930.647 180.238L929.954 180.84L929.261 181.443L929.17 180.653C929.027 179.399 928.84 179.418 928.375 180.733L927.962 181.897L927.313 181.977C926.956 182.021 926.453 182.083 926.195 182.115C925.938 182.148 925.729 182.129 925.732 182.075C925.735 182.02 926.076 181.747 926.489 181.468C927.344 180.89 927.484 180.642 928.323 178.207C929.016 176.198 929.011 176.125 927.946 173.427C927.059 171.18 926.955 171.05 925.675 170.583C924.742 170.243 924.571 170.123 924.278 169.601C924.028 169.157 923.942 168.769 923.934 168.063L923.924 167.119L923.419 167.136C923.137 167.146 922.276 167.465 921.472 167.857L920.029 168.561L916.834 168.556L913.639 168.55L913.928 169.277C914.087 169.677 914.403 170.483 914.63 171.069C914.857 171.656 915.273 172.52 915.553 172.991C915.984 173.714 916.063 173.98 916.063 174.706C916.063 175.287 916.174 175.832 916.408 176.39C916.738 177.177 917.793 180.811 917.793 181.16C917.793 181.27 917.45 181.326 916.784 181.326C916.228 181.326 915.774 181.291 915.774 181.247C915.774 181.203 915.878 180.968 916.004 180.723C916.169 180.404 916.207 180.097 916.138 179.637C915.984 178.612 915.066 175.977 914.617 175.268C914.39 174.911 914.039 174.1 913.837 173.465C913.568 172.621 913.118 171.773 912.159 170.302L910.848 168.293L909.836 170.519C909.279 171.743 908.775 173.036 908.716 173.393C908.657 173.75 908.433 174.477 908.218 175.008C908.003 175.539 907.762 176.383 907.683 176.883C907.536 177.804 907.278 178.901 906.883 180.281L906.666 181.038H905.523C904.894 181.038 904.379 180.985 904.379 180.921C904.379 180.857 904.633 180.614 904.944 180.38C905.445 180.003 905.588 179.74 906.231 178.009C906.932 176.121 906.952 176.026 906.876 174.9C906.804 173.844 906.832 173.67 907.18 172.983C907.391 172.567 907.823 171.151 908.139 169.836C908.791 167.129 908.838 167.374 907.536 166.69L906.87 166.34L905.588 166.609C904.884 166.756 903.96 166.954 903.537 167.049C903.113 167.143 902.27 167.197 901.662 167.169C900.651 167.123 900.414 167.047 898.879 166.277C897.053 165.361 896.589 164.937 895.23 162.936C894.825 162.341 894.373 161.853 894.129 161.747C893.901 161.649 893.207 161.224 892.586 160.804L891.457 160.039L890.453 160.504C887.41 161.912 884.117 161.902 880.651 160.473C880.461 160.395 880.57 160.59 880.971 161.047C881.738 161.92 882.118 162.929 882.469 165.027C882.621 165.939 882.785 166.783 882.833 166.902C882.881 167.021 882.941 167.476 882.967 167.912C883.008 168.606 883.103 169.045 883.554 170.633C883.641 170.941 883.622 170.959 883.354 170.815C882.745 170.489 882.483 169.771 882.072 167.3C881.803 165.682 881.623 164.936 881.525 165.033C881.394 165.164 881.138 168.011 881.131 169.403C881.128 170.063 881.333 170.307 882.995 171.629C883.65 172.149 884.185 172.665 884.185 172.775C884.185 172.886 883.958 174.008 883.68 175.268C883.37 176.679 883.176 177.949 883.176 178.571C883.176 179.517 883.204 179.608 883.627 180.003L884.079 180.426L883.745 181.02C883.365 181.697 883.191 181.752 882.886 181.29C882.51 180.724 882.345 179.99 882.482 179.493C882.552 179.239 882.59 178.363 882.568 177.546L882.527 176.062L882.069 176.936C881.301 178.406 880.42 180.635 880.284 181.454C880.213 181.882 880.137 182.246 880.115 182.264C879.977 182.375 878.852 182.428 878.693 182.33ZM793.89 169.866C796.203 169.301 798.447 167.741 799.679 165.841C800.618 164.395 801.595 161.421 801.132 161.421C801.047 161.421 800.653 162.022 800.256 162.756C798.437 166.119 796.104 168.571 793.746 169.598C792.156 170.29 792.156 170.29 793.89 169.866ZM935.823 162.575C936.086 162.491 935.925 162.456 935.226 162.445C933.358 162.417 930.632 161.691 929.053 160.801C927.797 160.094 926.461 159.112 925.415 158.128C924.793 157.543 924.283 157.152 924.282 157.259C924.281 157.367 924.246 157.584 924.204 157.743C924.142 157.979 924.254 158.082 924.819 158.31C925.531 158.596 926.155 159.076 927.94 160.706C929.032 161.704 929.878 162.11 931.685 162.502C932.66 162.714 935.247 162.76 935.823 162.575ZM986.477 161.522C987.006 161.32 987.612 161.041 987.822 160.903C988.357 160.553 988.032 160.401 986.841 160.448C986.098 160.476 985.846 160.429 985.609 160.215C985.342 159.974 985.221 159.963 984.393 160.107C982.75 160.393 980.935 160.452 979.096 160.279C978.104 160.185 977.163 160.076 977.004 160.036C976.758 159.973 976.771 160.014 977.092 160.307C977.496 160.677 980.145 161.618 981.421 161.845C981.848 161.921 982.943 161.962 983.856 161.936C985.209 161.898 985.691 161.822 986.477 161.522ZM939.967 161.623C939.919 161.575 939.795 161.57 939.691 161.611C939.576 161.657 939.61 161.691 939.778 161.698C939.93 161.705 940.015 161.671 939.967 161.623ZM887.905 161.049C888.517 160.923 889.499 160.62 890.088 160.376C891.057 159.974 891.125 159.919 890.809 159.805C890.617 159.736 890.394 159.594 890.315 159.489C890.196 159.333 889.937 159.348 888.872 159.572C887.089 159.946 883.624 159.874 881.981 159.428C880.691 159.077 878.744 158.199 877.767 157.527C877.399 157.274 877.065 157.098 877.026 157.138C876.987 157.177 876.995 157.428 877.046 157.695C877.127 158.127 877.249 158.234 878.145 158.659C878.7 158.922 879.361 159.319 879.614 159.541C880.196 160.052 881.495 160.597 882.887 160.915C883.482 161.051 884.034 161.183 884.113 161.208C884.545 161.347 886.946 161.246 887.905 161.049ZM837.739 159.709L838.389 159.605L837.451 159.494C836.673 159.401 833.654 158.878 832.258 158.593L831.898 158.52L832.258 158.739C833.503 159.496 836.148 159.964 837.739 159.709ZM843.906 159.174C844.373 159.038 844.308 158.92 843.657 158.716C843.152 158.559 842.994 158.574 842.323 158.843C841.904 159.011 841.4 159.205 841.201 159.275C840.783 159.421 843.386 159.324 843.906 159.174ZM869.683 153.969L869.782 153.367L868.977 153.267C868.109 153.158 867.742 153.312 867.742 153.783C867.742 153.947 867.914 154.101 868.21 154.201C868.468 154.288 868.841 154.484 869.039 154.636C869.456 154.957 869.534 154.875 869.683 153.969Z" fill="#5F432F"/>
<defs>
<linearGradient id="paint0_linear_49_14" x1="778.146" y1="126.432" x2="775.387" y2="279.898" gradientUnits="userSpaceOnUse">
<stop stop-color="#FFCC30"/>
<stop offset="0.19" stop-color="#EDB436"/>
<stop offset="0.34" stop-color="#E1A53A"/>
<stop offset="0.43" stop-color="#DD9C36"/>
<stop offset="0.56" stop-color="#D1842B"/>
<stop offset="0.74" stop-color="#BF5C1A"/>
<stop offset="0.78" stop-color="#BA5215"/>
<stop offset="0.83" stop-color="#B24F18"/>
<stop offset="0.91" stop-color="#9B4920"/>
<stop offset="1" stop-color="#793E2C"/>
</linearGradient>
<linearGradient id="paint1_linear_49_14" x1="761.05" y1="181.022" x2="759.5" y2="306.825" gradientUnits="userSpaceOnUse">
<stop stop-color="#FFCC30"/>
<stop offset="0.19" stop-color="#EDB436"/>
<stop offset="0.34" stop-color="#E1A53A"/>
<stop offset="0.43" stop-color="#DD9C36"/>
<stop offset="0.56" stop-color="#D1842B"/>
<stop offset="0.74" stop-color="#BF5C1A"/>
<stop offset="0.78" stop-color="#BA5215"/>
<stop offset="0.83" stop-color="#B24F18"/>
<stop offset="0.91" stop-color="#9B4920"/>
<stop offset="1" stop-color="#793E2C"/>
</linearGradient>
</defs>
</svg>
