<svg width="1412" height="361" viewBox="0 0 1412 361" fill="none" xmlns="http://www.w3.org/2000/svg">
<mask id="mask0_2_177" style="mask-type:alpha" maskUnits="userSpaceOnUse" x="0" y="0" width="1412" height="361">
<rect width="1412" height="361" rx="20" fill="#D9D9D9"/>
</mask>
<g mask="url(#mask0_2_177)">
<path d="M1412 126H0V466H1412V126Z" fill="url(#paint0_linear_2_177)"/>
<path d="M1195.38 273.9C1195.46 273.186 1195.45 272.508 1195.51 272.349C1195.57 272.19 1195.64 271.895 1195.1 271.954C1194.56 272.013 1194.16 272.037 1193.78 272.072C1193.47 272.11 1193.15 272.128 1192.84 272.125C1192.57 272.125 1192.59 271.931 1192.63 271.948C1192.67 271.966 1192.72 272.125 1192.91 271.948C1193.1 271.772 1193.25 271.718 1193.36 271.801C1193.59 271.889 1193.84 271.922 1194.08 271.895C1194.26 271.783 1194.46 271.718 1194.67 271.707C1195 271.731 1195.32 271.731 1195.65 271.707C1195.65 271.665 1195.21 271.176 1195.06 270.858C1194.99 270.724 1194.88 270.611 1194.75 270.529C1194.63 270.448 1194.48 270.4 1194.33 270.392C1194.09 270.392 1193.79 270.563 1193.62 270.392C1193.44 270.221 1193.37 269.803 1193.1 269.861C1193.02 269.886 1192.94 269.887 1192.86 269.864C1192.78 269.841 1192.71 269.795 1192.65 269.732C1192.47 269.596 1192.44 269.614 1192.1 269.814C1192.01 269.886 1191.9 269.935 1191.79 269.959C1191.68 269.982 1191.56 269.979 1191.44 269.95C1191.29 269.854 1191.14 269.75 1191 269.637C1191.14 269.673 1191.29 269.687 1191.44 269.679C1191.6 269.619 1191.77 269.571 1191.94 269.537C1192.18 269.484 1192.43 269.449 1192.68 269.431C1192.76 269.466 1192.99 269.702 1193.13 269.655C1193.2 269.627 1193.27 269.627 1193.34 269.655C1193.41 269.682 1193.46 269.735 1193.49 269.803C1193.54 269.9 1193.61 269.978 1193.71 270.024C1193.8 270.069 1193.91 270.079 1194.01 270.05C1194.1 270.014 1194.19 269.998 1194.28 270.005C1194.38 270.011 1194.47 270.038 1194.55 270.085C1194.68 270.162 1194.87 270.268 1195.04 270.162C1195.2 270.056 1194.95 269.048 1194.94 268.812C1194.92 268.576 1194.99 268.576 1194.64 268.547C1194.52 268.551 1194.41 268.514 1194.32 268.443C1194.23 268.372 1194.16 268.271 1194.14 268.158C1194.07 267.965 1194.02 267.768 1193.99 267.568C1193.94 267.362 1193.73 267.279 1193.67 267.232C1193.61 267.185 1193.58 267.073 1193.67 267.043C1193.77 267.014 1193.83 266.979 1193.84 266.896C1193.85 266.814 1193.82 266.59 1193.9 266.59C1193.97 266.59 1194.04 266.908 1194.13 267.097C1194.23 267.276 1194.29 267.478 1194.31 267.686C1194.31 267.957 1194.31 268.169 1194.42 268.24C1194.53 268.311 1194.94 268.435 1195.01 268.24C1195.09 268.046 1194.78 267.651 1194.82 267.474C1194.89 267.315 1194.91 267.142 1194.88 266.973C1194.85 266.825 1194.88 266.731 1194.97 266.672C1195.03 266.625 1195.08 266.565 1195.1 266.496C1195.13 266.427 1195.14 266.351 1195.14 266.277C1195.14 266.118 1195.14 266 1195.22 266C1195.3 266 1195.3 266.077 1195.41 266.13C1195.51 266.183 1195.54 266.295 1195.41 266.483C1195.27 266.672 1195.28 266.92 1195.17 266.92C1195.06 266.92 1195.04 267.055 1195.05 267.161C1195.12 267.466 1195.16 267.779 1195.17 268.093C1195.12 268.276 1195.3 268.73 1195.31 269.119C1195.32 269.399 1195.35 269.679 1195.43 269.95C1195.51 270.339 1195.48 270.339 1195.56 270.716C1195.63 271.094 1195.61 271.105 1195.76 271.235C1195.9 271.365 1196.01 271.471 1196.07 271.453C1196.25 271.145 1196.41 270.821 1196.54 270.486C1196.69 270.188 1196.79 269.868 1196.83 269.537C1196.92 269.15 1196.94 268.753 1196.91 268.358C1196.81 268.095 1196.77 267.814 1196.78 267.533C1196.78 267.332 1196.74 267.132 1196.67 266.943C1196.64 266.714 1196.68 266.48 1196.79 266.277C1196.86 266.136 1196.95 266.071 1197.05 266.118C1197.15 266.165 1197.14 266.324 1197.05 266.413C1196.98 266.467 1196.93 266.535 1196.89 266.613C1196.85 266.69 1196.83 266.775 1196.83 266.861C1196.83 267.067 1196.94 267.073 1196.99 267.45C1197.04 267.828 1197.35 268.582 1197.24 268.948C1197.13 269.313 1197.01 270.221 1196.95 270.31C1196.89 270.398 1196.79 270.486 1196.9 270.504C1197.1 270.481 1197.28 270.41 1197.44 270.299C1197.6 270.188 1197.73 270.04 1197.81 269.867C1198.05 269.36 1198.05 269.107 1198.4 268.989C1198.76 268.871 1198.87 268.73 1198.87 268.399C1198.87 268.069 1199.11 268.063 1199.14 268.24C1199.18 268.522 1199.13 268.809 1198.99 269.06C1198.86 269.266 1198.82 269.254 1198.6 269.313C1198.38 269.372 1198.29 269.791 1198.11 270.015C1197.94 270.239 1197.82 270.31 1197.93 270.363C1198.04 270.416 1198.45 270.233 1198.56 270.233C1198.68 270.233 1198.83 270.351 1198.94 270.233C1199.04 270.115 1198.91 269.997 1199.24 269.909C1199.58 269.82 1199.51 269.909 1199.83 269.909C1200.11 269.925 1200.39 269.989 1200.65 270.097C1200.86 270.168 1201.07 270.274 1200.97 270.374C1200.87 270.475 1200.73 270.604 1200.52 270.445C1200.28 270.317 1200.02 270.243 1199.75 270.227C1199.66 270.205 1199.58 270.207 1199.5 270.233C1199.41 270.259 1199.34 270.308 1199.29 270.374C1199.15 270.51 1199.2 270.787 1198.91 270.663C1198.62 270.539 1198.53 270.504 1198.32 270.581C1198.15 270.656 1197.97 270.67 1197.8 270.622C1197.61 270.581 1197.75 270.811 1197.8 270.993C1197.83 271.148 1197.89 271.293 1197.99 271.418C1198.05 271.621 1198.07 271.832 1198.07 272.043C1198.1 272.22 1198.21 272.279 1198.33 272.426C1198.44 272.573 1198.26 272.644 1198.08 272.603C1197.91 272.562 1197.79 272.385 1197.79 272.09C1197.81 271.848 1197.77 271.605 1197.67 271.382C1197.6 271.164 1197.54 270.942 1197.5 270.716C1197.44 270.587 1197.14 270.905 1196.96 270.893C1196.78 270.881 1196.84 270.893 1196.72 271.129C1196.6 271.365 1196.62 271.506 1196.72 271.595C1196.82 271.683 1196.96 271.671 1197.13 271.878C1197.3 272.084 1197.29 272.267 1197.13 272.208C1196.97 272.149 1196.93 271.937 1196.64 271.842C1196.35 271.748 1196.47 271.713 1196.3 271.978C1196.15 272.285 1196.07 272.621 1196.06 272.962C1196.06 273.181 1195.91 273.552 1195.98 273.782C1196 273.858 1196.03 273.932 1196.06 274H1195.33L1195.38 273.9Z" fill="#5F432F"/>
<path d="M452.36 295C452.62 292.67 452.59 290.43 452.78 289.92C452.97 289.41 453.23 288.42 451.45 288.62C449.67 288.82 448.37 288.88 447.11 289.01C446.077 289.121 445.038 289.161 444 289.13C443.12 289.13 443.19 288.5 443.32 288.55C443.45 288.6 443.61 289.14 444.23 288.55C444.85 287.96 445.33 287.8 445.62 288.06C446.398 288.366 447.242 288.466 448.07 288.35C448.654 287.992 449.316 287.783 450 287.74C451.068 287.823 452.142 287.823 453.21 287.74C453.27 287.62 451.75 286 451.21 284.96C450.968 284.526 450.622 284.159 450.203 283.892C449.784 283.625 449.305 283.466 448.81 283.43C448.03 283.43 447.06 283.99 446.48 283.43C445.9 282.87 445.67 281.59 444.79 281.68C444.531 281.761 444.253 281.765 443.992 281.69C443.731 281.616 443.497 281.466 443.32 281.26C442.72 280.81 442.62 280.87 441.52 281.52C440.42 282.17 439.64 282.14 439.35 281.98C439.06 281.82 438 281 438 281C438.467 281.116 438.949 281.159 439.43 281.13C439.967 280.926 440.519 280.762 441.08 280.64C441.882 280.476 442.694 280.362 443.51 280.3C443.77 280.42 444.51 281.2 444.97 281.03C445.194 280.937 445.446 280.936 445.671 281.028C445.896 281.12 446.075 281.297 446.17 281.52C446.311 281.84 446.563 282.097 446.879 282.246C447.195 282.395 447.554 282.425 447.89 282.33C448.172 282.217 448.477 282.17 448.78 282.193C449.083 282.215 449.377 282.307 449.64 282.46C450.09 282.72 450.71 283.08 451.26 282.72C451.81 282.36 451 279 450.93 278.24C450.86 277.48 451.13 277.46 449.93 277.36C449.556 277.371 449.189 277.252 448.893 277.022C448.598 276.792 448.391 276.466 448.31 276.1C448.107 275.495 447.943 274.877 447.82 274.25C447.66 273.57 446.98 273.31 446.82 273.15C446.66 272.99 446.5 272.63 446.82 272.53C447.14 272.43 447.34 272.31 447.38 272.05C447.42 271.79 447.31 270.91 447.54 270.94C447.77 270.97 448 272 448.24 272.6C448.587 273.182 448.799 273.835 448.86 274.51C448.86 275.39 448.79 276.1 449.22 276.33C449.65 276.56 450.9 276.97 451.06 276.39C451.22 275.81 450.29 274.54 450.45 273.86C450.646 273.333 450.711 272.767 450.64 272.21C450.51 271.72 450.54 271.43 450.93 271.21C451.13 271.059 451.291 270.862 451.399 270.636C451.507 270.41 451.559 270.161 451.55 269.91C451.55 269.39 451.55 269 451.84 269C452.13 269 452.1 269.26 452.46 269.42C452.82 269.58 452.91 269.97 452.52 270.59C452.13 271.21 452.1 272 451.74 272C451.38 272 451.29 272.46 451.32 272.82C451.573 273.801 451.714 274.807 451.74 275.82C451.58 276.44 452.17 277.93 452.2 279.19C452.188 280.136 452.295 281.081 452.52 282C452.78 283.28 452.72 283.28 452.94 284.51C453.16 285.74 453.14 285.81 453.59 286.23C454.04 286.65 454.44 287.01 454.59 286.95C455.181 285.932 455.689 284.869 456.11 283.77C456.62 282.774 456.958 281.699 457.11 280.59C457.11 279.68 457.67 278.16 457.28 276.83C456.957 275.961 456.814 275.036 456.86 274.11C456.85 273.428 456.728 272.753 456.5 272.11C456.409 271.341 456.586 270.564 457 269.91C457.22 269.45 457.51 269.23 457.84 269.39C458.17 269.55 458.13 270.07 457.84 270.39C457.619 270.564 457.439 270.786 457.315 271.039C457.19 271.291 457.124 271.568 457.12 271.85C457.19 272.53 457.48 272.56 457.64 273.79C457.8 275.02 458.81 277.52 458.45 278.72C458.09 279.92 457.71 282.9 457.51 283.2C457.31 283.5 457 283.78 457.35 283.84C457.988 283.775 458.598 283.547 459.123 283.18C459.648 282.812 460.07 282.317 460.35 281.74C461.13 280.08 461.13 279.24 462.2 278.85C463.27 278.46 463.73 278.01 463.73 276.85C463.73 275.69 464.5 275.75 464.63 276.34C464.734 277.257 464.56 278.184 464.13 279C463.67 279.68 463.54 279.64 462.83 279.84C462.12 280.04 461.83 281.4 461.24 282.14C460.65 282.88 460.24 283.14 460.63 283.28C461.02 283.42 462.34 282.85 462.7 282.85C463.06 282.85 463.58 283.24 463.93 282.85C464.28 282.46 463.83 282.08 464.93 281.78C466.03 281.48 465.8 281.78 466.87 281.78C467.784 281.837 468.682 282.043 469.53 282.39C470.24 282.62 470.92 282.98 470.6 283.3C470.524 283.421 470.422 283.524 470.303 283.602C470.183 283.68 470.048 283.732 469.907 283.754C469.766 283.776 469.622 283.767 469.484 283.728C469.347 283.69 469.219 283.622 469.11 283.53C468.329 283.109 467.466 282.863 466.58 282.81C466.311 282.735 466.026 282.741 465.761 282.829C465.495 282.916 465.262 283.08 465.09 283.3C464.64 283.75 464.76 284.66 463.82 284.24C462.88 283.82 462.6 283.78 462 284C461.472 284.236 460.878 284.282 460.32 284.13C459.67 284 460.16 284.75 460.25 285.36C460.351 285.867 460.563 286.345 460.87 286.76C461.19 287.31 461.03 288.21 461.13 288.76C461.23 289.31 461.62 289.54 461.97 290.02C462.32 290.5 461.78 290.74 461.19 290.61C460.6 290.48 460.19 289.89 460.19 288.92C460.26 288.123 460.126 287.321 459.8 286.59C459.598 285.865 459.447 285.126 459.35 284.38C459.15 283.96 458.18 285 457.6 284.97C457.02 284.94 457.21 284.97 456.79 285.74C456.37 286.51 456.46 286.98 456.79 287.27C457.12 287.56 457.6 287.53 458.15 288.21C458.7 288.89 458.67 289.47 458.15 289.28C457.63 289.09 457.47 288.4 456.53 288.08C455.59 287.76 455.98 287.66 455.43 288.53C454.936 289.54 454.67 290.646 454.65 291.77C454.65 292.49 454.15 293.77 454.37 294.46C454.59 295.15 454.65 295.18 454.65 295.18H452.2L452.36 295Z" fill="#5F432F"/>
<path d="M0 242C124.411 242 202.792 299.549 388.489 294.745C574.185 289.941 604.344 311.138 713.734 326.221C823.124 341.304 868.776 344.387 1013.96 338.371C1176.97 331.616 1199.4 351.573 1412.07 351.573V455H0V242Z" fill="url(#paint1_linear_2_177)"/>
<path d="M1740.07 217C1615.66 217 1537.28 274.549 1351.58 269.745C1165.89 264.941 1135.73 286.138 1026.34 301.221C916.947 316.304 871.295 319.387 726.11 313.371C563.098 306.616 540.672 326.573 328 326.573V430H1740.07V217Z" fill="url(#paint2_linear_2_177)"/>
<path d="M767 328.103C817.898 305.428 836.905 319.287 882.211 327.235C927.517 335.183 967.219 332.289 1007.56 320.203C1047.9 308.118 1073.85 296.249 1116.78 305.609C1159.71 314.969 1168 318.346 1189 314.45V399H767V328.103Z" fill="url(#paint3_linear_2_177)"/>
<path d="M0 341.059C294.992 288.83 355.452 285.098 621.205 314.67C886.957 344.242 982.34 343.164 1135.52 321.714C1312.02 296.991 1312.11 293 1412 293V371H0V341.059Z" fill="url(#paint4_linear_2_177)"/>
<path d="M0.065745 266L32.1578 271.535L43.5873 287.074L57.6971 288.811L64.0258 301.457L81.9634 297.481L98.61 311.622L114.235 313.834L121.496 343.559H130.89L136 353.348H69.9871L70.516 356.098L75.1684 358.221V362.958L62.7171 364.239L28.7694 361.857H0.065745V266Z" fill="url(#paint5_linear_2_177)"/>
<path d="M97.9646 329.794C97.9646 329.669 90.6228 328.898 90.6228 328.898L81.4345 314.569L55.2319 313.091L49.5396 356.08L56.3972 363.782L62.7171 364.221L75.1684 362.94V358.247L70.516 356.125L69.9512 353.348H104.213C102.447 346.605 97.9646 329.893 97.9646 329.794Z" fill="url(#paint6_linear_2_177)"/>
<path d="M66.9841 347.276V336.744L55.2319 313.091L57.6971 288.811L43.5873 287.074L32.1578 271.535L0.065745 266V361.857H28.7694L62.7171 364.239L75.1684 362.958V358.221L70.516 356.098L69.9871 353.348L71.511 350.259L66.9841 347.276Z" fill="url(#paint7_linear_2_177)"/>
<path d="M42.1799 297.427L55.2319 313.091L57.6971 288.811L43.5873 287.074L32.1578 271.535L23.7225 294.068L42.1799 297.427Z" fill="url(#paint8_linear_2_177)"/>
<path d="M55.2319 313.091L57.6971 288.811L43.5873 287.074L42.1799 297.427L55.2319 313.091Z" fill="url(#paint9_linear_2_177)"/>
<path d="M0.065745 266V289.062L9.40652 296.415L23.7225 294.068L32.1578 271.535L0.065745 266Z" fill="url(#paint10_linear_2_177)"/>
<path d="M23.7225 294.068L37.6171 325.191L42.1799 297.427L23.7225 294.068Z" fill="url(#paint11_linear_2_177)"/>
<path d="M0.065745 320.032L37.6171 325.191L23.7225 294.068L9.40652 296.415L0.065745 289.062V320.032Z" fill="url(#paint12_linear_2_177)"/>
<path d="M9.40652 296.451C9.40652 296.451 -0.61554 319.933 0.0298879 320.032C0.675316 320.13 23.6866 294.059 23.6866 294.059L9.40652 296.451Z" fill="url(#paint13_linear_2_177)"/>
<path d="M37.6171 325.191L64.1872 343.819L66.9841 336.744L55.2319 313.091L42.1799 297.427L37.6171 325.191Z" fill="url(#paint14_linear_2_177)"/>
<path d="M64.1872 343.819L66.9841 336.744V347.276L64.1872 343.819Z" fill="url(#paint15_linear_2_177)"/>
<path d="M66.9841 347.276L68.0329 350.438L71.511 350.259L66.9841 347.276Z" fill="url(#paint16_linear_2_177)"/>
<path d="M68.0329 350.438L69.9871 353.348L71.511 350.259L68.0329 350.438Z" fill="url(#paint17_linear_2_177)"/>
<path d="M69.9871 353.348L61.2111 360.63L70.516 356.098L69.9871 353.348Z" fill="url(#paint18_linear_2_177)"/>
<path d="M70.516 356.098L75.1684 358.221L61.9999 361.857L61.2111 360.63L70.516 356.098Z" fill="url(#paint19_linear_2_177)"/>
<path d="M62.7171 364.239L61.9999 361.857L75.1684 358.221V362.958L62.7171 364.239Z" fill="url(#paint20_linear_2_177)"/>
<path d="M66.9841 347.276L35.0354 352.104L37.6171 325.191L64.1872 343.819L66.9841 347.276Z" fill="url(#paint21_linear_2_177)"/>
<path d="M35.0354 352.104L68.0329 350.438L66.9841 347.276L35.0354 352.104Z" fill="url(#paint22_linear_2_177)"/>
<path d="M68.0329 350.438L69.9871 353.348L61.2111 360.63L35.0354 352.104L68.0329 350.438Z" fill="url(#paint23_linear_2_177)"/>
<path d="M0.065745 320.032L35.0354 352.104L37.6171 325.191L0.065745 320.032Z" fill="url(#paint24_linear_2_177)"/>
<path d="M61.2111 360.63L35.0354 352.104C35.0354 352.104 27.2544 356.77 18.8549 361.83H28.7694L62.7171 364.212L61.9999 361.83L61.2111 360.63Z" fill="url(#paint25_linear_2_177)"/>
<path d="M64.0258 301.457L55.2319 313.091L57.6971 288.811L64.0258 301.457Z" fill="url(#paint26_linear_2_177)"/>
<path d="M81.9634 297.481L55.2319 313.091L64.0258 301.457L81.9634 297.481Z" fill="url(#paint27_linear_2_177)"/>
<path d="M98.61 311.622L90.6228 328.934L81.4345 314.587L81.9634 297.481L98.61 311.622Z" fill="url(#paint28_linear_2_177)"/>
<path d="M81.9634 297.481L81.4345 314.587L55.2319 313.091L81.9634 297.481Z" fill="url(#paint29_linear_2_177)"/>
<path d="M114.235 313.834L97.9646 329.794L90.6228 328.934L98.61 311.622L114.235 313.834Z" fill="url(#paint30_linear_2_177)"/>
<path d="M114.235 313.834L121.496 343.559L104.249 353.348L97.9646 329.794L114.235 313.834Z" fill="url(#paint31_linear_2_177)"/>
<path d="M121.496 343.559L127.627 353.348L130.89 343.559H121.496Z" fill="url(#paint32_linear_2_177)"/>
<path d="M0.0298879 362.466C3.32874 349.927 32.122 325.45 32.122 325.45L0.0298879 364.875V362.466Z" fill="url(#paint33_linear_2_177)"/>
<path d="M0.0298879 362.466C24.7892 339.35 45.5057 332.615 45.5057 332.615C45.5057 332.615 20.1905 347.706 0.0298879 366.827V362.466Z" fill="url(#paint34_linear_2_177)"/>
<path d="M0.0298879 366.827C0.0298879 366.827 25.587 353.931 42.162 320.032C33.888 351.083 0.0298879 372.076 0.0298879 372.076V366.827Z" fill="url(#paint35_linear_2_177)"/>
<path d="M0.0298879 372.076C0.0298879 372.076 29.0383 343.918 54.461 337.004C54.461 337.004 8.41148 363.872 0.065745 377.449L0.0298879 372.076Z" fill="url(#paint36_linear_2_177)"/>
<path d="M0.0298879 374.637C0.0298879 374.637 41.7496 362.197 67.5936 334.72C53.4839 361.83 0.0298879 378.121 0.0298879 378.121V374.637Z" fill="url(#paint37_linear_2_177)"/>
<path d="M0.0298879 378.121C17.5909 363.057 41.2655 352.229 63.5507 351.808C24.601 358.973 0.0298879 383.808 0.0298879 383.808V378.121Z" fill="url(#paint38_linear_2_177)"/>
<path d="M0.0298879 380.396C0.0298879 380.396 30.9387 376.348 59.5885 358.48C34.0941 380.208 0.0298879 384.748 0.0298879 384.748V380.396Z" fill="url(#paint39_linear_2_177)"/>
<path d="M0.0298879 360.218C0.0298879 333.17 22.7812 313.834 22.7812 313.834C22.7812 313.834 3.01499 339.44 0.0298879 360.218Z" fill="url(#paint40_linear_2_177)"/>
<path d="M0.0298879 343.819C0.0298879 356.017 11.54 357.092 12.6516 363.621C13.7632 370.15 7.83777 377.44 19.7513 382.742C31.6648 388.044 34.2824 390.543 36.2276 395.128C38.1729 399.714 54.4968 398.953 54.4968 398.953H0.0298879V343.819Z" fill="url(#paint41_linear_2_177)"/>
<path d="M0 41.1322C539.215 7.14819 709.773 125.496 1412 125.496V173.863C1412 173.863 1220.79 184.24 828.265 142.423C302.278 86.4342 0 230.002 0 230.002V41.1322Z" fill="url(#paint42_linear_2_177)"/>
</g>
<defs>
<linearGradient id="paint0_linear_2_177" x1="706" y1="346.608" x2="706" y2="189.631" gradientUnits="userSpaceOnUse">
<stop offset="0.01" stop-color="#FFF2DC"/>
<stop offset="0.31" stop-color="#FFD182"/>
<stop offset="0.85" stop-color="#FFCD77"/>
<stop offset="1" stop-color="#FFC259"/>
</linearGradient>
<linearGradient id="paint1_linear_2_177" x1="731.278" y1="294.875" x2="721.041" y2="415.447" gradientUnits="userSpaceOnUse">
<stop stop-color="#FFCC30"/>
<stop offset="0.19" stop-color="#EDB436"/>
<stop offset="0.34" stop-color="#E1A53A"/>
<stop offset="0.43" stop-color="#DD9C36"/>
<stop offset="0.56" stop-color="#D1842B"/>
<stop offset="0.74" stop-color="#BF5C1A"/>
<stop offset="0.78" stop-color="#BA5215"/>
<stop offset="0.83" stop-color="#B24F18"/>
<stop offset="0.91" stop-color="#9B4920"/>
<stop offset="1" stop-color="#793E2C"/>
</linearGradient>
<linearGradient id="paint2_linear_2_177" x1="1008.79" y1="269.875" x2="1019.03" y2="390.447" gradientUnits="userSpaceOnUse">
<stop stop-color="#FFCC30"/>
<stop offset="0.19" stop-color="#EDB436"/>
<stop offset="0.34" stop-color="#E1A53A"/>
<stop offset="0.43" stop-color="#DD9C36"/>
<stop offset="0.56" stop-color="#D1842B"/>
<stop offset="0.74" stop-color="#BF5C1A"/>
<stop offset="0.78" stop-color="#BA5215"/>
<stop offset="0.83" stop-color="#B24F18"/>
<stop offset="0.91" stop-color="#9B4920"/>
<stop offset="1" stop-color="#793E2C"/>
</linearGradient>
<linearGradient id="paint3_linear_2_177" x1="979.115" y1="276.243" x2="977.562" y2="353.049" gradientUnits="userSpaceOnUse">
<stop stop-color="#FFCC30"/>
<stop offset="0.19" stop-color="#EDB436"/>
<stop offset="0.34" stop-color="#E1A53A"/>
<stop offset="0.43" stop-color="#DD9C36"/>
<stop offset="0.56" stop-color="#D1842B"/>
<stop offset="0.74" stop-color="#BF5C1A"/>
<stop offset="0.78" stop-color="#BA5215"/>
<stop offset="0.83" stop-color="#B24F18"/>
<stop offset="0.91" stop-color="#9B4920"/>
<stop offset="1" stop-color="#793E2C"/>
</linearGradient>
<linearGradient id="paint4_linear_2_177" x1="710.716" y1="292.022" x2="709.056" y2="417.823" gradientUnits="userSpaceOnUse">
<stop stop-color="#FFCC30"/>
<stop offset="0.19" stop-color="#EDB436"/>
<stop offset="0.34" stop-color="#E1A53A"/>
<stop offset="0.43" stop-color="#DD9C36"/>
<stop offset="0.56" stop-color="#D1842B"/>
<stop offset="0.74" stop-color="#BF5C1A"/>
<stop offset="0.78" stop-color="#BA5215"/>
<stop offset="0.83" stop-color="#B24F18"/>
<stop offset="0.91" stop-color="#9B4920"/>
<stop offset="1" stop-color="#793E2C"/>
</linearGradient>
<linearGradient id="paint5_linear_2_177" x1="60.7534" y1="345.989" x2="82.6284" y2="311.529" gradientUnits="userSpaceOnUse">
<stop stop-color="#5B4C3D"/>
<stop offset="1" stop-color="#EAA64D"/>
</linearGradient>
<linearGradient id="paint6_linear_2_177" x1="5.81997" y1="332.512" x2="182.002" y2="332.512" gradientUnits="userSpaceOnUse">
<stop stop-color="#151322"/>
<stop offset="0.46" stop-color="#3F3427"/>
<stop offset="0.58" stop-color="#423628"/>
<stop offset="0.66" stop-color="#4B3C2A"/>
<stop offset="0.73" stop-color="#5B472E"/>
<stop offset="0.8" stop-color="#715633"/>
<stop offset="0.86" stop-color="#8E693A"/>
<stop offset="0.92" stop-color="#B28042"/>
<stop offset="0.98" stop-color="#DB9C4B"/>
<stop offset="1" stop-color="#EAA64F"/>
</linearGradient>
<linearGradient id="paint7_linear_2_177" x1="58.1303" y1="339.296" x2="10.4508" y2="405.654" gradientUnits="userSpaceOnUse">
<stop stop-color="#5B4C3D"/>
<stop offset="1" stop-color="#EAA64D"/>
</linearGradient>
<linearGradient id="paint8_linear_2_177" x1="13.3129" y1="333.532" x2="104.761" y2="331.286" gradientUnits="userSpaceOnUse">
<stop stop-color="#5B4C3D"/>
<stop offset="1" stop-color="#EAA64D"/>
</linearGradient>
<linearGradient id="paint9_linear_2_177" x1="22.9417" y1="368.508" x2="81.6801" y2="214.398" gradientUnits="userSpaceOnUse">
<stop stop-color="#5B4C3D"/>
<stop offset="1" stop-color="#EAA64D"/>
</linearGradient>
<linearGradient id="paint10_linear_2_177" x1="6.76201" y1="366.102" x2="147.195" y2="248.068" gradientUnits="userSpaceOnUse">
<stop stop-color="#5B4C3D"/>
<stop offset="1" stop-color="#EAA64D"/>
</linearGradient>
<linearGradient id="paint11_linear_2_177" x1="-5.08596" y1="388.743" x2="42.4721" y2="247.203" gradientUnits="userSpaceOnUse">
<stop stop-color="#5B4C3D"/>
<stop offset="1" stop-color="#EAA64D"/>
</linearGradient>
<linearGradient id="paint12_linear_2_177" x1="45.4199" y1="377.636" x2="164.053" y2="147.762" gradientUnits="userSpaceOnUse">
<stop stop-color="#5B4C3D"/>
<stop offset="1" stop-color="#EAA64D"/>
</linearGradient>
<linearGradient id="paint13_linear_2_177" x1="67.9571" y1="366.895" x2="68.611" y2="251.828" gradientUnits="userSpaceOnUse">
<stop stop-color="#5B4C3D"/>
<stop offset="1" stop-color="#EAA64D"/>
</linearGradient>
<linearGradient id="paint14_linear_2_177" x1="93.3651" y1="435.896" x2="72.0388" y2="273.962" gradientUnits="userSpaceOnUse">
<stop stop-color="#5B4C3D"/>
<stop offset="1" stop-color="#EAA64D"/>
</linearGradient>
<linearGradient id="paint15_linear_2_177" x1="194.846" y1="271.994" x2="183.962" y2="405.867" gradientUnits="userSpaceOnUse">
<stop stop-color="#5B4C3D"/>
<stop offset="1" stop-color="#EAA64D"/>
</linearGradient>
<linearGradient id="paint16_linear_2_177" x1="-0.269307" y1="332.312" x2="136" y2="332.312" gradientUnits="userSpaceOnUse">
<stop stop-color="#5B4C3D"/>
<stop offset="1" stop-color="#EAA64D"/>
</linearGradient>
<linearGradient id="paint17_linear_2_177" x1="75.7113" y1="301.081" x2="120.865" y2="453.899" gradientUnits="userSpaceOnUse">
<stop stop-color="#5B4C3D"/>
<stop offset="1" stop-color="#EAA64D"/>
</linearGradient>
<linearGradient id="paint18_linear_2_177" x1="85.4258" y1="323.421" x2="158.468" y2="303.12" gradientUnits="userSpaceOnUse">
<stop stop-color="#5B4C3D"/>
<stop offset="1" stop-color="#EAA64D"/>
</linearGradient>
<linearGradient id="paint19_linear_2_177" x1="0" y1="332.397" x2="136" y2="332.397" gradientUnits="userSpaceOnUse">
<stop stop-color="#5B4C3D"/>
<stop offset="1" stop-color="#EAA64D"/>
</linearGradient>
<linearGradient id="paint20_linear_2_177" x1="68.0463" y1="403.75" x2="68.0463" y2="146.656" gradientUnits="userSpaceOnUse">
<stop stop-color="#5B4C3D"/>
<stop offset="1" stop-color="#EAA64D"/>
</linearGradient>
<linearGradient id="paint21_linear_2_177" x1="55.56" y1="353.988" x2="273.771" y2="51.4366" gradientUnits="userSpaceOnUse">
<stop stop-color="#5B4C3D"/>
<stop offset="1" stop-color="#EAA64D"/>
</linearGradient>
<linearGradient id="paint22_linear_2_177" x1="0" y1="332.377" x2="136" y2="332.377" gradientUnits="userSpaceOnUse">
<stop stop-color="#5B4C3D"/>
<stop offset="1" stop-color="#EAA64D"/>
</linearGradient>
<linearGradient id="paint23_linear_2_177" x1="78.098" y1="301.412" x2="180.668" y2="317.569" gradientUnits="userSpaceOnUse">
<stop stop-color="#5B4C3D"/>
<stop offset="1" stop-color="#EAA64D"/>
</linearGradient>
<linearGradient id="paint24_linear_2_177" x1="-4.09071" y1="258.609" x2="249.129" y2="379.47" gradientUnits="userSpaceOnUse">
<stop stop-color="#5B4C3D"/>
<stop offset="1" stop-color="#EAA64D"/>
</linearGradient>
<linearGradient id="paint25_linear_2_177" x1="-0.138974" y1="332.697" x2="136" y2="332.697" gradientUnits="userSpaceOnUse">
<stop stop-color="#5B4C3D"/>
<stop offset="1" stop-color="#EAA64D"/>
</linearGradient>
<linearGradient id="paint26_linear_2_177" x1="61.6922" y1="341.208" x2="58.233" y2="226.081" gradientUnits="userSpaceOnUse">
<stop stop-color="#5B4C3D"/>
<stop offset="1" stop-color="#EAA64D"/>
</linearGradient>
<linearGradient id="paint27_linear_2_177" x1="200.351" y1="219.606" x2="-392.19" y2="373.979" gradientUnits="userSpaceOnUse">
<stop stop-color="#5B4C3D"/>
<stop offset="1" stop-color="#EAA64D"/>
</linearGradient>
<linearGradient id="paint28_linear_2_177" x1="144.589" y1="396.69" x2="87.0621" y2="226.056" gradientUnits="userSpaceOnUse">
<stop stop-color="#5B4C3D"/>
<stop offset="1" stop-color="#EAA64D"/>
</linearGradient>
<linearGradient id="paint29_linear_2_177" x1="50.0765" y1="366.272" x2="400.031" y2="306.242" gradientUnits="userSpaceOnUse">
<stop stop-color="#5B4C3D"/>
<stop offset="1" stop-color="#EAA64D"/>
</linearGradient>
<linearGradient id="paint30_linear_2_177" x1="11.7722" y1="365.897" x2="378.47" y2="130.817" gradientUnits="userSpaceOnUse">
<stop stop-color="#5B4C3D"/>
<stop offset="1" stop-color="#EAA64D"/>
</linearGradient>
<linearGradient id="paint31_linear_2_177" x1="13.7813" y1="394.086" x2="67.5613" y2="244.09" gradientUnits="userSpaceOnUse">
<stop stop-color="#5B4C3D"/>
<stop offset="1" stop-color="#EAA64D"/>
</linearGradient>
<linearGradient id="paint32_linear_2_177" x1="211.008" y1="401.312" x2="11.5731" y2="243.114" gradientUnits="userSpaceOnUse">
<stop stop-color="#5B4C3D"/>
<stop offset="1" stop-color="#EAA64D"/>
</linearGradient>
<linearGradient id="paint33_linear_2_177" x1="1.06369" y1="386.522" x2="110.026" y2="236.283" gradientUnits="userSpaceOnUse">
<stop stop-color="#212E38"/>
<stop offset="0.4" stop-color="#7E8B60"/>
<stop offset="1" stop-color="#FFDB50"/>
</linearGradient>
<linearGradient id="paint34_linear_2_177" x1="15.9511" y1="370.59" x2="162.229" y2="298.591" gradientUnits="userSpaceOnUse">
<stop stop-color="#212E38"/>
<stop offset="0.4" stop-color="#7E8B60"/>
<stop offset="1" stop-color="#FFDB50"/>
</linearGradient>
<linearGradient id="paint35_linear_2_177" x1="51.8247" y1="354.117" x2="123.817" y2="249.404" gradientUnits="userSpaceOnUse">
<stop stop-color="#212E38"/>
<stop offset="0.4" stop-color="#7E8B60"/>
<stop offset="1" stop-color="#FFDB50"/>
</linearGradient>
<linearGradient id="paint36_linear_2_177" x1="13.6627" y1="371.022" x2="153.277" y2="304.838" gradientUnits="userSpaceOnUse">
<stop stop-color="#212E38"/>
<stop offset="0.4" stop-color="#7E8B60"/>
<stop offset="1" stop-color="#FFDB50"/>
</linearGradient>
<linearGradient id="paint37_linear_2_177" x1="57.002" y1="348.912" x2="152.955" y2="302.723" gradientUnits="userSpaceOnUse">
<stop stop-color="#212E38"/>
<stop offset="0.4" stop-color="#7E8B60"/>
<stop offset="1" stop-color="#FFDB50"/>
</linearGradient>
<linearGradient id="paint38_linear_2_177" x1="35.9673" y1="368.142" x2="156.164" y2="320.46" gradientUnits="userSpaceOnUse">
<stop stop-color="#212E38"/>
<stop offset="0.4" stop-color="#7E8B60"/>
<stop offset="1" stop-color="#FFDB50"/>
</linearGradient>
<linearGradient id="paint39_linear_2_177" x1="11.6267" y1="385.396" x2="157.835" y2="360.374" gradientUnits="userSpaceOnUse">
<stop stop-color="#212E38"/>
<stop offset="0.4" stop-color="#7E8B60"/>
<stop offset="1" stop-color="#FFDB50"/>
</linearGradient>
<linearGradient id="paint40_linear_2_177" x1="-0.160754" y1="373.268" x2="48.0891" y2="237.592" gradientUnits="userSpaceOnUse">
<stop stop-color="#212E38"/>
<stop offset="0.4" stop-color="#7E8B60"/>
<stop offset="1" stop-color="#FFDB50"/>
</linearGradient>
<linearGradient id="paint41_linear_2_177" x1="6.6007" y1="395.827" x2="39.8046" y2="356.444" gradientUnits="userSpaceOnUse">
<stop stop-color="#212E38"/>
<stop offset="0.4" stop-color="#7E8B60"/>
<stop offset="1" stop-color="#FFDB50"/>
</linearGradient>
<linearGradient id="paint42_linear_2_177" x1="706" y1="186.423" x2="706" y2="38.0373" gradientUnits="userSpaceOnUse">
<stop stop-color="#FFD286"/>
<stop offset="0.553159" stop-color="#FFCF7D"/>
<stop offset="1" stop-color="#FFBF54"/>
</linearGradient>
</defs>
</svg>
