<svg width="222" height="135" viewBox="0 0 222 135" fill="none" xmlns="http://www.w3.org/2000/svg">
<g clip-path="url(#clip0_2_124)">
<mask id="mask0_2_124" style="mask-type:luminance" maskUnits="userSpaceOnUse" x="0" y="0" width="222" height="135">
<path d="M222 0H0V135H222V0Z" fill="white"/>
</mask>
<g mask="url(#mask0_2_124)">
<path d="M36.6097 87.9151C25.3009 76.9223 0 72.6742 0 72.6742V19.5628L44.2648 0L86.4218 18.7373V73.4527C86.4218 73.4527 60.8332 77.0499 49.6582 87.9151L43.1339 94.2638L36.6097 87.9151Z" fill="#AA772B"/>
<path d="M44.4049 11.6235L6.69116 28.3006V54.2724C22.2357 54.2724 35.4114 59.0977 43.2138 66.6946C51.0229 59.0574 64.2388 54.2724 79.8703 54.2724V27.3879L44.4049 11.6235ZM75.1862 42.3133L44.3581 28.6562L11.3753 43.2528V37.9377L44.3715 23.3545L75.1862 37.025V42.3133ZM79.8703 59.5406V64.2384C61.2677 64.2384 45.5492 73.0634 45.5492 83.5059H40.8651C40.8651 73.0634 25.1465 64.2384 6.54395 64.2384V59.5406C23.6209 59.5406 37.807 65.9564 43.2071 75.164C48.6072 65.9564 62.7934 59.5406 79.8703 59.5406Z" fill="#231F20"/>
<path d="M115.035 133.457V122.96H113.844V127.745H107.534V122.96H106.336V133.457H107.534V128.779H113.844V133.457H115.035Z" fill="#231F20"/>
<path d="M126.732 133.456V127.235C126.753 126.426 126.569 125.625 126.197 124.906C125.853 124.27 125.329 123.75 124.691 123.41C123.959 123.065 123.159 122.886 122.349 122.886C121.54 122.886 120.74 123.065 120.007 123.41C119.37 123.75 118.846 124.27 118.502 124.906C118.13 125.625 117.946 126.426 117.966 127.235V133.456H119.164V130.396H125.535V133.456H126.732ZM119.164 129.376V127.235C119.137 126.792 119.197 126.348 119.342 125.929C119.487 125.51 119.713 125.123 120.007 124.792C120.655 124.221 121.487 123.906 122.349 123.906C123.211 123.906 124.044 124.221 124.691 124.792C124.986 125.123 125.212 125.51 125.357 125.929C125.502 126.348 125.562 126.792 125.535 127.235V129.376H119.164Z" fill="#231F20"/>
<path d="M132.3 133.349C132.132 133.535 131.924 133.68 131.692 133.775C131.461 133.869 131.211 133.909 130.961 133.893C130.541 133.887 130.13 133.777 129.763 133.571C129.343 133.336 128.973 133.022 128.673 132.645L128.077 133.517C128.424 133.968 128.862 134.341 129.362 134.611C129.854 134.872 130.404 135.006 130.961 135C131.364 135.023 131.767 134.961 132.145 134.819C132.523 134.677 132.867 134.458 133.156 134.175C133.719 133.533 134.006 132.693 133.952 131.839V122.96H129.021V124.007H132.755V131.806C132.793 132.36 132.626 132.91 132.286 133.349" fill="#231F20"/>
<path d="M139.519 133.349C139.351 133.535 139.144 133.68 138.912 133.775C138.68 133.869 138.43 133.909 138.181 133.893C137.761 133.886 137.35 133.776 136.983 133.571C136.563 133.336 136.192 133.022 135.892 132.645L135.297 133.517C135.644 133.968 136.082 134.341 136.582 134.611C137.074 134.872 137.624 135.006 138.181 135C138.585 135.023 138.989 134.962 139.368 134.82C139.747 134.677 140.093 134.458 140.382 134.175C140.941 133.53 141.225 132.691 141.172 131.839V122.96H136.24V124.007H139.974V131.806C140.013 132.36 139.846 132.91 139.506 133.349" fill="#231F20"/>
<path d="M147.422 129.255C147.152 129.664 147.014 130.147 147.027 130.638C147.019 131.159 147.166 131.671 147.449 132.108C147.73 132.539 148.117 132.89 148.573 133.128C149.056 133.381 149.594 133.51 150.139 133.503C150.82 133.501 151.488 133.316 152.073 132.967C152.57 132.681 153.021 132.321 153.411 131.899C153.953 132.436 154.529 133 155.171 133.618L155.78 133.02L153.906 131.222C154.39 130.564 154.792 129.85 155.104 129.094L154.314 128.537C154.031 129.244 153.674 129.918 153.25 130.551L152.936 130.242C152.133 129.45 151.45 128.745 150.928 128.128L150.674 127.839C151.116 127.611 151.537 127.369 151.932 127.114C152.316 126.88 152.652 126.575 152.923 126.215C153.183 125.855 153.317 125.418 153.304 124.974C153.311 124.593 153.204 124.219 152.996 123.9C152.786 123.58 152.492 123.325 152.146 123.162C151.752 122.973 151.319 122.879 150.882 122.886C150.418 122.876 149.959 122.977 149.543 123.182C149.18 123.362 148.872 123.638 148.653 123.98C148.438 124.326 148.326 124.727 148.332 125.135C148.34 125.55 148.434 125.959 148.606 126.336C148.821 126.801 149.09 127.238 149.409 127.638C149.066 127.819 148.733 128.021 148.412 128.242C148.025 128.507 147.689 128.842 147.422 129.228M149.717 124.068C149.873 123.92 150.058 123.806 150.259 123.733C150.46 123.659 150.674 123.627 150.888 123.638C151.279 123.617 151.664 123.749 151.959 124.007C152.091 124.133 152.194 124.285 152.262 124.454C152.33 124.623 152.362 124.805 152.354 124.987C152.362 125.368 152.225 125.737 151.972 126.021C151.689 126.334 151.354 126.598 150.982 126.799C150.734 126.947 150.46 127.081 150.186 127.222C150.006 126.984 149.841 126.735 149.691 126.477C149.436 126.074 149.293 125.611 149.276 125.135C149.271 124.938 149.309 124.742 149.385 124.561C149.461 124.379 149.574 124.216 149.717 124.081M149.383 128.584C149.557 128.477 149.744 128.383 149.925 128.282C150.192 128.598 150.48 128.953 150.815 129.275C151.363 129.853 151.992 130.504 152.708 131.215L152.749 131.255C152.463 131.587 152.135 131.878 151.772 132.121C151.303 132.439 150.751 132.611 150.186 132.618C149.806 132.623 149.431 132.533 149.095 132.356C148.774 132.189 148.503 131.939 148.312 131.631C148.111 131.307 148.008 130.932 148.018 130.551C148.006 130.141 148.141 129.741 148.399 129.423C148.679 129.091 149.011 128.808 149.383 128.584Z" fill="#231F20"/>
<path d="M168.347 128.913C168.354 129.534 168.202 130.147 167.905 130.692C167.62 131.218 167.199 131.658 166.687 131.967C166.145 132.29 165.524 132.457 164.894 132.45C164.377 132.459 163.867 132.324 163.422 132.061C162.991 131.802 162.64 131.431 162.404 130.987C162.156 130.504 162.032 129.966 162.043 129.423V122.96H160.845V129.672C160.834 130.372 160.997 131.064 161.32 131.685C161.632 132.26 162.095 132.738 162.659 133.067C163.231 133.401 163.884 133.57 164.546 133.557C165.354 133.568 166.152 133.37 166.861 132.98C167.487 132.632 168.01 132.122 168.373 131.504V133.47H169.571V122.96H168.373L168.347 128.913Z" fill="#231F20"/>
<path d="M184.018 123.98C184.492 123.974 184.957 124.107 185.357 124.363C185.748 124.623 186.064 124.982 186.274 125.403C186.51 125.882 186.627 126.412 186.615 126.947V133.456H187.826V126.712C187.841 126.014 187.687 125.323 187.378 124.698C187.094 124.149 186.669 123.686 186.146 123.356C185.611 123.029 184.993 122.861 184.366 122.873C183.623 122.86 182.891 123.048 182.245 123.417C181.634 123.78 181.134 124.305 180.8 124.933C180.74 125.044 180.686 125.158 180.639 125.276C180.575 125.08 180.497 124.889 180.405 124.705C180.126 124.155 179.702 123.691 179.18 123.363C178.645 123.035 178.028 122.868 177.4 122.88C176.653 122.865 175.916 123.053 175.266 123.423C174.696 123.764 174.222 124.244 173.887 124.819V122.88H172.696V133.45H173.887V127.161C173.912 126.647 174.044 126.144 174.276 125.685C174.533 125.178 174.918 124.748 175.393 124.437C175.875 124.125 176.439 123.964 177.012 123.974C177.497 123.963 177.974 124.096 178.384 124.356C178.78 124.613 179.099 124.973 179.308 125.396C179.544 125.876 179.661 126.405 179.649 126.94V133.45H180.853V127.41C180.845 126.801 180.986 126.2 181.262 125.658C181.514 125.15 181.898 124.719 182.372 124.41C182.857 124.098 183.423 123.937 183.998 123.947" fill="#231F20"/>
<path d="M198.86 126.47C198.887 125.985 198.804 125.5 198.617 125.051C198.431 124.603 198.145 124.202 197.783 123.88C196.911 123.218 195.83 122.891 194.738 122.96H190.757V133.456H191.955V130.101H194.725C194.952 130.101 195.16 130.101 195.394 130.061L197.609 133.463H198.947L196.465 129.866C196.943 129.724 197.385 129.481 197.763 129.155C198.129 128.814 198.415 128.397 198.601 127.933C198.787 127.469 198.869 126.97 198.84 126.47M196.92 128.41C196.288 128.887 195.508 129.125 194.718 129.081H191.935V124.027H194.725C195.509 123.981 196.285 124.203 196.926 124.658C197.192 124.885 197.402 125.172 197.538 125.495C197.674 125.817 197.732 126.167 197.709 126.517C197.733 126.875 197.675 127.233 197.539 127.564C197.403 127.896 197.194 128.192 196.926 128.43" fill="#231F20"/>
<path d="M210.116 133.457V127.235C210.135 126.427 209.953 125.627 209.587 124.907C209.24 124.27 208.714 123.75 208.075 123.41C207.342 123.064 206.542 122.885 205.733 122.885C204.923 122.885 204.123 123.064 203.39 123.41C202.75 123.748 202.223 124.269 201.878 124.907C201.509 125.626 201.327 126.427 201.35 127.235V133.457H202.541V130.396H208.911V133.457H210.116ZM202.547 129.376V127.235C202.521 126.792 202.582 126.348 202.728 125.929C202.874 125.509 203.101 125.123 203.397 124.793C204.044 124.22 204.877 123.904 205.739 123.904C206.602 123.904 207.435 124.22 208.081 124.793C208.376 125.124 208.602 125.51 208.747 125.929C208.892 126.349 208.952 126.793 208.924 127.235V129.376H202.547Z" fill="#231F20"/>
<path d="M221.732 133.457V122.96H220.541V127.745H214.231V122.96H213.033V133.457H214.231V128.779H220.541V133.457H221.732Z" fill="#231F20"/>
<path d="M108.985 106.075H107.734C105.807 107.693 104.85 109.29 104.85 110.874C104.841 111.465 104.994 112.048 105.292 112.558C105.585 113.054 106.015 113.455 106.53 113.712C107.104 113.994 107.737 114.135 108.376 114.122C109.017 114.14 109.652 113.997 110.223 113.706C110.742 113.437 111.176 113.027 111.473 112.522C111.77 112.018 111.919 111.439 111.903 110.853C111.903 109.279 110.942 107.686 109.019 106.075M110.859 110.853C110.869 111.245 110.762 111.631 110.551 111.961C110.341 112.282 110.044 112.535 109.695 112.692C109.274 112.878 108.816 112.968 108.356 112.954C107.896 112.967 107.439 112.878 107.018 112.692C106.666 112.536 106.367 112.283 106.155 111.961C105.946 111.637 105.839 111.259 105.847 110.874C105.867 110.259 106.052 109.661 106.382 109.142C106.839 108.424 107.405 107.783 108.062 107.243H108.644C109.284 107.786 109.836 108.425 110.284 109.135C110.617 109.648 110.804 110.242 110.826 110.853" fill="#231F20"/>
<path d="M108.685 103.19C108.553 103.326 108.479 103.509 108.479 103.7C108.479 103.89 108.553 104.073 108.685 104.21C108.752 104.275 108.832 104.327 108.919 104.361C109.007 104.396 109.1 104.413 109.194 104.411C109.287 104.414 109.379 104.398 109.466 104.363C109.552 104.329 109.63 104.276 109.695 104.21C109.796 104.11 109.865 103.982 109.893 103.843C109.921 103.703 109.908 103.559 109.854 103.427C109.8 103.296 109.709 103.183 109.591 103.104C109.474 103.024 109.335 102.982 109.194 102.981C109.099 102.981 109.006 102.999 108.919 103.035C108.831 103.07 108.752 103.123 108.685 103.19Z" fill="#231F20"/>
<path d="M106.999 103.19C106.866 103.326 106.792 103.509 106.792 103.7C106.792 103.89 106.866 104.073 106.999 104.21C107.063 104.275 107.14 104.327 107.225 104.362C107.31 104.397 107.402 104.413 107.494 104.411C107.589 104.416 107.684 104.401 107.773 104.366C107.862 104.331 107.942 104.278 108.009 104.21C108.11 104.11 108.178 103.982 108.207 103.843C108.235 103.703 108.221 103.559 108.167 103.427C108.114 103.296 108.022 103.183 107.905 103.104C107.787 103.024 107.649 102.982 107.507 102.981C107.413 102.981 107.319 102.999 107.232 103.035C107.145 103.07 107.065 103.123 106.999 103.19Z" fill="#231F20"/>
<path d="M164.118 112.954H159.433C158.957 112.955 158.482 112.91 158.015 112.82C158.122 112.76 158.236 112.706 158.343 112.639C158.836 112.354 159.298 112.019 159.721 111.639C160.106 111.297 160.433 110.896 160.692 110.451C160.923 110.061 161.046 109.616 161.046 109.162C161.055 108.643 160.863 108.141 160.511 107.76C160.098 107.331 159.585 107.012 159.019 106.834C158.294 106.592 157.534 106.476 156.77 106.491C156.158 106.484 155.546 106.552 154.95 106.693C154.456 106.817 153.97 106.976 153.498 107.169L152.568 108.666C152.765 109.705 153.198 110.686 153.833 111.531C154.195 111.998 154.626 112.408 155.111 112.746C154.674 112.867 154.225 112.932 153.772 112.941H150.995C150.665 112.954 150.334 112.911 150.018 112.813C149.912 112.778 149.815 112.719 149.734 112.641C149.653 112.564 149.59 112.469 149.55 112.364C149.453 112.077 149.41 111.774 149.423 111.471V110.934V110.887C149.422 110.435 149.37 109.985 149.269 109.545C149.169 109.117 149.004 108.708 148.78 108.33C148.557 107.952 148.237 107.641 147.853 107.429C147.47 107.217 147.037 107.111 146.599 107.122C146.16 107.117 145.728 107.223 145.341 107.431C144.963 107.645 144.623 107.922 144.337 108.25C144.033 108.603 143.76 108.983 143.521 109.384C143.267 109.793 143.032 110.216 142.818 110.632C142.616 111.039 142.392 111.436 142.149 111.82C141.935 112.147 141.658 112.428 141.333 112.645C140.981 112.853 140.577 112.955 140.168 112.941H115.764V107.122H114.727V114.847C114.74 115.24 114.667 115.632 114.513 115.994C114.379 116.292 114.141 116.531 113.844 116.665C113.471 116.82 113.069 116.893 112.666 116.88L112.873 118.014C113.42 118.013 113.957 117.877 114.439 117.618C114.872 117.372 115.218 116.997 115.43 116.545C115.672 116.015 115.791 115.436 115.778 114.853V114.115H140.115C140.629 114.13 141.138 114.012 141.594 113.773C142.011 113.531 142.376 113.207 142.664 112.82C142.875 113.01 143.098 113.185 143.334 113.343C143.726 113.611 144.154 113.821 144.605 113.968C145.15 114.144 145.714 114.256 146.285 114.303C147.037 114.362 147.794 114.362 148.546 114.303C148.725 113.986 148.875 113.654 148.995 113.31C149.145 113.516 149.339 113.686 149.563 113.806C150.01 114.011 150.498 114.107 150.989 114.088H153.766C154.239 114.084 154.711 114.026 155.171 113.914C155.612 113.805 156.045 113.668 156.469 113.504C157.412 113.901 158.425 114.1 159.447 114.088H165.175V101.948H164.124L164.118 112.954ZM146.09 113.122C145.491 113.063 144.906 112.897 144.364 112.632C143.981 112.433 143.628 112.183 143.313 111.887C143.441 111.679 143.568 111.464 143.702 111.216C143.99 110.669 144.307 110.138 144.652 109.625C144.893 109.248 145.196 108.914 145.548 108.639C145.847 108.412 146.212 108.292 146.586 108.297C146.848 108.281 147.109 108.335 147.344 108.453C147.579 108.571 147.779 108.748 147.924 108.968C148.273 109.547 148.436 110.219 148.392 110.894C148.389 111.401 148.327 111.905 148.205 112.397C148.134 112.664 148.047 112.926 147.944 113.182C147.334 113.2 146.724 113.178 146.117 113.115M154.502 110.592C154.06 109.955 153.761 109.229 153.625 108.464L153.759 108.27C154.254 108.074 154.764 107.919 155.285 107.807C155.78 107.705 156.285 107.656 156.79 107.659C157.366 107.649 157.94 107.719 158.497 107.867C158.913 107.97 159.303 108.16 159.641 108.424C159.765 108.516 159.867 108.635 159.938 108.772C160.009 108.909 160.047 109.061 160.049 109.216C160.027 109.579 159.881 109.923 159.634 110.189C159.309 110.574 158.933 110.912 158.517 111.196C158.033 111.537 157.52 111.836 156.984 112.088L156.503 112.29C155.7 111.904 155.009 111.32 154.495 110.592" fill="#231F20"/>
<path d="M168.413 101.948H167.383V114.122H168.413V101.948Z" fill="#231F20"/>
<path d="M174.255 106.491C173.723 106.486 173.195 106.589 172.703 106.793C172.23 106.988 171.799 107.27 171.431 107.626C171.062 107.981 170.769 108.408 170.568 108.881C170.364 109.374 170.261 109.903 170.267 110.438C170.258 111.084 170.415 111.721 170.722 112.29C171.017 112.848 171.462 113.313 172.007 113.632C172.595 113.968 173.264 114.138 173.941 114.122H175.988V114.86C176.033 115.407 175.865 115.951 175.52 116.377C175.314 116.554 175.074 116.688 174.816 116.77C174.557 116.852 174.284 116.88 174.014 116.853H171.05V118.021H174.014C174.582 118.038 175.146 117.914 175.654 117.659C176.098 117.416 176.456 117.041 176.677 116.585C176.928 116.045 177.049 115.455 177.032 114.86V107.23C176.6 107.024 176.153 106.853 175.694 106.72C175.213 106.567 174.712 106.49 174.208 106.491M173.894 112.954C173.417 112.964 172.945 112.853 172.522 112.632C172.133 112.428 171.808 112.119 171.585 111.739C171.358 111.344 171.243 110.894 171.251 110.438C171.245 109.942 171.382 109.454 171.645 109.035C171.911 108.617 172.277 108.273 172.709 108.035C173.169 107.784 173.685 107.656 174.208 107.666C174.82 107.682 175.423 107.812 175.988 108.048V112.974L173.894 112.954Z" fill="#231F20"/>
<path d="M189.104 115.068C189.004 115.067 188.904 115.086 188.811 115.124C188.718 115.162 188.633 115.218 188.562 115.29C188.489 115.359 188.432 115.444 188.394 115.538C188.356 115.631 188.338 115.732 188.341 115.833C188.34 115.934 188.359 116.034 188.397 116.127C188.435 116.221 188.491 116.305 188.562 116.377C188.633 116.448 188.718 116.505 188.811 116.543C188.904 116.581 189.004 116.6 189.104 116.598C189.205 116.601 189.305 116.583 189.398 116.544C189.491 116.506 189.576 116.449 189.646 116.377C189.717 116.305 189.773 116.221 189.811 116.127C189.849 116.034 189.868 115.934 189.867 115.833C189.87 115.732 189.852 115.631 189.814 115.538C189.776 115.444 189.719 115.359 189.646 115.29C189.576 115.217 189.491 115.16 189.398 115.122C189.305 115.084 189.205 115.065 189.104 115.068Z" fill="#231F20"/>
<path d="M217.684 112.954H214.231V110.27C214.239 109.735 214.134 109.204 213.923 108.713C213.727 108.248 213.432 107.831 213.06 107.491C212.671 107.139 212.216 106.868 211.722 106.693C211.171 106.504 210.591 106.411 210.009 106.418C209.47 106.418 208.934 106.492 208.416 106.639C207.889 106.784 207.388 107.011 206.931 107.31L207.366 108.256C207.749 108.044 208.159 107.882 208.584 107.773C209.044 107.652 209.519 107.591 209.995 107.592C210.58 107.577 211.161 107.694 211.695 107.934C212.141 108.138 212.523 108.461 212.799 108.867C213.066 109.288 213.204 109.778 213.194 110.276V112.961H190.71V110.276C190.718 109.741 190.613 109.211 190.402 108.719C190.204 108.254 189.907 107.838 189.533 107.498C189.141 107.149 188.687 106.878 188.194 106.699C187.647 106.512 187.073 106.418 186.495 106.424C185.952 106.423 185.411 106.498 184.889 106.646C184.365 106.788 183.868 107.015 183.416 107.317L183.838 108.263C184.224 108.049 184.635 107.887 185.063 107.78C185.526 107.658 186.003 107.597 186.481 107.599C187.062 107.584 187.638 107.701 188.168 107.941C188.625 108.133 189.013 108.459 189.281 108.878C189.549 109.296 189.683 109.786 189.666 110.283V112.968H186.762C186.081 112.954 185.403 113.054 184.755 113.263C184.234 113.43 183.752 113.7 183.336 114.055C182.973 114.366 182.683 114.753 182.486 115.189C182.296 115.596 182.197 116.041 182.199 116.491C182.191 116.961 182.309 117.424 182.54 117.833C182.764 118.233 183.078 118.575 183.457 118.833C183.856 119.106 184.297 119.312 184.761 119.444C185.251 119.587 185.758 119.659 186.267 119.659C186.667 119.656 187.066 119.613 187.458 119.531C187.846 119.445 188.223 119.317 188.582 119.148L188.228 118.128C187.92 118.238 187.604 118.325 187.284 118.39C186.954 118.455 186.617 118.487 186.28 118.484C185.74 118.494 185.203 118.405 184.695 118.222C184.282 118.075 183.912 117.828 183.617 117.504C183.365 117.212 183.227 116.837 183.229 116.451C183.227 116.016 183.384 115.596 183.671 115.269C184.008 114.898 184.43 114.614 184.902 114.444C185.491 114.229 186.115 114.124 186.742 114.135H218.695V101.948H217.644L217.684 112.954Z" fill="#231F20"/>
<path d="M221.973 101.948H220.942V114.122H221.973V101.948Z" fill="#231F20"/>
<path d="M120.107 67.9898C118.903 65.3591 116.246 64.084 113.416 64.084C108.169 64.084 104.797 68.0301 104.797 73.6674C104.797 79.3047 107.908 83.4723 113.302 83.4723C114.655 83.5265 115.996 83.1955 117.17 82.5173C118.343 81.8392 119.301 80.8417 119.933 79.6403V82.9958H123.46V64.6074H120.114L120.107 67.9898ZM114.085 80.2778C110.485 80.2778 108.39 77.5934 108.39 73.815C108.39 70.0367 110.525 67.312 114.125 67.312C117.725 67.312 119.893 69.9964 119.893 73.815C119.893 77.6336 117.685 80.2778 114.085 80.2778Z" fill="#231F20"/>
<path d="M131.041 55.3262H127.521V82.9892H131.041V55.3262Z" fill="#231F20"/>
<path d="M147.878 64.6074H133.973V67.5737H143.863L133.973 80.1301L134.321 82.9824H148.246V80.0161H138.282L148.246 67.4999L147.878 64.6074Z" fill="#231F20"/>
<path d="M164.773 67.9898C163.575 65.3591 160.912 64.084 158.082 64.084C152.835 64.084 149.463 68.0301 149.463 73.6674C149.463 79.3047 152.574 83.4723 157.968 83.4723C159.321 83.5273 160.663 83.1966 161.836 82.5184C163.01 81.8402 163.968 80.8422 164.599 79.6403V82.9958H168.126V64.6074H164.78L164.773 67.9898ZM158.751 80.2778C155.157 80.2778 153.056 77.5934 153.056 73.815C153.056 70.0367 155.191 67.312 158.791 67.312C162.391 67.312 164.559 69.9964 164.559 73.815C164.559 77.6336 162.351 80.2778 158.751 80.2778Z" fill="#231F20"/>
<path d="M181.857 64.084C180.617 64.0372 179.387 64.3235 178.294 64.9135C177.201 65.5034 176.285 66.3755 175.641 67.4396V55.3596H172.114V82.9489H175.641V72.9493C175.641 69.7951 177.474 67.312 180.887 67.312C183.51 67.312 185.27 68.8153 185.27 72.54V82.9824H188.79V71.7481C188.79 67.0503 186.541 64.084 181.857 64.084Z" fill="#231F20"/>
<path d="M196.064 67.4262V64.6478H192.537V82.9824H196.064V73.2514C196.064 69.7214 198.125 67.6879 201.457 67.6879H202.641L203.03 64.4599C202.416 64.3119 201.787 64.2354 201.156 64.2317C198.647 64.2317 196.813 65.5068 196.064 67.4262Z" fill="#231F20"/>
<path d="M218.621 64.6074V67.963C217.423 65.3322 214.76 64.0571 211.929 64.0571C206.683 64.0571 203.311 68.0032 203.311 73.6405C203.311 79.2779 206.422 83.4454 211.816 83.4454C213.169 83.5005 214.51 83.1697 215.684 82.4915C216.858 81.8133 217.816 80.8154 218.447 79.6134V82.9689H221.973V64.6074H218.621ZM212.598 80.2778C209.005 80.2778 206.904 77.5934 206.904 73.815C206.904 70.0367 209.039 67.312 212.639 67.312C216.239 67.312 218.407 69.9964 218.407 73.815C218.407 77.6336 216.199 80.2778 212.598 80.2778Z" fill="#231F20"/>
<path d="M110.297 18.9855C110.555 18.9783 110.812 19.0233 111.053 19.1178C111.293 19.2124 111.512 19.3545 111.696 19.5358C111.962 19.8179 112.141 20.1712 112.211 20.553C112.282 20.9348 112.241 21.3289 112.093 21.6878C111.945 22.0467 111.697 22.3551 111.378 22.5758C111.06 22.7964 110.684 22.92 110.297 22.9316C109.91 22.9213 109.534 22.7986 109.214 22.5784C108.894 22.3582 108.645 22.0499 108.497 21.6908C108.348 21.3316 108.306 20.937 108.377 20.5546C108.447 20.1722 108.626 19.8184 108.892 19.5358C109.077 19.3537 109.297 19.2111 109.539 19.1165C109.78 19.0219 110.038 18.9774 110.297 18.9855ZM113.469 19.5358C113.198 19.8133 113.015 20.165 112.942 20.5466C112.869 20.9282 112.911 21.3228 113.061 21.681C113.211 22.0392 113.463 22.345 113.786 22.56C114.108 22.775 114.487 22.8897 114.874 22.8897C115.262 22.8897 115.641 22.775 115.963 22.56C116.286 22.345 116.538 22.0392 116.688 21.681C116.838 21.3228 116.88 20.9282 116.807 20.5466C116.734 20.165 116.551 19.8133 116.28 19.5358C115.897 19.1821 115.395 18.9858 114.874 18.9858C114.354 18.9858 113.852 19.1821 113.469 19.5358ZM204.957 24.549C205.453 24.5459 205.933 24.3704 206.315 24.0524C206.697 23.7345 206.957 23.2937 207.052 22.805C207.146 22.3163 207.069 21.8098 206.833 21.3717C206.598 20.9336 206.218 20.5909 205.759 20.4019C205.299 20.2129 204.789 20.1891 204.314 20.3348C203.84 20.4805 203.43 20.7865 203.155 21.2009C202.88 21.6152 202.756 22.1124 202.805 22.6077C202.855 23.1031 203.073 23.5662 203.424 23.9182C203.624 24.122 203.862 24.283 204.126 24.3914C204.389 24.4999 204.672 24.5535 204.957 24.549ZM105.847 41.0381C105.189 39.9243 104.853 38.6484 104.877 37.3537C104.877 33.9042 106.985 30.4122 111.201 26.8777H114.005C118.193 30.3899 120.29 33.8707 120.295 37.3202C120.318 38.6254 119.983 39.912 119.324 41.0381C118.686 42.1148 117.759 42.9893 116.648 43.5615C115.383 44.158 114.003 44.4672 112.606 44.4672C111.209 44.4672 109.829 44.158 108.564 43.5615C107.453 42.9896 106.525 42.115 105.888 41.0381M108.176 37.3537C108.159 37.992 108.344 38.6194 108.705 39.1456C109.091 39.6797 109.623 40.09 110.237 40.3267C111.785 40.8903 113.481 40.8903 115.028 40.3267C115.638 40.0857 116.164 39.6703 116.541 39.1322C116.902 38.5982 117.089 37.9651 117.076 37.3202C117.013 36.2143 116.655 35.1458 116.039 34.2264C115.175 32.8733 114.12 31.6526 112.907 30.6024H112.298C111.077 31.6537 110.011 32.8739 109.133 34.2264C108.524 35.1565 108.18 36.2353 108.136 37.347M125.802 28.8575V40.7495H177.849C179.195 40.7166 180.538 40.582 181.864 40.3469C181.382 39.8354 180.953 39.2754 180.586 38.6758C179.902 37.5212 179.516 36.2133 179.465 34.8712C179.414 33.5292 179.698 32.1955 180.291 30.9916C180.441 30.7041 180.609 30.4261 180.793 30.1595L180.532 30.1192C179.863 30.0185 179.114 29.9111 178.358 29.7769L178.779 26.1261C181.569 26.5221 184.132 26.9381 186.515 27.3811C186.904 27.4193 187.289 27.4934 187.666 27.6025C189.977 28.0234 192.243 28.6685 194.431 29.5286C196.145 30.1652 197.676 31.2164 198.887 32.5889C199.959 33.9338 200.512 35.6202 200.446 37.3403C200.476 38.4819 200.247 39.6153 199.777 40.6556C199.371 41.5388 198.744 42.3016 197.957 42.8702C197.162 43.4411 196.272 43.864 195.327 44.1185C194.313 44.3918 193.266 44.5273 192.216 44.5212C190.681 44.5237 189.154 44.2975 187.686 43.8501C186.998 43.6391 186.327 43.3766 185.678 43.0649C185.156 43.2796 184.614 43.4809 184.039 43.6554C182.024 44.1759 179.955 44.453 177.876 44.4809H125.802V45.9708C125.838 47.2938 125.548 48.6053 124.959 49.7894C124.428 50.8162 123.603 51.6601 122.59 52.2121C121.426 52.8001 120.139 53.0993 118.836 53.0845L118.388 49.3934C119.195 49.3574 119.994 49.2245 120.77 48.9974C121.023 48.9366 121.259 48.8186 121.459 48.6522C121.66 48.4859 121.82 48.2757 121.927 48.0378C122.201 47.385 122.32 46.6775 122.275 45.9708V28.8575H125.802ZM189.64 40.5482C190.636 40.8117 191.661 40.9492 192.691 40.9576C193.452 40.9658 194.209 40.8503 194.933 40.6153C195.572 40.413 196.138 40.0254 196.559 39.5013C196.994 38.8908 197.208 38.15 197.168 37.4007C197.174 36.8256 197.051 36.2564 196.809 35.735C196.567 35.2136 196.212 34.7531 195.769 34.3874C194.731 33.5678 193.548 32.9508 192.283 32.5687C192.446 33.1725 192.53 33.7953 192.53 34.421C192.528 35.7443 192.182 37.0442 191.527 38.1926C191.024 39.0718 190.387 39.8666 189.64 40.5482ZM182.694 34.3606C182.696 35.3181 183.024 36.2461 183.624 36.9913C184.24 37.7617 184.988 38.4161 185.832 38.9241L186.033 38.8235C186.962 38.3236 187.779 37.6384 188.435 36.8101C188.979 36.1296 189.28 35.2863 189.292 34.4143C189.297 33.8173 189.14 33.23 188.837 32.7164C188.542 32.2193 188.128 31.8041 187.632 31.5084C187.12 31.204 186.534 31.0462 185.939 31.052C185.363 31.0461 184.797 31.2043 184.306 31.5084C183.828 31.8047 183.43 32.2151 183.149 32.703C182.855 33.2028 182.705 33.774 182.714 34.3539M215.181 17.9185H211.662V40.7361H206.569V28.8575H203.043V45.9573C203.091 46.6642 202.972 47.3725 202.695 48.0243C202.591 48.2639 202.433 48.4759 202.233 48.6437C202.033 48.8114 201.797 48.9302 201.544 48.9907C200.768 49.2166 199.969 49.3495 199.162 49.3867L199.61 53.0778C200.913 53.0926 202.2 52.7934 203.364 52.2053C204.374 51.6495 205.198 50.8066 205.733 49.7826C206.318 48.5974 206.605 47.2863 206.569 45.964V44.4675H215.181V17.9185ZM218.46 44.4406H222V17.952H218.46V44.4406Z" fill="#231F20"/>
</g>
</g>
<defs>
<clipPath id="clip0_2_124">
<rect width="222" height="135" fill="white"/>
</clipPath>
</defs>
</svg>
