<?xml version="1.0" encoding="UTF-8" standalone="no"?>
<!-- Created with Inkscape (http://www.inkscape.org/) -->

<svg
   width="110.14287mm"
   height="64.856079mm"
   viewBox="0 0 110.14287 64.856079"
   version="1.1"
   id="svg1"
   xml:space="preserve"
   xmlns="http://www.w3.org/2000/svg"
   xmlns:svg="http://www.w3.org/2000/svg"><defs
     id="defs1"><clipPath
       clipPathUnits="userSpaceOnUse"
       id="clipPath60"><path
         d="m 0,183.844 h 312.217 v -183.844 h -312.217 z"
         transform="translate(-109.58621,-160.35)"
         id="path60" /></clipPath><clipPath
       clipPathUnits="userSpaceOnUse"
       id="clipPath62"><path
         d="m 0,183.844 h 312.217 v -183.844 h -312.217 z"
         transform="translate(-102.5862,-145.9962)"
         id="path62" /></clipPath><clipPath
       clipPathUnits="userSpaceOnUse"
       id="clipPath64"><path
         d="m 0,183.844 h 312.217 v -183.844 h -312.217 z"
         transform="translate(-54.790499,-89.1572)"
         id="path64" /></clipPath><clipPath
       clipPathUnits="userSpaceOnUse"
       id="clipPath66"><path
         d="m 0,183.844 h 312.217 v -183.844 h -312.217 z"
         transform="translate(-152.3687,-2.3017976)"
         id="path66" /></clipPath><clipPath
       clipPathUnits="userSpaceOnUse"
       id="clipPath68"><path
         d="m 0,183.844 h 312.217 v -183.844 h -312.217 z"
         transform="translate(-158.5347,-8.3779002)"
         id="path68" /></clipPath><clipPath
       clipPathUnits="userSpaceOnUse"
       id="clipPath70"><path
         d="m 0,183.844 h 312.217 v -183.844 h -312.217 z"
         transform="translate(-178.16171,-2.4580001)"
         id="path70" /></clipPath><clipPath
       clipPathUnits="userSpaceOnUse"
       id="clipPath72"><path
         d="m 0,183.844 h 312.217 v -183.844 h -312.217 z"
         transform="translate(-188.95271,-2.4580001)"
         id="path72" /></clipPath><clipPath
       clipPathUnits="userSpaceOnUse"
       id="clipPath74"><path
         d="m 0,183.844 h 312.217 v -183.844 h -312.217 z"
         transform="translate(-203.69781,-9.5400027)"
         id="path74" /></clipPath><clipPath
       clipPathUnits="userSpaceOnUse"
       id="clipPath76"><path
         d="m 0,183.844 h 312.217 v -183.844 h -312.217 z"
         transform="translate(-232.0377,-9.0708027)"
         id="path76" /></clipPath><clipPath
       clipPathUnits="userSpaceOnUse"
       id="clipPath78"><path
         d="m 0,183.844 h 312.217 v -183.844 h -312.217 z"
         transform="translate(-255.4512,-16.4209)"
         id="path78" /></clipPath><clipPath
       clipPathUnits="userSpaceOnUse"
       id="clipPath80"><path
         d="m 0,183.844 h 312.217 v -183.844 h -312.217 z"
         transform="translate(-274.7652,-9.8193027)"
         id="path80" /></clipPath><clipPath
       clipPathUnits="userSpaceOnUse"
       id="clipPath82"><path
         d="m 0,183.844 h 312.217 v -183.844 h -312.217 z"
         transform="translate(-283.1094,-8.3779002)"
         id="path82" /></clipPath><clipPath
       clipPathUnits="userSpaceOnUse"
       id="clipPath84"><path
         d="m 0,183.844 h 312.217 v -183.844 h -312.217 z"
         transform="translate(-311.81791,-2.3017976)"
         id="path84" /></clipPath><clipPath
       clipPathUnits="userSpaceOnUse"
       id="clipPath86"><path
         d="m 0,183.844 h 312.217 v -183.844 h -312.217 z"
         transform="translate(-146.07281,-35.975598)"
         id="path86" /></clipPath><clipPath
       clipPathUnits="userSpaceOnUse"
       id="clipPath88"><path
         d="m 0,183.844 h 312.217 v -183.844 h -312.217 z"
         transform="translate(-142.878,-47.403304)"
         id="path88" /></clipPath><clipPath
       clipPathUnits="userSpaceOnUse"
       id="clipPath90"><path
         d="m 0,183.844 h 312.217 v -183.844 h -312.217 z"
         transform="translate(-140.35361,-47.403304)"
         id="path90" /></clipPath><clipPath
       clipPathUnits="userSpaceOnUse"
       id="clipPath92"><path
         d="m 0,183.844 h 312.217 v -183.844 h -312.217 z"
         transform="translate(-211.30911,-36.355398)"
         id="path92" /></clipPath><clipPath
       clipPathUnits="userSpaceOnUse"
       id="clipPath94"><path
         d="m 0,183.844 h 312.217 v -183.844 h -312.217 z"
         transform="translate(2.5000001e-6)"
         id="path94" /></clipPath><clipPath
       clipPathUnits="userSpaceOnUse"
       id="clipPath96"><path
         d="m 0,183.844 h 312.217 v -183.844 h -312.217 z"
         transform="translate(-240.3975,-32.847603)"
         id="path96" /></clipPath><clipPath
       clipPathUnits="userSpaceOnUse"
       id="clipPath98"><path
         d="m 0,183.844 h 312.217 v -183.844 h -312.217 z"
         transform="translate(-263.05131,-29.697701)"
         id="path98" /></clipPath><clipPath
       clipPathUnits="userSpaceOnUse"
       id="clipPath100"><path
         d="m 0,183.844 h 312.217 v -183.844 h -312.217 z"
         transform="translate(-305.76761,-32.847603)"
         id="path100" /></clipPath><clipPath
       clipPathUnits="userSpaceOnUse"
       id="clipPath102"><path
         d="m 0,183.844 h 312.217 v -183.844 h -312.217 z"
         transform="translate(2.5000001e-6)"
         id="path102" /></clipPath><clipPath
       clipPathUnits="userSpaceOnUse"
       id="clipPath104"><path
         d="m 0,183.844 h 312.217 v -183.844 h -312.217 z"
         transform="translate(-150.9239,-81.538805)"
         id="path104" /></clipPath><clipPath
       clipPathUnits="userSpaceOnUse"
       id="clipPath106"><path
         d="m 0,183.844 h 312.217 v -183.844 h -312.217 z"
         transform="translate(2.5000001e-6)"
         id="path106" /></clipPath><clipPath
       clipPathUnits="userSpaceOnUse"
       id="clipPath108"><path
         d="m 0,183.844 h 312.217 v -183.844 h -312.217 z"
         transform="translate(-201.44291,-104.89081)"
         id="path108" /></clipPath><clipPath
       clipPathUnits="userSpaceOnUse"
       id="clipPath110"><path
         d="m 0,183.844 h 312.217 v -183.844 h -312.217 z"
         transform="translate(-217.67571,-81.538805)"
         id="path110" /></clipPath><clipPath
       clipPathUnits="userSpaceOnUse"
       id="clipPath112"><path
         d="m 0,183.844 h 312.217 v -183.844 h -312.217 z"
         transform="translate(-252.22751,-105.67501)"
         id="path112" /></clipPath><clipPath
       clipPathUnits="userSpaceOnUse"
       id="clipPath114"><path
         d="m 0,183.844 h 312.217 v -183.844 h -312.217 z"
         transform="translate(-273.45161,-100.6906)"
         id="path114" /></clipPath><clipPath
       clipPathUnits="userSpaceOnUse"
       id="clipPath116"><path
         d="m 0,183.844 h 312.217 v -183.844 h -312.217 z"
         transform="translate(-298.14741,-81.538805)"
         id="path116" /></clipPath><clipPath
       clipPathUnits="userSpaceOnUse"
       id="clipPath118"><path
         d="m 0,183.844 h 312.217 v -183.844 h -312.217 z"
         transform="translate(2.5000001e-6)"
         id="path118" /></clipPath></defs><g
     id="g58"
     transform="matrix(0.26458333,0,0,0.26458334,-3.2977399,-3.0444788)"><path
       id="path59"
       d="m 0,0 v -40.055 c -23.321,0 -43.106,-7.161 -54.799,-18.508 -11.66,11.315 -31.347,18.464 -54.582,18.508 v 38.703 l 56.388,24.846 z"
       style="fill:#231f20;fill-opacity:1;fill-rule:nonzero;stroke:none"
       transform="matrix(1.3333333,0,0,-1.3333333,158.57885,42.832024)"
       clip-path="url(#clipPath60)" /><path
       id="path61"
       d="m 0,0 v -7.878 l -46.066,20.347 -49.315,-21.749 v 7.919 l 49.326,21.731 z"
       style="fill:#a4701e;fill-opacity:1;fill-rule:nonzero;stroke:none"
       transform="matrix(1.3333333,0,0,-1.3333333,149.24551,61.970424)"
       clip-path="url(#clipPath62)" /><path
       id="path63"
       d="m 0,0 c -8.072,13.72 -29.273,23.28 -54.791,23.28 v -7 c 27.803,0 51.291,-13.146 51.291,-28.707 h 7 c 0,15.561 23.488,28.707 51.291,28.707 v 7 c -25.518,0 -46.719,-9.56 -54.791,-23.28"
       style="fill:#a4701e;fill-opacity:1;fill-rule:nonzero;stroke:none"
       transform="matrix(1.3333333,0,0,-1.3333333,85.517905,137.75576)"
       clip-path="url(#clipPath64)" /><path
       id="path65"
       d="m 0,0 v 15.639 h -1.787 v -7.127 h -9.428 v 7.127 h -1.787 v -15.639 h 1.787 v 6.97 h 9.428 v -6.97 z"
       style="fill:#231f20;fill-opacity:1;fill-rule:nonzero;stroke:none"
       transform="matrix(1.3333333,0,0,-1.3333333,215.62218,253.56296)"
       clip-path="url(#clipPath66)" /><path
       id="path67"
       d="m 0,0 v 3.195 c 0,1.549 0.421,2.763 1.262,3.642 0.842,0.878 2.008,1.318 3.497,1.318 1.489,0 2.655,-0.44 3.496,-1.318 0.842,-0.879 1.263,-2.093 1.263,-3.642 v -3.195 z m 11.305,-6.076 v 9.271 c 0,1.341 -0.265,2.494 -0.793,3.463 -0.529,0.968 -1.282,1.713 -2.257,2.234 -0.976,0.521 -2.141,0.782 -3.496,0.782 -1.356,0 -2.521,-0.261 -3.497,-0.782 -0.975,-0.521 -1.727,-1.266 -2.256,-2.234 -0.529,-0.969 -0.793,-2.122 -0.793,-3.463 v -9.271 h 1.787 v 4.557 h 9.518 v -4.557 z"
       style="fill:#231f20;fill-opacity:1;fill-rule:nonzero;stroke:none"
       transform="matrix(1.3333333,0,0,-1.3333333,223.84351,245.46149)"
       clip-path="url(#clipPath68)" /><path
       id="path69"
       d="m 0,0 c -0.469,-0.536 -1.128,-0.805 -1.977,-0.805 -0.596,0 -1.192,0.16 -1.788,0.481 -0.595,0.32 -1.139,0.778 -1.631,1.374 l -0.893,-1.296 c 0.551,-0.7 1.191,-1.243 1.921,-1.631 0.73,-0.387 1.527,-0.581 2.391,-0.581 1.399,0 2.494,0.41 3.284,1.229 0.789,0.819 1.184,1.981 1.184,3.485 v 13.226 h -7.372 v -1.564 h 5.585 v -11.617 c 0,-0.998 -0.235,-1.765 -0.704,-2.301"
       style="fill:#231f20;fill-opacity:1;fill-rule:nonzero;stroke:none"
       transform="matrix(1.3333333,0,0,-1.3333333,250.01285,253.35469)"
       clip-path="url(#clipPath70)" /><path
       id="path71"
       d="m 0,0 c -0.469,-0.536 -1.128,-0.805 -1.977,-0.805 -0.596,0 -1.192,0.16 -1.788,0.481 -0.595,0.32 -1.139,0.778 -1.631,1.374 l -0.893,-1.296 c 0.551,-0.7 1.191,-1.243 1.921,-1.631 0.73,-0.387 1.527,-0.581 2.391,-0.581 1.399,0 2.494,0.41 3.284,1.229 0.789,0.819 1.184,1.981 1.184,3.485 v 13.226 h -7.372 v -1.564 h 5.585 v -11.617 c 0,-0.998 -0.235,-1.765 -0.704,-2.301"
       style="fill:#231f20;fill-opacity:1;fill-rule:nonzero;stroke:none"
       transform="matrix(1.3333333,0,0,-1.3333333,264.40085,253.35469)"
       clip-path="url(#clipPath72)" /><path
       id="path73"
       d="m 0,0 c 0.254,0.157 0.539,0.3 0.805,0.452 0.399,-0.468 0.83,-0.954 1.329,-1.48 0.819,-0.864 1.764,-1.828 2.837,-2.893 0.018,-0.017 0.038,-0.037 0.055,-0.055 -0.462,-0.526 -0.948,-0.964 -1.463,-1.296 -0.759,-0.492 -1.549,-0.738 -2.368,-0.738 -0.595,0 -1.139,0.13 -1.631,0.391 -0.491,0.261 -0.882,0.622 -1.172,1.084 -0.291,0.461 -0.436,0.997 -0.436,1.608 0,0.656 0.19,1.214 0.569,1.676 0.38,0.461 0.872,0.878 1.475,1.251 m 0.492,6.713 c 0.439,0.425 1.024,0.637 1.753,0.637 0.671,0 1.203,-0.182 1.598,-0.547 0.394,-0.366 0.592,-0.853 0.592,-1.464 0,-0.595 -0.19,-1.11 -0.57,-1.541 -0.38,-0.432 -0.871,-0.819 -1.474,-1.162 -0.374,-0.212 -0.788,-0.42 -1.19,-0.629 -0.293,0.391 -0.543,0.763 -0.743,1.11 -0.417,0.722 -0.625,1.396 -0.625,2.022 0,0.625 0.219,1.15 0.659,1.574 m -3.43,-7.696 c -0.387,-0.566 -0.581,-1.251 -0.581,-2.056 0,-0.818 0.209,-1.549 0.626,-2.189 0.417,-0.64 0.975,-1.147 1.676,-1.519 0.699,-0.373 1.481,-0.559 2.345,-0.559 1.013,0 1.977,0.264 2.893,0.793 0.695,0.401 1.348,0.934 1.961,1.596 0.815,-0.802 1.675,-1.643 2.631,-2.567 l 0.916,0.893 c -0.986,0.967 -1.89,1.854 -2.73,2.678 0.673,0.913 1.273,1.966 1.791,3.176 l -1.184,0.826 c -0.469,-1.158 -1.001,-2.166 -1.59,-3.036 -0.155,0.152 -0.316,0.309 -0.465,0.456 -1.206,1.184 -2.22,2.234 -3.038,3.15 -0.132,0.148 -0.251,0.288 -0.372,0.431 0.658,0.338 1.286,0.696 1.879,1.077 0.604,0.387 1.095,0.834 1.475,1.341 0.38,0.506 0.57,1.124 0.57,1.854 0,0.596 -0.153,1.128 -0.458,1.597 -0.306,0.47 -0.73,0.838 -1.274,1.106 -0.544,0.268 -1.173,0.402 -1.888,0.402 -0.774,0 -1.445,-0.145 -2.01,-0.435 -0.567,-0.291 -1.009,-0.689 -1.33,-1.196 -0.32,-0.506 -0.48,-1.08 -0.48,-1.72 0,-0.566 0.138,-1.162 0.413,-1.787 0.268,-0.608 0.671,-1.257 1.2,-1.942 -0.517,-0.276 -1.019,-0.57 -1.49,-0.896 -0.603,-0.417 -1.099,-0.908 -1.486,-1.474"
       style="fill:#231f20;fill-opacity:1;fill-rule:nonzero;stroke:none"
       transform="matrix(1.3333333,0,0,-1.3333333,284.06098,243.91202)"
       clip-path="url(#clipPath74)" /><path
       id="path75"
       d="m 0,0 c 0,-0.968 -0.22,-1.851 -0.659,-2.647 -0.44,-0.797 -1.047,-1.43 -1.821,-1.899 -0.774,-0.47 -1.668,-0.712 -2.681,-0.726 -0.819,0 -1.552,0.193 -2.2,0.58 -0.648,0.388 -1.155,0.92 -1.52,1.598 -0.365,0.677 -0.547,1.455 -0.547,2.335 v 9.629 h -1.787 v -9.987 c 0,-1.117 0.238,-2.115 0.715,-2.994 0.476,-0.879 1.128,-1.563 1.955,-2.055 0.826,-0.492 1.768,-0.737 2.826,-0.737 1.31,0.015 2.461,0.301 3.451,0.86 0.961,0.542 1.714,1.279 2.268,2.207 v -2.933 h 1.787 v 15.639 h -1.787 z"
       style="fill:#231f20;fill-opacity:1;fill-rule:nonzero;stroke:none"
       transform="matrix(1.3333333,0,0,-1.3333333,321.84751,244.53762)"
       clip-path="url(#clipPath76)" /><path
       id="path77"
       d="m 0,0 c 0.774,0 1.452,-0.189 2.033,-0.569 0.581,-0.38 1.039,-0.898 1.374,-1.553 0.335,-0.656 0.503,-1.423 0.503,-2.301 v -9.696 h 1.809 v 10.053 c 0,1.117 -0.223,2.104 -0.67,2.961 -0.447,0.855 -1.058,1.526 -1.832,2.01 -0.775,0.484 -1.661,0.726 -2.659,0.726 -1.191,0 -2.249,-0.272 -3.172,-0.816 -0.924,-0.544 -1.646,-1.295 -2.167,-2.256 -0.09,-0.164 -0.161,-0.339 -0.235,-0.512 -0.096,0.294 -0.206,0.579 -0.346,0.848 -0.447,0.855 -1.058,1.526 -1.832,2.01 -0.775,0.484 -1.661,0.726 -2.659,0.726 -1.206,0 -2.271,-0.272 -3.194,-0.816 -0.864,-0.508 -1.544,-1.206 -2.056,-2.079 v 2.895 h -1.787 v -15.75 h 1.787 v 9.371 c 0.05,0.803 0.237,1.54 0.581,2.201 0.402,0.775 0.957,1.393 1.665,1.855 0.707,0.461 1.515,0.692 2.423,0.692 0.775,0 1.456,-0.189 2.045,-0.569 0.588,-0.38 1.05,-0.898 1.385,-1.553 0.335,-0.656 0.503,-1.423 0.503,-2.301 v -9.696 h 1.809 v 8.958 c 0,0.969 0.201,1.84 0.603,2.614 0.402,0.775 0.957,1.393 1.665,1.855 0.707,0.461 1.515,0.692 2.424,0.692"
       style="fill:#231f20;fill-opacity:1;fill-rule:nonzero;stroke:none"
       transform="matrix(1.3333333,0,0,-1.3333333,353.06551,234.73749)"
       clip-path="url(#clipPath78)" /><path
       id="path79"
       d="m 0,0 c -0.782,-0.648 -1.881,-0.972 -3.295,-0.972 h -4.156 v 7.529 h 4.156 c 1.414,0 2.513,-0.313 3.295,-0.938 0.782,-0.626 1.173,-1.55 1.173,-2.77 0,-1.252 -0.391,-2.201 -1.173,-2.849 m 2.871,2.893 c 0,1.653 -0.537,2.938 -1.609,3.854 -1.072,0.916 -2.592,1.374 -4.557,1.374 h -5.943 v -15.639 h 1.787 v 5.004 h 4.156 c 0.345,0 0.659,0.034 0.977,0.063 l 3.312,-5.067 h 2.033 l -3.711,5.359 c 0.76,0.236 1.409,0.591 1.946,1.064 1.072,0.946 1.609,2.275 1.609,3.988"
       style="fill:#231f20;fill-opacity:1;fill-rule:nonzero;stroke:none"
       transform="matrix(1.3333333,0,0,-1.3333333,378.81751,243.53962)"
       clip-path="url(#clipPath80)" /><path
       id="path81"
       d="m 0,0 v 3.195 c 0,1.549 0.421,2.763 1.262,3.642 0.842,0.878 2.008,1.318 3.497,1.318 1.489,0 2.655,-0.44 3.496,-1.318 0.842,-0.879 1.263,-2.093 1.263,-3.642 v -3.195 z m 11.305,-6.076 v 9.271 c 0,1.341 -0.265,2.494 -0.793,3.463 -0.529,0.968 -1.282,1.713 -2.257,2.234 -0.976,0.521 -2.141,0.782 -3.496,0.782 -1.356,0 -2.521,-0.261 -3.497,-0.782 -0.975,-0.521 -1.727,-1.266 -2.256,-2.234 -0.529,-0.969 -0.793,-2.122 -0.793,-3.463 v -9.271 h 1.787 v 4.557 h 9.518 v -4.557 z"
       style="fill:#231f20;fill-opacity:1;fill-rule:nonzero;stroke:none"
       transform="matrix(1.3333333,0,0,-1.3333333,389.94311,245.46149)"
       clip-path="url(#clipPath82)" /><path
       id="path83"
       d="m 0,0 v 15.639 h -1.787 v -7.127 h -9.428 v 7.127 h -1.787 v -15.639 h 1.787 v 6.97 h 9.428 v -6.97 z"
       style="fill:#231f20;fill-opacity:1;fill-rule:nonzero;stroke:none"
       transform="matrix(1.3333333,0,0,-1.3333333,428.22111,253.56296)"
       clip-path="url(#clipPath84)" /><path
       id="path85"
       d="m 0,0 c 0,-0.625 -0.153,-1.173 -0.458,-1.642 -0.305,-0.469 -0.734,-0.835 -1.285,-1.094 -0.551,-0.262 -1.206,-0.392 -1.965,-0.392 -0.76,0 -1.419,0.13 -1.978,0.392 -0.558,0.259 -0.99,0.625 -1.295,1.094 -0.306,0.469 -0.458,1.009 -0.458,1.62 0,0.819 0.268,1.679 0.804,2.58 0.536,0.901 1.37,1.843 2.502,2.826 h 0.871 c 1.102,-0.983 1.922,-1.921 2.458,-2.815 0.536,-0.893 0.804,-1.75 0.804,-2.569 m -2.748,7.127 h -1.921 c -2.875,-2.413 -4.312,-4.796 -4.312,-7.149 0,-0.938 0.219,-1.776 0.659,-2.514 0.439,-0.737 1.057,-1.311 1.854,-1.72 0.797,-0.41 1.717,-0.614 2.76,-0.614 1.057,0 1.977,0.208 2.759,0.625 0.782,0.417 1.396,0.991 1.843,1.721 0.446,0.729 0.67,1.571 0.67,2.524 0,2.354 -1.438,4.729 -4.312,7.127"
       style="fill:#231f20;fill-opacity:1;fill-rule:nonzero;stroke:none"
       transform="matrix(1.3333333,0,0,-1.3333333,207.22765,208.66456)"
       clip-path="url(#clipPath86)" /><path
       id="path87"
       d="m 0,0 c -0.208,-0.201 -0.312,-0.458 -0.312,-0.771 0,-0.298 0.104,-0.547 0.312,-0.749 0.208,-0.2 0.461,-0.301 0.76,-0.301 0.298,0 0.547,0.101 0.748,0.301 0.201,0.202 0.302,0.451 0.302,0.749 0,0.313 -0.101,0.57 -0.302,0.771 -0.201,0.201 -0.45,0.302 -0.748,0.302 -0.299,0 -0.552,-0.101 -0.76,-0.302"
       style="fill:#231f20;fill-opacity:1;fill-rule:nonzero;stroke:none"
       transform="matrix(1.3333333,0,0,-1.3333333,202.96791,193.42762)"
       clip-path="url(#clipPath88)" /><path
       id="path89"
       d="m 0,0 c -0.209,-0.201 -0.313,-0.458 -0.313,-0.771 0,-0.298 0.104,-0.547 0.313,-0.749 0.208,-0.2 0.454,-0.301 0.737,-0.301 0.313,0 0.57,0.101 0.771,0.301 0.201,0.202 0.302,0.451 0.302,0.749 0,0.313 -0.101,0.57 -0.302,0.771 -0.201,0.201 -0.451,0.302 -0.748,0.302 -0.299,0 -0.552,-0.101 -0.76,-0.302"
       style="fill:#231f20;fill-opacity:1;fill-rule:nonzero;stroke:none"
       transform="matrix(1.3333333,0,0,-1.3333333,199.60205,193.42762)"
       clip-path="url(#clipPath90)" /><path
       id="path91"
       d="m 0,0 c -0.65,0.919 -1.081,1.982 -1.317,3.174 l 0.2,0.289 c 0.805,0.312 1.564,0.543 2.279,0.692 0.715,0.149 1.467,0.224 2.256,0.224 0.968,0 1.817,-0.105 2.547,-0.313 0.73,-0.209 1.3,-0.484 1.709,-0.827 0.41,-0.343 0.615,-0.737 0.615,-1.183 0,-0.462 -0.209,-0.947 -0.626,-1.452 -0.417,-0.507 -0.972,-1.006 -1.664,-1.498 -0.693,-0.491 -1.457,-0.934 -2.29,-1.329 -0.242,-0.114 -0.483,-0.207 -0.725,-0.307 -1.221,0.607 -2.218,1.447 -2.984,2.53 m -12.534,-3.753 c -0.998,0.119 -1.858,0.36 -2.58,0.726 -0.567,0.286 -1.084,0.671 -1.573,1.109 0.193,0.313 0.386,0.629 0.579,0.98 0.506,0.938 0.979,1.727 1.419,2.368 0.439,0.64 0.885,1.132 1.34,1.474 0.454,0.343 0.972,0.514 1.553,0.514 0.849,0 1.504,-0.331 1.965,-0.994 0.462,-0.663 0.693,-1.62 0.693,-2.871 0,-0.744 -0.093,-1.49 -0.279,-2.234 -0.103,-0.413 -0.236,-0.8 -0.387,-1.171 -1.029,-0.027 -1.942,0.004 -2.73,0.099 m 26.944,0.245 h -2.748 -4.245 c -0.744,0 -1.449,0.073 -2.122,0.204 0.163,0.089 0.331,0.171 0.492,0.266 0.759,0.446 1.444,0.945 2.055,1.496 0.611,0.551 1.095,1.14 1.452,1.766 0.357,0.625 0.536,1.265 0.536,1.921 0,0.804 -0.268,1.5 -0.804,2.088 -0.536,0.589 -1.281,1.051 -2.234,1.386 -0.954,0.335 -2.071,0.503 -3.352,0.503 -1.012,0 -1.92,-0.101 -2.725,-0.302 -0.804,-0.201 -1.527,-0.436 -2.167,-0.704 l -1.363,-2.234 c 0.328,-1.623 0.957,-3.046 1.888,-4.267 0.537,-0.706 1.167,-1.309 1.869,-1.834 -0.727,-0.182 -1.405,-0.289 -2.014,-0.289 h -3.463 v 0 h -10e-4 -0.692 c -0.626,0 -1.11,0.064 -1.452,0.191 -0.343,0.126 -0.578,0.349 -0.704,0.67 -0.127,0.32 -0.19,0.763 -0.19,1.329 v 0.804 h -0.004 c 0,0.021 0.004,0.046 0.004,0.067 0,0.671 -0.078,1.337 -0.235,2 -0.156,0.662 -0.398,1.265 -0.726,1.809 -0.327,0.544 -0.763,0.98 -1.306,1.307 -0.544,0.328 -1.196,0.492 -1.955,0.492 -0.701,0 -1.326,-0.153 -1.877,-0.458 -0.551,-0.306 -1.05,-0.712 -1.497,-1.218 -0.447,-0.506 -0.856,-1.068 -1.228,-1.686 -0.373,-0.619 -0.723,-1.24 -1.051,-1.866 -0.343,-0.656 -0.689,-1.244 -1.038,-1.765 -0.351,-0.522 -0.757,-0.931 -1.218,-1.229 -0.462,-0.298 -1.043,-0.447 -1.743,-0.447 h -36.371 v 8.669 h -1.541 v -11.506 c 0,-0.685 -0.109,-1.255 -0.325,-1.709 -0.215,-0.454 -0.554,-0.785 -1.016,-0.994 -0.462,-0.209 -1.05,-0.313 -1.765,-0.313 l 0.313,-1.698 c 0.908,0.03 1.687,0.227 2.335,0.592 0.648,0.365 1.143,0.898 1.485,1.598 0.343,0.7 0.514,1.541 0.514,2.524 v 1.095 h 36.372 v 0 c 0.864,0 1.6,0.171 2.211,0.514 0.588,0.33 1.12,0.805 1.598,1.419 0.311,-0.282 0.632,-0.549 0.971,-0.783 0.551,-0.379 1.185,-0.689 1.899,-0.927 0.715,-0.238 1.553,-0.406 2.514,-0.502 0.961,-0.097 2.088,-0.108 3.384,-0.034 0.27,0.469 0.481,0.967 0.662,1.479 0.235,-0.3 0.507,-0.562 0.857,-0.742 0.551,-0.283 1.259,-0.424 2.123,-0.424 h 0.692 10e-4 v 0 h 3.463 c 0.625,0 1.325,0.089 2.1,0.268 0.628,0.145 1.275,0.356 1.934,0.604 1.333,-0.572 2.813,-0.872 4.455,-0.872 h 4.245 4.312 v 18.141 h -1.564 z"
       style="fill:#231f20;fill-opacity:1;fill-rule:nonzero;stroke:none"
       transform="matrix(1.3333333,0,0,-1.3333333,294.20938,208.15816)"
       clip-path="url(#clipPath92)" /><path
       id="path93"
       d="m 230.589,31.105 h 1.542 v 18.141 h -1.542 z"
       style="fill:#231f20;fill-opacity:1;fill-rule:nonzero;stroke:none"
       transform="matrix(1.3333333,0,0,-1.3333333,12.463905,256.63202)"
       clip-path="url(#clipPath94)" /><path
       id="path95"
       d="m 0,0 c -0.775,0 -1.46,0.16 -2.056,0.48 -0.595,0.321 -1.061,0.764 -1.396,1.33 -0.335,0.566 -0.503,1.213 -0.503,1.944 0,0.774 0.198,1.471 0.593,2.089 0.394,0.617 0.923,1.113 1.586,1.485 0.662,0.372 1.411,0.559 2.245,0.559 0.8,0 1.673,-0.184 2.614,-0.544 v -7.343 z m 0.469,9.629 c -0.834,0 -1.609,-0.149 -2.323,-0.446 -0.715,-0.299 -1.349,-0.712 -1.899,-1.241 -0.552,-0.528 -0.98,-1.15 -1.285,-1.865 -0.305,-0.715 -0.458,-1.489 -0.458,-2.323 0,-0.998 0.227,-1.918 0.682,-2.759 0.454,-0.842 1.094,-1.509 1.921,-2 0.827,-0.492 1.79,-0.737 2.893,-0.737 h 3.083 v -1.095 c 0,-1.028 -0.231,-1.78 -0.692,-2.257 -0.462,-0.476 -1.215,-0.715 -2.257,-0.715 h -4.424 v -1.742 h 4.424 c 0.968,0 1.787,0.183 2.457,0.547 0.671,0.365 1.181,0.898 1.531,1.598 0.35,0.7 0.525,1.556 0.525,2.569 v 11.372 c -0.581,0.282 -1.233,0.536 -1.955,0.759 -0.723,0.224 -1.463,0.335 -2.223,0.335"
       style="fill:#231f20;fill-opacity:1;fill-rule:nonzero;stroke:none"
       transform="matrix(1.3333333,0,0,-1.3333333,332.99391,212.83522)"
       clip-path="url(#clipPath96)" /><path
       id="path97"
       d="m 0,0 c -0.313,0 -0.581,-0.108 -0.805,-0.324 -0.223,-0.216 -0.335,-0.488 -0.335,-0.815 0,-0.313 0.112,-0.581 0.335,-0.805 0.224,-0.223 0.492,-0.335 0.805,-0.335 0.327,0 0.599,0.112 0.815,0.335 0.216,0.224 0.324,0.492 0.324,0.805 0,0.327 -0.108,0.599 -0.324,0.815 -0.216,0.216 -0.488,0.324 -0.815,0.324"
       style="fill:#231f20;fill-opacity:1;fill-rule:nonzero;stroke:none"
       transform="matrix(1.3333333,0,0,-1.3333333,363.19898,217.03509)"
       clip-path="url(#clipPath98)" /><path
       id="path99"
       d="m 0,0 h -5.161 v 4 c 0,0.849 -0.152,1.623 -0.458,2.323 -0.305,0.699 -0.737,1.307 -1.296,1.821 -0.558,0.513 -1.221,0.908 -1.988,1.184 -0.767,0.275 -1.619,0.413 -2.558,0.413 -0.804,0 -1.598,-0.108 -2.379,-0.324 -0.782,-0.216 -1.523,-0.547 -2.223,-0.994 l 0.647,-1.407 c 0.537,0.297 1.144,0.536 1.821,0.714 0.678,0.179 1.382,0.269 2.112,0.269 0.983,0 1.828,-0.168 2.535,-0.503 0.708,-0.335 1.259,-0.801 1.654,-1.396 0.394,-0.597 0.592,-1.296 0.592,-2.1 v -4 h -32.798 -0.334 -0.447 v 4 c 0,0.849 -0.153,1.623 -0.458,2.323 -0.306,0.699 -0.741,1.307 -1.307,1.821 -0.566,0.513 -1.233,0.908 -2,1.184 -0.767,0.275 -1.612,0.413 -2.536,0.413 -0.819,0 -1.619,-0.108 -2.401,-0.324 -0.782,-0.216 -1.516,-0.547 -2.201,-0.994 l 0.626,-1.407 c 0.536,0.297 1.146,0.536 1.832,0.714 0.684,0.179 1.392,0.269 2.122,0.269 0.968,0 1.81,-0.168 2.525,-0.503 0.715,-0.335 1.266,-0.801 1.653,-1.396 0.387,-0.597 0.581,-1.296 0.581,-2.1 v -4 h -4.334 c -1.133,0 -2.123,-0.145 -2.972,-0.436 -0.849,-0.29 -1.557,-0.685 -2.122,-1.183 -0.566,-0.499 -0.991,-1.062 -1.273,-1.687 -0.284,-0.626 -0.425,-1.274 -0.425,-1.944 0,-0.744 0.167,-1.411 0.503,-2 0.335,-0.588 0.793,-1.083 1.374,-1.485 0.58,-0.402 1.232,-0.707 1.954,-0.916 0.723,-0.208 1.471,-0.313 2.245,-0.313 0.596,0 1.188,0.064 1.777,0.19 0.588,0.127 1.15,0.317 1.686,0.57 l -0.536,1.519 c -0.447,-0.164 -0.916,-0.294 -1.407,-0.391 -0.492,-0.097 -0.991,-0.145 -1.497,-0.145 -0.894,0 -1.683,0.13 -2.368,0.391 -0.685,0.261 -1.221,0.618 -1.609,1.072 -0.387,0.454 -0.581,0.98 -0.581,1.575 0,0.656 0.22,1.24 0.659,1.754 0.439,0.514 1.051,0.924 1.833,1.229 0.781,0.305 1.701,0.458 2.759,0.458 h 4.334 1.564 0.447 0.066 33.066 1.117 0.424 6.725 v 18.14 h -1.564 z"
       style="fill:#231f20;fill-opacity:1;fill-rule:nonzero;stroke:none"
       transform="matrix(1.3333333,0,0,-1.3333333,420.15405,212.83522)"
       clip-path="url(#clipPath100)" /><path
       id="path101"
       d="m 310.638,31.105 h 1.542 v 18.141 h -1.542 z"
       style="fill:#231f20;fill-opacity:1;fill-rule:nonzero;stroke:none"
       transform="matrix(1.3333333,0,0,-1.3333333,12.463905,256.63202)"
       clip-path="url(#clipPath102)" /><path
       id="path103"
       d="m 0,0 c -5.376,0 -8.512,4.032 -8.512,9.632 0,5.656 3.192,9.688 8.568,9.688 5.376,0 8.624,-3.976 8.624,-9.688 0,-5.656 -3.304,-9.632 -8.68,-9.632 m 9.016,18.312 c -1.792,3.92 -5.768,5.824 -9.968,5.824 -7.84,0 -12.88,-5.88 -12.88,-14.28 0,-8.344 4.648,-14.616 12.712,-14.616 4.536,0 8.064,2.184 9.912,5.712 v -4.984 h 5.264 v 27.384 h -5.04 z"
       style="fill:#231f20;fill-opacity:1;fill-rule:nonzero;stroke:none"
       transform="matrix(1.3333333,0,0,-1.3333333,213.69578,147.91362)"
       clip-path="url(#clipPath104)" /><path
       id="path105"
       d="m 171.028,77.507 h 5.264 v 41.216 h -5.264 z"
       style="fill:#231f20;fill-opacity:1;fill-rule:nonzero;stroke:none"
       transform="matrix(1.3333333,0,0,-1.3333333,12.463905,256.63202)"
       clip-path="url(#clipPath106)" /><path
       id="path107"
       d="m 0,0 h -20.783 v -4.424 h 14.784 l -14.784,-18.704 0.524,-4.256 h 20.812 v 4.424 h -14.896 l 14.896,18.648 z"
       style="fill:#231f20;fill-opacity:1;fill-rule:nonzero;stroke:none"
       transform="matrix(1.3333333,0,0,-1.3333333,281.05445,116.77762)"
       clip-path="url(#clipPath108)" /><path
       id="path109"
       d="m 0,0 c -5.376,0 -8.512,4.032 -8.512,9.632 0,5.656 3.192,9.688 8.568,9.688 5.376,0 8.624,-3.976 8.624,-9.688 0,-5.656 -3.304,-9.632 -8.68,-9.632 m 9.016,18.312 c -1.792,3.92 -5.768,5.824 -9.968,5.824 -7.84,0 -12.88,-5.88 -12.88,-14.28 0,-8.344 4.648,-14.616 12.712,-14.616 4.536,0 8.064,2.184 9.912,5.712 v -4.984 h 5.264 v 27.384 h -5.04 z"
       style="fill:#231f20;fill-opacity:1;fill-rule:nonzero;stroke:none"
       transform="matrix(1.3333333,0,0,-1.3333333,302.69818,147.91362)"
       clip-path="url(#clipPath110)" /><path
       id="path111"
       d="m 0,0 c -4.256,0 -7.56,-2.016 -9.296,-4.984 v 18.032 h -5.264 v -41.16 h 5.264 v 14.896 c 0,4.704 2.744,8.4 7.84,8.4 3.92,0 6.552,-2.24 6.552,-7.784 v -15.568 h 5.264 v 16.744 c 0,7 -3.36,11.424 -10.36,11.424"
       style="fill:#231f20;fill-opacity:1;fill-rule:nonzero;stroke:none"
       transform="matrix(1.3333333,0,0,-1.3333333,348.76725,115.73202)"
       clip-path="url(#clipPath112)" /><path
       id="path113"
       d="m 0,0 v 4.144 h -5.264 v -27.328 h 5.264 v 14.504 c 0,5.264 3.08,8.288 8.064,8.288 h 1.771 l 0.581,4.816 c -1.064,0.224 -1.848,0.336 -2.8,0.336 -3.752,0 -6.496,-1.904 -7.616,-4.76"
       style="fill:#231f20;fill-opacity:1;fill-rule:nonzero;stroke:none"
       transform="matrix(1.3333333,0,0,-1.3333333,377.06605,122.37789)"
       clip-path="url(#clipPath114)" /><path
       id="path115"
       d="m 0,0 c -5.376,0 -8.512,4.032 -8.512,9.632 0,5.656 3.192,9.688 8.568,9.688 5.376,0 8.624,-3.976 8.624,-9.688 0,-5.656 -3.304,-9.632 -8.68,-9.632 m 9.015,23.352 10e-4,-5.04 c -1.792,3.92 -5.768,5.824 -9.968,5.824 -7.84,0 -12.88,-5.88 -12.88,-14.28 0,-8.344 4.648,-14.616 12.712,-14.616 4.536,0 8.064,2.184 9.912,5.712 v -4.984 h 5.264 v 27.384 z"
       style="fill:#231f20;fill-opacity:1;fill-rule:nonzero;stroke:none"
       transform="matrix(1.3333333,0,0,-1.3333333,409.99378,147.91362)"
       clip-path="url(#clipPath116)" /><path
       id="path117"
       d="m 306.921,134.898 h 5.295 v 39.517 h -5.295 z m -4.897,39.518 h -5.264 v -33.975 h -7.603 v 17.686 h -5.268 v -25.445 c 0,-1.253 -0.103,-2.281 -0.52,-3.084 -0.418,-0.803 -0.798,-1.093 -1.729,-1.431 -0.933,-0.337 -1.981,-0.425 -3.554,-0.591 l 0.665,-5.496 c 2.152,0.032 4.085,0.466 5.611,1.301 1.526,0.836 2.706,2.04 3.542,3.614 0.835,1.575 1.253,3.47 1.253,5.687 v 2.216 h 12.867 z m -48.523,-24.481 c 0,-1.414 0.465,-2.724 1.398,-3.928 0.845,-1.094 1.942,-2.049 3.265,-2.878 0.098,0.054 0.204,0.101 0.301,0.155 1.542,0.867 2.739,1.863 3.59,2.988 0.851,1.124 1.277,2.313 1.277,3.566 0,0.932 -0.225,1.775 -0.674,2.53 -0.451,0.755 -1.053,1.357 -1.808,1.807 -0.755,0.45 -1.599,0.675 -2.53,0.675 -0.9,0 -1.711,-0.225 -2.433,-0.675 -0.723,-0.45 -1.302,-1.044 -1.735,-1.783 -0.434,-0.739 -0.651,-1.559 -0.651,-2.457 m 10.384,-9.221 c 1.571,-0.4 3.091,-0.61 4.555,-0.61 1.221,0 2.338,0.168 3.35,0.505 1.012,0.338 1.823,0.892 2.433,1.663 0.611,0.771 0.916,1.814 0.916,3.132 0,1.767 -0.699,3.261 -2.096,4.482 -1.173,1.024 -2.912,1.928 -5.204,2.715 0.234,-0.895 0.361,-1.815 0.361,-2.763 0,-1.96 -0.499,-3.831 -1.494,-5.614 -0.709,-1.269 -1.657,-2.436 -2.821,-3.51 m -95.405,17.413 v -17.686 l 77.78,-0.011 c 0.025,0.001 3.485,0.077 5.97,0.603 -0.722,0.768 -1.36,1.597 -1.91,2.492 -1.125,1.831 -1.686,3.871 -1.686,6.12 0,1.928 0.417,3.703 1.253,5.325 0.226,0.44 0.479,0.852 0.751,1.245 -0.131,0.018 -0.257,0.038 -0.39,0.056 -1.044,0.145 -2.128,0.314 -3.253,0.507 l 0.627,5.445 c 4.172,-0.588 8.014,-1.215 11.564,-1.876 0.594,-0.052 1.165,-0.164 1.719,-0.325 3.901,-0.766 7.276,-1.726 10.114,-2.883 2.875,-1.173 5.091,-2.691 6.65,-4.554 1.558,-1.864 2.337,-4.225 2.337,-7.084 0,-1.928 -0.329,-3.575 -0.987,-4.94 -0.659,-1.366 -1.567,-2.466 -2.724,-3.301 -1.156,-0.836 -2.465,-1.454 -3.927,-1.855 -1.462,-0.403 -3.012,-0.603 -4.65,-0.603 -2.25,0 -4.507,0.345 -6.771,1.036 -1.056,0.322 -2.062,0.717 -3.027,1.172 -0.779,-0.32 -1.583,-0.621 -2.443,-0.883 -3.907,-1.186 -9.217,-1.229 -9.217,-1.229 h -77.78 v -2.216 c 0,-2.217 -0.418,-4.112 -1.253,-5.687 -0.836,-1.574 -2.017,-2.778 -3.542,-3.614 -1.526,-0.835 -3.459,-1.269 -5.611,-1.301 l -0.665,5.496 c 1.573,0.166 2.621,0.254 3.553,0.591 0.932,0.338 1.312,0.628 1.73,1.431 0.417,0.803 0.519,1.831 0.519,3.084 v 25.445 z m -26.427,-12.626 c 0,-1.029 0.265,-1.92 0.795,-2.675 0.53,-0.755 1.293,-1.342 2.289,-1.759 0.996,-0.418 2.185,-0.626 3.566,-0.626 1.414,0 2.61,0.208 3.591,0.626 0.979,0.417 1.734,1.012 2.265,1.783 0.53,0.771 0.795,1.671 0.795,2.699 0,1.413 -0.498,2.955 -1.494,4.626 -0.996,1.671 -2.554,3.47 -4.675,5.398 h -0.915 c -2.153,-1.96 -3.727,-3.767 -4.723,-5.422 -0.996,-1.655 -1.494,-3.205 -1.494,-4.65 m -3.422,-5.494 c -0.963,1.606 -1.445,3.437 -1.445,5.494 0,5.14 3.148,10.344 9.445,15.614 h 4.193 c 6.264,-5.237 9.397,-10.426 9.397,-15.566 0,-2.089 -0.482,-3.936 -1.446,-5.542 -0.963,-1.607 -2.305,-2.86 -4.023,-3.759 -1.72,-0.9 -3.735,-1.35 -6.049,-1.35 -2.281,0 -4.289,0.45 -6.024,1.35 -1.735,0.899 -3.084,2.152 -4.048,3.759 m 148.117,24.577 c 0.931,0 1.702,0.314 2.313,0.94 0.61,0.627 0.916,1.39 0.916,2.289 0,0.932 -0.306,1.703 -0.916,2.313 -0.611,0.611 -1.382,0.916 -2.313,0.916 -0.9,0 -1.663,-0.305 -2.289,-0.916 -0.627,-0.61 -0.94,-1.381 -0.94,-2.313 0,-0.899 0.313,-1.662 0.94,-2.289 0.626,-0.626 1.389,-0.94 2.289,-0.94 m -136.72,7.47 c -0.562,-0.546 -0.843,-1.253 -0.843,-2.12 0,-0.836 0.281,-1.535 0.843,-2.097 0.562,-0.562 1.261,-0.843 2.097,-0.843 0.835,0 1.534,0.281 2.096,0.843 0.562,0.562 0.843,1.261 0.843,2.097 0,0.867 -0.281,1.574 -0.843,2.12 -0.562,0.546 -1.261,0.82 -2.096,0.82 -0.836,0 -1.535,-0.274 -2.097,-0.82 m -4.746,0.82 c 0.835,0 1.533,-0.274 2.096,-0.82 0.562,-0.546 0.843,-1.253 0.843,-2.12 0,-0.836 -0.281,-1.535 -0.843,-2.097 -0.563,-0.562 -1.261,-0.843 -2.096,-0.843 -0.836,0 -1.535,0.281 -2.096,0.843 -0.563,0.562 -0.844,1.261 -0.844,2.097 0,0.867 0.281,1.574 0.844,2.12 0.561,0.546 1.26,0.82 2.096,0.82"
       style="fill:#231f20;fill-opacity:1;fill-rule:nonzero;stroke:none"
       transform="matrix(1.3333333,0,0,-1.3333333,12.463905,256.63202)"
       clip-path="url(#clipPath118)" /></g></svg>
